<?xml version="1.0" encoding="UTF-8"?>
<!DOCTYPE svg PUBLIC "-//W3C//DTD SVG 1.1//EN" "http://www.w3.org/Graphics/SVG/1.1/DTD/svg11.dtd">
<!-- Creator: CorelDRAW 2021 (64-Bit) -->
<svg xmlns="http://www.w3.org/2000/svg" xml:space="preserve" width="100mm" height="100mm" version="1.1" style="shape-rendering:geometricPrecision; text-rendering:geometricPrecision; image-rendering:optimizeQuality; fill-rule:evenodd; clip-rule:evenodd"
viewBox="0 0 10000 10000"
 xmlns:xlink="http://www.w3.org/1999/xlink"
 xmlns:xodm="http://www.corel.com/coreldraw/odm/2003">
 <defs>
  <style type="text/css">
   <![CDATA[
    .str0 {stroke:#ECC937;stroke-width:20;stroke-miterlimit:22.9256}
    .fil2 {fill:none}
    .fil1 {fill:#ECC937}
    .fil0 {fill:white}
   ]]>
  </style>
 </defs>
 <g id="Слой_x0020_1">
  <metadata id="CorelCorpID_0Corel-Layer"/>
  <rect class="fil0" x="-3.8" y="3.8" width="10000" height="10000"/>
  <path class="fil1" d="M6381.32 4477.18c-42.91,-3.86 -89.12,-11.83 -130.81,-19.43 -20.49,-3.73 -40.99,-7.55 -61.22,-12.01 -9.81,-2.17 -51.19,-8.97 -58.45,-15.04 -17.35,0.64 -101.93,-24.44 -124.48,-30.81 -35.66,-10.08 -86.42,-26.16 -122.08,-31.84l-0.07 -25.95c1.88,-8.26 103.08,-73.85 109.03,-78.02 19.39,-13.58 35.87,-24.6 54.29,-37.63 13.28,-9.39 45.16,-25.3 49.28,-42.96 6.67,-28.58 -22.49,-50.04 -47.18,-35.13 -17.62,10.65 -36.83,25.11 -54.57,37.4 -17.93,12.42 -98.69,70.11 -110.88,75.09l0.42 -114.69c14.93,-7.16 39.88,-26.1 55.32,-36.81l108.98 -74.98c20.44,-13.48 45.11,-26.99 48.25,-44.07 5.33,-29.09 -23.81,-47.64 -49.07,-32.21 -19.29,11.78 -36.1,25.37 -54.37,37.59l-81.23 55.6c-9.65,6.22 -17.54,13.45 -28.27,18.19l0.02 -118.86c1.53,-5.68 139.68,-98.38 163.71,-115.24 13.72,-9.64 45.54,-26.31 49.07,-43.18 6.05,-28.86 -22.42,-48.64 -48.15,-33.84 -29.69,17.07 -148.56,105.91 -164.62,111.76l-0.03 -122.32c3.04,-7.22 5.54,-7.83 12.15,-12.11l96.64 -66.14c18.9,-13.35 35.81,-25.21 54.31,-37.6 13,-8.7 45.27,-25.79 49.43,-42.84 6.84,-27.99 -21.43,-50.27 -47.08,-35.08l-137.21 93.98c-9.25,6.41 -17.63,13.77 -28.26,18.32l0.24 -138.37c10.45,-4.29 93.18,-65.71 110.76,-77.9 91.23,-63.21 61.04,-59.53 124.01,-42.72 99.65,26.58 198.05,53.35 298.53,79.58l-0.02 994.73 -36.39 -4.46zm-961.14 -183.15c-98.75,-5.22 -191.54,-5.17 -289.93,2.21 -132.23,11.6 -174.91,22.35 -299.46,45.56l0.16 -44.46 193.11 -132.16c20.65,-14.53 53.65,-31.13 56.94,-49.72 3.3,-18.66 -6.57,-31.13 -18.68,-35.66 -17.88,-6.7 -30.11,3.3 -40.47,10.08l-191.03 130.8 0.04 -180.59c10.94,-5.72 21.65,-13.94 32.4,-21.57 11.89,-8.42 21.17,-14.26 32.21,-22.05 21.87,-15.44 42.46,-29.15 64.41,-44.11l96.14 -66.51c9.76,-6.83 22.13,-12.31 24.94,-27.48 3.46,-18.62 -6.3,-31.36 -18.43,-35.84 -18.44,-6.81 -30.14,2.89 -40.56,10.34l-127.33 87.32c-15.82,10.29 -49.75,36.06 -63.9,43.2l0.01 -181.19c20.11,-10.71 100.33,-68.88 128.54,-87.46 22.31,-14.7 42.14,-29.25 64.01,-44.41 22.49,-15.6 54.82,-31.67 57.86,-51.28 3.11,-20.01 -15.9,-55.02 -58.32,-24.72l-192.09 131.19 -0.01 -174.7c1.04,-4.44 190.15,-135.19 223.25,-156.42 10.91,-6.99 23.41,-14 26.68,-27.97 5.49,-23.37 -17.12,-56.31 -56.82,-28.09l-193.09 132.16 -0.01 -160.24c1.4,-8.85 23.38,-20.79 30.58,-26.03l160.85 -117.41c39.53,-28.11 22.51,-28.26 79.09,-16.32 62.07,13.1 122.61,26.21 184.21,39.8 58.5,12.91 123.94,29.5 182.29,39.13l0 1088.06 -47.59 -3.46zm-1080.73 214.51l-90.66 46.31c-71.99,33.36 -110.86,54.11 -189.8,86.21 -29.31,11.92 -70.97,30.76 -101.2,38.73 -76.35,36.25 -278.87,76.26 -366.47,82.82l227.92 -158.5c14.92,-10.01 30.3,-20.67 44.65,-30.81 14.7,-10.39 34.79,-19.09 39.03,-36.45 5.53,-22.62 -12.17,-41.44 -34.21,-39.15 -20,2.07 -331.64,229.47 -363.92,244.6l-0.04 -211.53c1.83,-7.35 92.64,-66.79 100.42,-72.29l278.17 -191.17c9.9,-6.29 16.65,-10.02 19.9,-22.72 6.92,-27.05 -18.7,-48.22 -44.08,-36.84 -7.41,3.32 -17.87,11.92 -25.32,17.09l-329.04 224.91 0.09 -214.25 206.04 -140.58c34.45,-24.31 69.52,-46.98 103.54,-71.03 17.41,-12.3 34.08,-23.38 51.51,-35.69 13.66,-9.65 40.19,-21.6 43.66,-41.18 4.5,-25.29 -21.04,-45.79 -45.7,-33.91l-205.49 141.12c-21.78,15.38 -139.72,97.88 -153.73,104.59l0.89 -217.17c17.87,-11.09 34.59,-22.88 52.31,-35.17l307.34 -211.47c13.96,-9.86 40.94,-22.65 43.45,-41.78 3.35,-25.53 -20.69,-44.66 -45.25,-33.21l-358.67 244.99 -0.03 -213.91c1.53,-6.17 90.6,-65.01 102.27,-72.84 82.37,-55.31 175.91,-124.35 256.88,-176.99 14.31,-9.31 41.14,-23.54 44.83,-40.61 5.73,-26.5 -19.71,-46.67 -43.65,-36.14l-51.99 35.29c-27.98,18.42 -297.14,206.28 -308.33,210.69l0.06 -214.91c12.74,-5.36 38.82,-25.91 52.16,-34.85 49.08,-32.92 109.47,-77.23 155.23,-106.59l180.19 -124.01c8.89,-6.45 16.12,-11.34 17.9,-24.5 3.35,-24.72 -20.42,-44.35 -44.57,-33.01l-257.73 176.38c-17.66,12.45 -34.03,23.77 -51.51,35.7 -12.2,8.33 -39.98,29.55 -51.75,34.21l0 -205.63c1.41,-7.85 39.84,-32.12 46.27,-36.83 16.05,-11.75 30.42,-21.3 46.81,-33.39 89.61,-66.08 194.38,-135.49 280.46,-200.64 12.09,-9.15 11.57,-10.64 28.84,-6.16 64.65,16.76 465.27,112.25 481.84,119.23l0.13 1572.55 -49.65 20.49zm-898.25 267.05c-49.63,2.09 -98.38,3.36 -148.23,2.28 -21.01,-0.46 -50.84,-5.75 -64.55,6.61 -16,14.42 -11.64,41.87 5.18,51.01 25.77,13.98 244.72,1.62 288.17,-2.35 281.01,-25.65 471.33,-84.19 712.67,-200.65 69.03,-33.31 132.69,-66.97 206.5,-97.65 333.24,-138.5 658.57,-205.33 1028.86,-173.83 180.43,15.34 345.2,53.77 511.05,97.51 244.06,64.35 402.26,95.5 658.75,100.92 25.11,0.53 50.41,0.77 75.52,0.6 25.32,-0.18 45.31,-10.47 40.11,-38.35 -4.54,-24.32 -25.02,-24.99 -51.95,-24.83 -79.93,0.49 -142.72,-4.15 -221.97,-8.85 -3.71,-54.44 -0.44,-120.83 -0.44,-176.57l0 -797.13c0,-25.79 5.41,-64.81 -12.14,-76.73 -13.89,-9.44 -288.23,-79.24 -348.18,-95.34 -21.9,-5.88 -53.63,-19.62 -72.74,-6.99 -59.36,39.27 -146.93,104.64 -206.56,147.15 -26.5,18.89 -20.17,30.97 -20.17,69.64l0.02 800.28c-94.84,-13.56 -181.04,-39.46 -289.84,-48.28 -3.69,-64.54 -0.38,-139.2 -0.38,-204.85l0 -825.43c0,-123.5 13.41,-112.44 -75.9,-131.42 -114.18,-24.27 -227.51,-49.22 -341.31,-73.84 -84.69,-18.33 -62.03,-21.53 -143.69,37.95l-119.91 87.59c-20.21,15.45 -39.42,29.28 -59.91,43.83 -29.81,21.15 -22.53,26.86 -22.53,80.69l0 1035.33c-2.03,6.63 -65.74,21.18 -80.95,25.82 -27.54,8.4 -53.19,16.7 -80.59,25.47l-153.9 56.03c-3.4,-68.55 -0.26,-218.29 -0.26,-295.99l0 -1198.05c0,-83.17 10.85,-99.57 -38.05,-111.33l-361.72 -88.76c-39.71,-9.72 -79.43,-19.83 -119.3,-29.32 -17.63,-4.19 -46.04,-13.64 -63.54,-5.68l-219.17 155.88c-57.8,41.13 -116.85,82.23 -174.71,124.8 -43.87,32.28 -33.8,23.59 -33.8,114.78l0 1497.56c0,47.59 2.74,103.98 -0.44,150.49z"/>
  <path class="fil2 str0" d="M3957.79 4679.79c30.23,-7.97 71.89,-26.81 101.2,-38.73 78.94,-32.1 117.81,-52.85 189.8,-86.21l86.05 -45c0.98,-12.22 1.22,-6.91 1.29,-26.24l-5.12 -1391.45c-0.13,-19.12 2.16,-107.78 -2.2,-118.33 -7.25,-17.54 -65.3,-24.46 -88.11,-29.92 -63.96,-15.28 -127.4,-29.66 -191.58,-44.27 -24.31,-5.54 -81.39,-29.25 -89.71,0.34 -3.76,13.4 -1.04,1216.36 -1.04,1305.33 0,48.17 2.67,437.45 -0.58,474.48z"/>
  <g>
   <path class="fil1" d="M3395.19 5261.95c-112.27,-85.87 -204.98,-154.53 -290.71,-250.12 -79.56,-88.7 -119.73,-133.71 -192.41,-241.54 -251.03,-372.46 -362,-836.1 -307.43,-1291.25 23.61,-196.83 82.11,-415.57 164.48,-594.87 5.77,-12.55 11.51,-24.99 16.9,-37.32 5.05,-11.53 13.83,-25.73 16.85,-37.38 -10.34,8.86 -17.92,21.8 -26.19,32.86 -8.76,11.72 -15.95,22.13 -24.41,34.51 -285.86,417.97 -377.94,940.92 -262.03,1440.39 61.67,265.78 182.55,524.12 345.15,732.53 18.05,23.14 35.58,44.12 53.53,66.77 29.87,37.68 114.49,126.64 145.19,154.32 55.04,49.63 100.96,93.81 163.1,138.78 384.53,278.03 762.29,405.96 1255.4,392.59 30.32,-1.21 184.12,-11.06 201.48,-22.16 8.39,1.35 25.68,-0.08 31.58,-5.08 15.83,1.21 33.86,-4.22 49.07,-7.21 151.93,-97.13 120.3,-144.2 131.35,-220.58l-35.37 7.46 -54.5 9.9 -91.72 13.75c-153.47,16.12 -275.87,15.52 -424.02,3.76l-0.13 -0.02 -865.16 -320.09zm864.56 319.99c-9.17,-1.44 -20.25,-2.08 -26.42,-2.91 -133.9,-18.01 -472.14,-89.53 -658.72,-200.93 -0.25,-0.25 -171.47,-112.68 -179.42,-116.15l864.56 319.99zm1334.57 -233.64c3.13,-3.49 0.83,-0.12 3.58,-4.69 50.34,-14.4 273.9,-299.37 286.13,-316.12 24.75,-33.94 119.26,-182.7 127.49,-217.48 -51.17,77.07 -149.41,174.49 -223.63,244.03l-42.22 40.21c-208.99,172.25 -368.75,277.44 -626.42,378.75l-42.47 14.7c0.43,6.49 1.05,1.61 -2.22,6.4 -21.67,35.88 -204.86,192.21 -130.68,219.1 103.39,-34.74 359.33,-135.48 406.54,-187.89 30.32,-4.36 192.96,-133.09 243.9,-177.01z"/>
  </g>
  <path class="fil1" d="M7057.12 5662.94c121.91,-139.89 209.42,-257.02 297.24,-433.88 97.9,-197.17 168.07,-422.03 190,-673.49 19.34,-221.7 -4.04,-459.7 -71.61,-671.64 -4.52,-14.17 -8.52,-26.85 -13.37,-40.85l-10.32 -29.72c-0.95,-2.35 -1.22,-3.03 -2.33,-5.11 -2.61,-4.89 -1.43,-2.71 -3.11,-4.96 4.39,57.32 14.93,115.93 19.22,175.63 27.73,385.94 -51.4,783.42 -239.48,1111.98 -88.6,154.79 -223.19,343.48 -361.27,464.2 -4.7,4.11 -8.3,6.69 -12.71,10.93 -528.92,508.17 -1294.56,596.37 -1962.67,351.77 -5.76,-5.85 -17,-9.45 -25.19,-12.45l-79.13 -33.37c-3.15,-3.27 -3.86,-3.41 -10.26,-6.42 -11.64,-5.47 -28.83,-15.9 -39.66,-17.63 5.63,56.87 43.35,164.59 58.17,227.05l1.97 16.71c0.47,3.12 5.33,3.17 11.17,6.36l39.28 18.37c936.34,268.85 1518.4,199.47 2214.06,-453.48z"/>
  <path class="fil2 str0" d="M5130.25 4296.24c98.39,-7.38 191.18,-7.43 289.93,-2.21 2.31,-101.3 -0.38,-207.04 -1.13,-308.64l-2.51 -614.94c0.01,-25.94 -0.29,-51.89 -0.28,-77.83 0.02,-35.24 -1.67,-37.91 -34.09,-44.28l-192.57 -38.59c-20.55,-4.13 -49.94,-14.64 -57.59,6.78 -3.68,10.28 -1.26,1036.8 -1.76,1079.71z"/>
  <path class="fil2 str0" d="M6130.84 4430.7c9.33,4 48.64,12.87 58.45,15.04 20.23,4.46 40.73,8.28 61.22,12.01 41.69,7.6 87.9,15.57 130.81,19.43 2.26,-184.26 -1.9,-370.45 -2.01,-554.87 -0.05,-92.75 -0.62,-185.54 -0.99,-278.29 -0.09,-22.79 -0.35,-45.6 -0.33,-68.39 0.07,-71.42 14,-55.13 -123.82,-88.71 -143.03,-34.84 -121.79,-48.15 -121.79,107.57 0,111.74 -1.15,826 -1.54,836.21z"/>
  <path class="fil1" d="M5181.07 4530.3c-159.57,5.81 -326.15,34.97 -476.4,81.91 -43.79,13.68 -98.42,30.43 -137.9,48.39 -25.2,11.47 -27.32,44.81 -3.3,57.34 18.42,9.62 51.51,-8.39 69.28,-14.88 387.61,-141.45 720.6,-136.31 1120.57,-40.76 100.43,24 198.24,47.83 296.64,73.7 249.88,65.68 349.12,105.04 624.15,118.76 60.28,3.01 124.52,3.05 184.89,1.27 29.5,-0.87 152.51,-5.88 172.54,-13.54 22.11,-8.45 26.9,-45.67 2.25,-57.31 -13.9,-6.57 -66.2,1.4 -85.23,2.77 -176.44,12.69 -347.83,6.47 -521.59,-23.3 -102.56,-17.58 -201.64,-44.3 -297.93,-72.34 -96,-27.95 -197.52,-54.06 -296.29,-76.38 -220.05,-49.73 -410.21,-94.42 -651.68,-85.63z"/>
  <path class="fil1 str0" d="M4472.83 6987.73l20.39 0.37 0.01 -376.85c16.79,17.77 288.81,367.63 294.16,377.11l17.85 -0.03 0 -416.25 -20.36 0 -0.12 377.25c-12.65,-12.7 -23.8,-29.6 -35.84,-44.42 -79.94,-98.36 -161.34,-210.71 -241.72,-310.11 -4.74,-5.86 -5.51,-7.22 -9.13,-12.09 -9.77,-13.13 -10.3,-10.68 -25.26,-10.11l0.02 415.13z"/>
  <path class="fil1 str0" d="M5376.4 6590.67c101.98,0 268.28,-25.44 268.39,119.22 0.04,62.04 -33.3,97.78 -83.65,112.59 -43.35,12.75 -135.85,7.53 -185.93,7.53l1.19 -239.34zm-21.54 397.06l20.39 0.38 -0.01 -139.48c64.17,0 107.38,0.77 171.21,-2.94 4.29,10.32 16.51,25.42 23.57,35.27 9.06,12.63 16.59,23.31 25.69,35.62l50.61 71.68 24.07 -0.04c-9.52,-18.62 -98.49,-134 -104.77,-148.81 66.43,-13.37 114.93,-81.02 95.23,-164.87 -16.81,-71.55 -79.75,-102.08 -165.06,-102.46l-140.93 0.08 0 415.57z"/>
  <path class="fil1 str0" d="M3519.37 6830.01l-0.11 -239.34c102.82,0.06 269.38,-25.59 269.49,119.22 0.11,145.87 -167.7,120.36 -269.38,120.12zm-20.55 157.71l20.4 0.4 -0.02 -139.5c64.16,0.01 107.4,0.77 171.22,-2.92 4.33,10.42 16.47,25.33 23.57,35.26l51.41 71.19c6.31,8.46 21.55,28.57 24.86,36.14l24.1 -0.09c-9.84,-19.08 -98.33,-133.73 -104.8,-148.79 107.62,-21.77 120.74,-154.98 72.59,-212.94 -24.86,-29.92 -59.93,-49.03 -114.04,-53.38l-169.31 -0.17 0.02 414.8z"/>
  <path class="fil1 str0" d="M4096.87 6787.38c1.52,-0.85 1.26,-1.38 5.19,-2.09l220.08 -0.13 0.01 -16.58c-9.24,-0.03 -215.81,3.31 -224.99,-2.44l-0.07 -175.47 252.56 0.01 0 -18.62 -273.04 0.05 0.01 415.63 281.28 0.64 -0.34 -18.65 -260.54 0.01 -0.15 -182.36z"/>
  <path class="fil1 str0" d="M3122.87 6787.4l12.06 -2.4c4.6,-0.07 9.6,0.14 14.28,0.14l198.94 0 -0.01 -16.57c-8.94,0 -215.87,3.3 -224.99,-2.42l-0.06 -175.47 252.54 0 0 -18.62 -273.04 0.05 0.02 415.61 281.28 0.66 -0.33 -18.65 -260.55 0.01 -0.14 -182.34z"/>
  <path class="fil1 str0" d="M6433.99 6787.37c1.53,-0.85 1.29,-1.39 5.21,-2.1l220.06 -0.14 0.01 -16.56c-8.9,0 -215.91,3.3 -224.95,-2.41l-0.09 -175.49 252.56 0 -0.01 -18.59 -273.02 0.04 0.01 415.61 281.28 0.64 -0.35 -18.63 -260.54 0 -0.17 -182.37z"/>
  <path class="fil1 str0" d="M4976.53 6787.38c9.7,-5.42 216.15,-2.26 225.22,-2.26l0.06 -16.54c-9.02,0 -215.85,3.31 -224.98,-2.41l-0.07 -175.5 252.55 0 0 -18.6 -273.01 0.05 0 415.61 281.26 0.64 -0.34 -18.63 -260.53 0 -0.16 -182.36z"/>
  <path class="fil1 str0" d="M6101.5 6783.4l-18.88 -0.31 -0.21 145.69c-33.49,23.24 -46.85,35.7 -97.11,41.65 -242.18,28.66 -302.11,-283 -114.7,-364.43 52.15,-22.66 123.48,-24.92 177.5,2.13 25.95,13 32.35,23.81 42,28.95l11.93 -13.71c-15.94,-10.48 -19.47,-21.29 -52.65,-35.46 -106.67,-45.54 -245.11,-7.37 -294.33,110.01 -18.28,43.58 -20.97,102.41 -5.38,149.58 49.17,148.77 232.86,181.12 339.96,100.13 12.17,-9.2 12.26,-11.31 12.04,-30.13l-0.17 -134.1z"/>
  <path class="fil1 str0" d="M2707.23 6919.21c-3.05,6.26 -5.8,8.29 -8.47,15.42 100.17,98.36 322.1,65.13 290.98,-74.48 -9.76,-43.79 -45.1,-61.3 -88.15,-74.81 -38.22,-12 -88.93,-20.19 -123.04,-37.22 -82.12,-41.02 -61.34,-154.62 62.19,-160.11 77.21,-3.43 104.13,27.56 127.22,35.33l6.96 -14.67c-20.33,-22.76 -79.97,-38.53 -120.5,-38.94 -50.26,-0.52 -96.35,14.83 -119.72,41.71 -25.58,29.41 -36.01,84.41 -8.47,120.53 23,30.17 60.09,41.59 106.12,54.34 59.2,16.39 141.41,25.3 139.88,100.48 -1.95,95.6 -154.35,110.71 -241.69,50.79 -5.13,-3.52 -5.85,-3.55 -10.51,-8.36 -6.58,-6.8 -3.98,-6.41 -12.8,-10.01z"/>
  <path class="fil1 str0" d="M6775.42 6919.21c-3.05,6.25 -5.79,8.31 -8.46,15.44 60.52,59.26 178.47,74.1 243.02,34.79 30.71,-18.7 60.08,-55.1 47.96,-109.29 -9.8,-43.79 -45.03,-61.27 -88.17,-74.81 -52.34,-16.43 -141.67,-25.87 -164.8,-75.79 -8.93,-19.29 -8.41,-45.97 0.01,-65.32 29.27,-67.22 138.31,-68.07 202.85,-36.15 10.15,5.02 19.22,12.15 28.31,15.25l6.98 -14.66c-20.54,-22.86 -79.77,-38.53 -120.51,-38.95 -148.74,-1.54 -164.65,114.49 -128.2,162.26 23.05,30.2 60.13,41.58 106.13,54.33 58.68,16.28 141.62,25.3 139.88,100.49 -2.21,95.45 -144.59,101.46 -216.64,65.72 -10.18,-5.05 -16.61,-9.15 -25.04,-14.95 -5.06,-3.48 -5.89,-3.6 -10.51,-8.36 -6.59,-6.79 -3.99,-6.41 -12.81,-10z"/>
  <path class="fil1 str0" d="M4485.4 7128.53l34.02 0c30.37,-0.01 53.44,8.94 51.79,41.15 -1.52,29.54 -24.54,35.47 -54.14,35.47l-31.67 0 0 -76.62zm-23.76 147.54l23.78 -0.46c-0.02,-14.94 -2.42,-37.56 1.68,-50.39l48.83 -0.09c8.92,9.97 29.68,39.97 35.28,50.74l26 0.02c-8.2,-15.79 -32.34,-43.62 -37.67,-56.51 52.07,-18.95 54.76,-110.92 -35.4,-110.92l-62.51 0 0.01 167.61z"/>
  <path class="fil1 str0" d="M4815.45 7207.52c-18.95,-89.51 108.99,-112.77 125.19,-29.91 17.57,89.9 -108.07,110.78 -125.19,29.91zm46.2 -99.91c-112.27,20.5 -85.13,189.45 33.68,169.35 44.5,-7.52 78.29,-48.03 69.08,-101.85 -7.45,-43.49 -50.13,-77.11 -102.76,-67.5z"/>
  <path class="fil1 str0" d="M5551.38 7205.15l0 -76.62c38.1,0.04 86.26,-6.03 85.88,38.87 -0.38,44.43 -47.18,37.73 -85.88,37.75zm-23.77 69.69l23.82 0.42c-0.05,-14.57 -2.45,-37.24 1.66,-50.04 27.23,0.03 58.39,3.02 80.47,-9.56 40.02,-22.79 40.37,-91.82 -19.71,-105.14 -13.03,-2.88 -73.33,-3.7 -86.25,-0.9l0.01 165.22z"/>
  <path class="fil1 str0" d="M4247.23 7258.44l0.27 -66.62 -22.6 -0.73 -0.17 56.87c-24.45,10.14 -48.2,17.01 -74.11,0.54 -17.53,-11.14 -32.88,-32.71 -29.62,-64.54 5.87,-57.21 72.99,-74.54 113.06,-38.88 8.34,-7.05 10.44,-5.17 14.4,-16.2 -69.51,-51.58 -149.21,-10.43 -151.59,59.7 -3.14,92.3 105.65,109.11 150.36,69.86z"/>
  <path class="fil1" d="M4866.09 5547.19c-2.67,18.47 -5.15,19.33 -13.09,17.18 -0.18,-0.05 -0.92,-0.26 -1.06,-0.65l0 9.45c-5.12,1.69 -8.11,-2.2 -9.42,-2.84 -1.59,10.76 -3.69,11.52 -11.8,14.63 0,22.83 -2.26,19.2 5.43,22.18l-4.72 6.54c-0.28,0.48 -0.59,1.07 -0.87,1.57l-7.67 11.73c-0.36,0.35 -0.95,0.73 -1.31,1.07 -10.69,10.15 -4.89,7.39 -6.28,11.85 -2.58,8.29 1.33,-0.24 -8.15,4.72 1.31,4.84 1.84,4.96 2.35,11.09 -8.54,-9.03 -2.85,-0.21 -21.99,25.13 -2.51,3.32 -1.93,1.36 -3.95,5.53 0.6,-0.23 1.46,-1.48 1.69,-0.93 0.9,2.19 0.78,-3.68 5.86,-1.43 -1.65,4.99 -1,5.59 -5.5,7.17 -8.73,3.07 3.14,-7.81 -5.74,1.25 -1.49,1.52 -6.65,11.9 -8.6,8.6 -0.01,-0.02 -0.03,-0.46 0.14,-0.51 -8.1,26.1 -12.84,16.56 -13.8,30.65 -11.61,-9.13 -0.43,-6.15 -9.42,-9.79 -1.62,10.24 -3.05,11.16 -11.81,14.52l-1.64 31.87c15.86,-3.38 44.1,-4.66 55.32,-13.89 11.42,0.83 77.96,-15.05 84.22,-21.41 13.2,0.18 58.01,-13.83 69.6,-19.27 -3.04,-4.8 -4.93,-6.89 -7.94,-11.23 8.06,-1.04 6.31,0.01 14.42,-0.52 0.41,-14.6 35.34,-62.78 46.06,-82.58l33.62 -53.71c5.01,-9.17 6.15,-8.1 11.33,-14.78 5,-6.45 5.88,-13.27 14.46,-25.54 0.29,-0.42 0.7,-0.97 1,-1.39l17.73 -29.35c3.27,-4.79 2.65,0.09 2.22,-6.4l-65.05 21.33 -101.43 27.44 -44.21 10.72z"/>
  <path class="fil1 str0" d="M5170.03 7198.09c0,48.41 19.83,79.61 68.67,80.19 87.39,1.02 71.23,-87.5 71.23,-169.83l-23.05 0.75c0.03,31.77 0.96,64.69 -0.01,96.01 -0.98,31.38 -13.38,52.5 -45.76,52.92 -33.08,0.44 -45.9,-18.61 -47.18,-50.51 -1.29,-32.17 -0.11,-66.6 -0.15,-99.02l-23.73 -0.15 -0.02 89.64z"/>
  <polygon class="fil1 str0" points="6241.61,6987.73 6250.46,6988.47 6252.83,6988.36 6262,6988.11 6261.98,6572.49 6241.6,6572.4 "/>
 </g>
</svg>
