<?xml version="1.0" encoding="UTF-8"?>
<!DOCTYPE svg PUBLIC "-//W3C//DTD SVG 1.1//EN" "http://www.w3.org/Graphics/SVG/1.1/DTD/svg11.dtd">
<!-- Creator: CorelDRAW 2021 (64-Bit) -->
<svg xmlns="http://www.w3.org/2000/svg" xml:space="preserve" width="100mm" height="100mm" version="1.1" style="shape-rendering:geometricPrecision; text-rendering:geometricPrecision; image-rendering:optimizeQuality; fill-rule:evenodd; clip-rule:evenodd"
viewBox="0 0 10000 10000"
 xmlns:xlink="http://www.w3.org/1999/xlink"
 xmlns:xodm="http://www.corel.com/coreldraw/odm/2003">
 <defs>
  <style type="text/css">
   <![CDATA[
    .fil0 {fill:#292785}
   ]]>
  </style>
 </defs>
 <g id="Слой_x0020_1">
  <metadata id="CorelCorpID_0Corel-Layer"/>
  <path class="fil0" d="M4121.31 7669.05c24.56,0 40.5,-6.35 61.27,-6.81l-0.11 258.84c0.03,21.05 3.61,26.38 3.63,47.43 0.03,18.97 2.77,135.04 -2.23,147.78 -9.39,23.93 -40.45,20.1 -59.16,15.74 0,-77.17 0,-154.33 0,-231.49 0,-81.32 -3.4,-152.21 -3.4,-231.49zm1688.54 -2406.81c-0.66,0 -2.59,0.1 -2.95,-0.12 0.46,0.09 2.29,0.11 2.95,0.12zm-177.66 -46.15c0,0 -44.77,109.64 45.92,127.12 0,0 70.98,14.33 121.08,-58.54 -85.94,137.99 -234.93,77.7 -167,-68.58zm83.29 200.42l1.08 -0.22 0 -19.81c0.88,0.74 15.18,16.01 15.46,16.45l0.94 -0.21 0 -21.88 -1.07 0.23 -0.01 19.83c-0.66,-0.52 -1.25,-1.28 -1.88,-1.92 -4.2,-4.25 -8.48,-9.22 -12.71,-13.53 -0.25,-0.25 -0.29,-0.31 -0.48,-0.53 -0.51,-0.57 -0.54,-0.44 -1.33,-0.24l0 21.83zm40.91 2.12c0,2.54 1.04,3.96 3.61,3.42 4.59,-0.95 3.74,-5.41 3.74,-9.74l-1.21 0.3c0,1.67 0.05,3.39 0,5.05 -0.05,1.66 -0.7,2.91 -2.41,3.31 -1.73,0.4 -2.41,-0.45 -2.47,-2.12 -0.07,-1.67 -0.01,-3.5 -0.01,-5.2l-1.25 0.26 0 4.72zm-48.51 13.77l0.01 -3.51 -1.18 0.22 -0.01 3c-1.29,0.81 -2.54,1.44 -3.9,0.87 -0.92,-0.38 -1.73,-1.34 -1.56,-3.05 0.31,-3.07 3.84,-4.76 5.95,-3.34 0.43,-0.47 0.54,-0.39 0.75,-1.02 -3.65,-1.91 -7.84,1.17 -7.96,4.88 -0.17,4.89 5.55,4.52 7.9,1.95zm68.56 -17.78l0 -4.03c2,-0.43 4.53,-1.3 4.51,1.06 -0.02,2.34 -2.48,2.53 -4.51,2.97zm-1.25 3.94l1.25 -0.25c0,-0.77 -0.13,-1.93 0.08,-2.66 1.44,-0.31 3.08,-0.51 4.24,-1.42 2.1,-1.66 2.12,-5.29 -1.04,-5.3 -0.69,0 -3.85,0.65 -4.53,0.94l0 8.69zm-37.44 4.64c-0.99,-4.49 5.73,-7.18 6.58,-3.01 0.93,4.52 -5.68,7.06 -6.58,3.01zm2.43 -5.79c-5.9,2.37 -4.47,10.94 1.77,8.52 2.34,-0.91 4.11,-3.43 3.63,-6.15 -0.39,-2.2 -2.64,-3.48 -5.4,-2.37zm-19.78 5.42l1.79 -0.39c1.6,-0.35 2.81,-0.14 2.72,1.57 -0.08,1.57 -1.29,2.15 -2.85,2.49l-1.66 0.36 0 -4.03zm-1.25 8.03l1.25 -0.29c0,-0.79 -0.13,-1.95 0.09,-2.67l2.57 -0.57c0.46,0.42 1.55,1.76 1.85,2.27l1.37 -0.31c-0.43,-0.73 -1.7,-1.92 -1.98,-2.53 2.73,-1.6 2.87,-6.46 -1.87,-5.43l-3.28 0.72 0 8.81zm91.63 -35.17l0.47 -0.07 0.12 -0.03 0.49 -0.12 0 -21.85 -1.08 0.24 0 21.83zm30 -10.16c-0.16,0.37 -0.3,0.51 -0.44,0.91 3.18,2.42 9.38,1.85 12.77,-0.96 1.62,-1.34 3.16,-3.59 2.53,-6.3 -0.52,-2.19 -2.37,-2.7 -4.64,-2.92 -2.75,-0.26 -7.45,0.27 -8.67,-2.09 -0.46,-0.91 -0.44,-2.32 0,-3.43 1.54,-3.87 7.28,-5.17 10.67,-4.23 0.53,0.14 1.01,0.42 1.49,0.47l0.36 -0.85c-1.07,-0.96 -4.19,-1.11 -6.33,-0.66 -7.82,1.62 -8.66,7.91 -6.74,10 1.21,1.32 3.16,1.5 5.58,1.64 3.09,0.18 7.45,-0.3 7.35,3.67 -0.12,5.05 -7.6,7 -11.38,5.95 -0.54,-0.15 -0.88,-0.29 -1.32,-0.5 -0.27,-0.13 -0.31,-0.12 -0.55,-0.32 -0.35,-0.28 -0.22,-0.29 -0.68,-0.38zm-213.86 46.72c-0.16,0.36 -0.3,0.5 -0.44,0.91 5.26,4.02 16.93,-0.28 15.29,-7.26 -0.51,-2.19 -2.37,-2.7 -4.63,-2.92 -2.01,-0.19 -4.67,-0.04 -6.47,-0.54 -4.31,-1.22 -3.22,-7.43 3.27,-9.13 4.06,-1.07 5.48,0.25 6.69,0.39l0.37 -0.85c-1.08,-0.96 -4.21,-1.11 -6.34,-0.67 -2.64,0.56 -5.06,1.89 -6.29,3.58 -1.35,1.84 -1.9,4.85 -0.45,6.43 1.21,1.32 3.16,1.5 5.58,1.64 3.11,0.18 7.44,-0.3 7.36,3.67 -0.11,5.05 -8.12,7.59 -12.71,5.44 -0.27,-0.12 -0.31,-0.11 -0.56,-0.31 -0.34,-0.29 -0.2,-0.29 -0.67,-0.38zm176.99 -45.8l-1 0.2 0 7.66c-1.76,1.6 -2.47,2.42 -5.11,3.3 -12.73,4.29 -15.88,-11.41 -6.03,-17.84 2.74,-1.79 6.49,-2.72 9.33,-1.92 1.36,0.38 1.7,0.88 2.21,1.04l0.63 -0.86c-0.84,-0.37 -1.03,-0.9 -2.77,-1.26 -5.61,-1.17 -12.89,2.43 -15.48,9.16 -0.95,2.5 -1.1,5.63 -0.28,7.93 2.59,7.25 12.24,6.85 17.88,1.36 0.64,-0.63 0.64,-0.74 0.63,-1.73l-0.01 -7.04zm-63.04 13.98c0.51,-0.4 11.36,-2.61 11.84,-2.71l0 -0.87c-0.47,0.1 -11.34,2.66 -11.82,2.46l0 -9.23 13.27 -2.9 0 -0.97 -14.35 3.13 0 21.85 14.78 -3.2 -0.01 -0.97 -13.7 2.99 -0.01 -9.58zm78.9 -17.24c0.07,-0.06 0.07,-0.08 0.27,-0.17l11.57 -2.54 0 -0.87c-0.47,0.11 -11.35,2.66 -11.82,2.46l-0.01 -9.22 13.28 -2.9 -0.01 -0.98 -14.35 3.14 0.01 21.85 14.78 -3.2 -0.02 -0.98 -13.69 3 -0.01 -9.59zm-169.92 37.12l0.63 -0.26c0.24,-0.06 0.5,-0.11 0.75,-0.16l10.46 -2.28 0 -0.87c-0.47,0.1 -11.35,2.65 -11.83,2.45l-0.01 -9.22 13.28 -2.9 0 -0.98 -14.35 3.14 0 21.85 14.79 -3.2 -0.02 -0.98 -13.7 3 0 -9.59zm45.06 -9.84c0.08,-0.07 0.07,-0.09 0.28,-0.17l11.56 -2.54 0.01 -0.87c-0.49,0.1 -11.35,2.65 -11.83,2.46l0 -9.23 13.27 -2.9 0 -0.98 -14.35 3.14 0 21.85 14.79 -3.2 -0.02 -0.97 -13.7 2.99 -0.01 -9.58zm-23.42 7.35l0 -12.58c2.1,-0.46 4.69,-1.22 7.09,-1.55l1.87 1.53 -1.87 -1.53c3.78,-0.51 7.07,0.07 7.07,4.73 0.01,7.66 -8.81,8.25 -14.16,9.4zm-1.08 8.53l1.08 -0.21 -0.01 -7.34c3.38,-0.73 5.65,-1.19 9.01,-2.11 0.22,0.49 0.86,1.13 1.24,1.58l2.7 3.15c0.33,0.37 1.13,1.26 1.3,1.61l1.27 -0.28c-0.52,-0.89 -5.17,-5.9 -5.51,-6.62 5.66,-2.37 6.35,-9.53 3.82,-12.02 -1.31,-1.29 -3.15,-1.89 -6,-1.5l-1.61 0.35 -136.82 -112.51 0 39.87c0,46.8 3.41,83.99 3.41,132.77 0,91.92 -0.06,183.83 0,275.75 0.04,80.71 -6.81,187.71 -6.81,268.93 12.73,-6.11 172.59,-6.17 197.45,-6.8 26.71,0.06 41.53,-3.41 64.68,-3.41 0,15.46 -3.96,28.26 -6.55,41.11 -15.7,77.73 -34.3,203.11 -34.3,278.89 40.73,0 135.91,20.43 177.01,20.43 0,-70.62 4.87,-147.09 16.11,-205.17 6.05,-31.22 16.31,-68.54 14.57,-97.81 -1.05,-17.78 -3.54,-28.44 -3.45,-51.06l-3.51 -490.33c0.05,-35.39 0.05,-69.95 0,-105.3l3.52 -762.67c83.51,-44.19 219.01,-118.07 295.51,-164.06 19.69,-11.84 39.56,-22.17 58.71,-33.22l464.69 -263.86c20.36,-12.6 11.79,-8.19 35.78,-5.65 96.54,10.22 81.48,-2.22 81.48,51.47l403.96 -212.21c53.88,-26.69 498.66,-263.15 518.59,-267.79 6.46,-8.81 10.29,-8.61 20.42,-13.63 8.63,-4.26 13.3,-7.75 23.84,-10.2l6.8 -3.41 6.82 -3.4 6.8 -3.4 6.81 -3.41c6.11,-8.34 4.64,-7.33 17.02,-10.21l0 -115.75c12.07,-2.81 31.12,-15.64 47.69,-23.81l68.01 -37.51c7.7,-4 14.16,-6.65 22.76,-11.29 9.27,-4.99 12.72,-7.99 21.5,-12.54l225.81 -121.42c9.32,-5.21 11.35,-7.33 21.57,-12.48l404.84 -218.13c30.1,-18.02 60.83,-32.46 90.1,-49.48l248.39 -132.88c8.59,-4.82 12.96,-6.42 15.87,-18.17 0.82,-3.32 3.47,-389.63 -0.31,-405.97 -0.14,-0.61 -0.82,-1.16 -0.94,-2.46 -0.11,-1.28 -0.57,-1.64 -1.03,-2.37l-6.81 3.41 -3.41 3.4 -6.8 3.4c-5.09,7.33 -0.5,4.49 -10.22,6.81l-6.81 3.41 -3.4 3.4 -6.81 3.41 -3.4 3.4 -6.81 3.4 -6.81 3.41 -3.41 3.4 -6.8 3.41 -3.41 3.4 -6.81 3.41c-5.09,7.32 -0.49,4.48 -10.21,6.8l-6.81 3.41 -3.4 3.4 -6.81 3.41c-5.09,7.32 -0.5,4.48 -10.21,6.8l-6.81 3.41 -3.4 3.41 -6.81 3.4c-5.1,7.32 -0.5,4.48 -10.22,6.81 -5.09,7.32 -0.5,4.48 -10.21,6.81l-6.81 3.4 -3.4 3.4 -6.81 3.41c-5.09,7.32 -0.5,4.48 -10.21,6.81 -5.09,7.32 -0.5,4.48 -10.22,6.81l-6.8 3.4c-5.09,7.32 -0.5,4.48 -10.22,6.81 -5.09,7.32 -0.49,4.48 -10.21,6.81l-6.81 3.4c-5.09,7.32 -0.5,4.48 -10.21,6.81 -5.09,7.33 -0.5,4.48 -10.22,6.81 -6.1,8.33 -4.63,7.32 -17.01,10.21 -5.1,7.33 -0.5,4.48 -10.22,6.81 -5.09,7.32 -0.5,4.48 -10.21,6.81l-6.81 3.4c-5.09,7.33 -0.5,4.48 -10.21,6.81 -5.09,7.33 -0.5,4.48 -10.21,6.81 -6.11,8.33 -4.64,7.32 -17.03,10.21 -5.09,7.33 -0.5,4.48 -10.21,6.81 -6.1,8.33 -4.63,7.33 -17.02,10.21 -5.09,7.33 -0.5,4.48 -10.21,6.81 -5.78,7.89 -15.97,14.4 -27.24,17.02 -5.09,7.33 -0.49,4.48 -10.21,6.81 -6.11,8.33 -4.63,7.33 -17.02,10.22 -5.09,7.32 -0.5,4.48 -10.21,6.8 -5.78,7.89 -15.97,14.4 -27.24,17.02 -5.78,7.89 -15.96,14.4 -27.23,17.03 -5.8,7.91 -18.79,15.14 -27.39,20.26 -61.77,36.79 -135.62,88 -196.2,123.8 -19.78,11.68 -37.1,23.34 -56.23,35.69l-480 302.98c-9.74,6.1 -17.55,12.05 -26.72,17.53 -86.91,51.9 -193.5,122.31 -281.74,177.84l-281.77 177.8c-19.79,12.12 -37.55,24.79 -56.07,35.85l-168.96 106.78c-20.24,11.95 -36.91,23.32 -56.21,35.7l-619.59 391.48c-88.23,56.96 -198.02,121.79 -281.92,177.66 -105.77,70.41 -228.4,143.3 -337.65,213.83l-394.19 249.21c-9.9,6.58 -18.49,11.04 -29.33,18.33 -10.54,7.08 -16.1,10.36 -27.14,17.12l-94.66 60.38 29 23.85c73.89,-49.8 146.47,-98.21 228.28,-149.69 27.18,-17.1 29.82,-24.51 50.2,-21.31 10.76,1.69 10.05,1.96 20.8,3.45 52.07,7.19 37.28,-5.12 37.28,54.65 18.01,-4.2 33.51,-16.71 49.87,-25.02l334.81 -172.43 6.81 -3.41 6.8 -3.4 7.33 -1.87 -7.33 1.87 -6.8 3.4 -6.81 3.41c-5.09,6.94 -126.43,74.54 -144.11,83.97 -17.91,9.56 -30.72,16.71 -47.98,26.92l-192.59 106.98c0,46.53 0,93.05 0,139.58 0,48.46 3.43,87.38 3.4,132.76l0 99.7 136.82 112.51 -7.29 1.59 0 21.8zm92.16 -41.01c5.37,-1.17 14.11,-4.41 14.11,3.19 0.01,3.26 -1.75,5.52 -4.39,6.88 -2.28,1.17 -7.14,1.96 -9.78,2.53l0.06 -12.6zm-1.13 21.13l1.08 -0.22 -0.01 -7.33c3.38,-0.74 5.65,-1.19 9,-2.12 0.23,0.49 0.87,1.14 1.24,1.58 0.48,0.56 0.87,1.04 1.36,1.58l2.65 3.19 1.27 -0.28c-0.5,-0.87 -5.18,-5.92 -5.51,-6.62 3.5,-1.47 6.04,-5.58 5.01,-9.76 -0.89,-3.57 -4.19,-4.45 -8.68,-3.49l-7.41 1.62 0 21.85zm-4.47 -128.21c-8.39,2.14 -17.15,5.58 -25.04,9.78 -2.31,1.22 -5.18,2.73 -7.25,4.12 -1.33,0.89 -1.44,2.67 -0.18,3.06 0.97,0.29 2.71,-1.04 3.65,-1.58 20.37,-11.89 37.87,-15.44 58.9,-15.01 5.28,0.1 10.42,0.23 15.6,0.46 13.13,0.59 18.35,1.52 32.81,-0.92 3.17,-0.54 6.54,-1.27 9.72,-2.05 1.55,-0.39 8.01,-2.07 9.07,-2.7 1.16,-0.7 1.41,-2.71 0.11,-3.04 -0.73,-0.18 -3.48,0.84 -4.48,1.13 -9.27,2.69 -18.28,4.33 -27.41,4.76 -5.4,0.26 -10.61,-0.01 -15.67,-0.38 -5.05,-0.37 -10.38,-0.57 -15.57,-0.61 -11.57,-0.09 -21.57,-0.25 -34.26,2.98zm49.93 -16.14c-0.91,0.23 -5.36,-0.12 -6.54,-0.19 -1.88,-0.13 -4.55,-0.39 -6.43,-0.28l0 -1.36c0.1,-0.46 5.42,-5.07 5.73,-5.35 1.02,-0.94 1.89,-1.71 2.86,-2.6 0.69,-0.65 2.37,-1.85 2.59,-2.83 0.35,-1.58 -1.18,-2.37 -2.48,-1.3 -0.93,0.76 -1.94,1.74 -2.87,2.59 -0.95,0.86 -5.19,4.82 -5.83,5.22l0.02 -6.04c0.79,-0.54 2.1,-1.82 2.91,-2.56l5.73 -5.2c1.07,-0.94 2.37,-1.94 2.54,-2.87 0.28,-1.59 -1.25,-2.23 -2.58,-1.13 -1.02,0.84 -1.9,1.75 -2.86,2.6l-4.27 3.86c-0.51,0.44 -0.93,0.9 -1.49,1.28l0 -6.25c0.08,-0.32 7.35,-6.77 8.61,-7.94 0.72,-0.66 2.39,-1.91 2.58,-2.83 0.31,-1.59 -1.18,-2.3 -2.53,-1.23 -1.56,1.24 -7.81,7.27 -8.66,7.77l0 -6.43c0.16,-0.42 0.3,-0.47 0.64,-0.78l5.08 -4.58c0.99,-0.92 1.88,-1.74 2.85,-2.6 0.69,-0.61 2.39,-1.88 2.6,-2.82 0.37,-1.55 -1.12,-2.4 -2.47,-1.31l-7.21 6.52c-0.49,0.44 -0.93,0.93 -1.49,1.29l0.01 -7.28c0.55,-0.34 4.9,-4.52 5.83,-5.37 4.79,-4.37 3.21,-3.83 6.52,-3.67 5.23,0.26 10.41,0.53 15.69,0.76l0 52.29 -1.92 0.18c0.12,-9.71 -0.1,-19.45 -0.1,-29.14 0,-4.88 -0.03,-9.75 -0.05,-14.62 -0.01,-1.2 -0.02,-2.39 -0.02,-3.59 0,-3.76 0.74,-3.06 -6.51,-3.24 -7.52,-0.19 -6.4,-1.14 -6.4,7.05 0,5.88 -0.06,43.43 -0.08,43.98zm-37.36 0.97c0.12,-5.35 -0.02,-10.88 -0.06,-16.21l-0.13 -32.3c0,-1.36 -0.02,-2.72 -0.02,-4.09 0,-1.85 -0.08,-1.97 -1.79,-1.93l-10.12 0.18c-1.08,0.02 -2.63,-0.2 -3.03,1.02 -0.19,0.58 -0.07,54.52 -0.09,56.78 -6.95,2.13 -9.19,3.18 -15.74,5.83l0.01 -2.34 10.15 -9.16c1.08,-1 2.82,-2.25 2.99,-3.27 0.17,-1.02 -0.35,-1.56 -0.98,-1.66 -0.94,-0.15 -1.59,0.52 -2.13,1l-10.04 9.06 0 -9.49c0.57,-0.43 1.14,-0.98 1.7,-1.5 0.63,-0.59 1.12,-1 1.69,-1.53 1.16,-1.07 2.24,-2.03 3.39,-3.06l5.06 -4.6c0.51,-0.47 1.16,-0.9 1.31,-1.73 0.18,-1.02 -0.33,-1.58 -0.97,-1.68 -0.97,-0.14 -1.59,0.5 -2.13,1.01l-6.7 6.06c-0.83,0.72 -2.61,2.46 -3.36,3l0.01 -9.53c1.05,-0.79 5.27,-4.77 6.75,-6.07 1.17,-1.03 2.22,-2.02 3.37,-3.07 1.18,-1.08 2.88,-2.29 3.04,-3.36 0.16,-1.08 -0.84,-2.71 -3.07,-0.63l-10.09 9.11 -0.01 -9.19c0.05,-0.24 10,-9.29 11.74,-10.78 0.57,-0.5 1.23,-1.01 1.4,-1.78 0.29,-1.29 -0.9,-2.77 -2.98,-0.82l-10.15 9.16 0 -8.42c0.07,-0.48 1.22,-1.37 1.6,-1.72l8.46 -8.02c2.08,-1.94 1.18,-1.75 4.16,-1.77 3.26,-0.02 6.44,-0.03 9.68,-0.02 3.07,0 6.51,0.12 9.58,-0.04l0 57.2 -2.5 0.36zm86.05 53.17c6.41,-8.76 11.01,-15.92 15.62,-26.23 5.15,-11.48 8.84,-24.11 10,-37.58 1.01,-11.88 -0.22,-24.12 -3.77,-34.49 -0.24,-0.69 -0.45,-1.31 -0.7,-1.99l-0.54 -1.45c-0.06,-0.11 -0.07,-0.14 -0.13,-0.24 -0.14,-0.22 -0.07,-0.12 -0.16,-0.22 0.23,2.96 0.78,5.92 1.01,9.01 1.46,19.97 -2.7,41.77 -12.59,61.21 -4.66,9.15 -11.73,20.61 -18.99,28.54 -0.25,0.28 -0.44,0.46 -0.67,0.73 -27.81,32.78 -68.05,46.21 -103.17,41.03 -0.3,-0.24 -0.9,-0.31 -1.33,-0.37l-4.16 -0.84c-0.16,-0.14 -0.2,-0.14 -0.54,-0.22 -0.61,-0.16 -1.51,-0.5 -2.08,-0.47 0.29,2.92 2.28,8.15 3.06,11.26l0.1 0.86c0.02,0.16 0.36,0 0.67,0.1 41.15,10.25 86.75,-12.06 118.37,-48.64zm-143.11 -29.36c0.06,-0.65 0.07,-0.37 0.07,-1.39l-0.27 -73.09c0,-1 0.11,-5.69 -0.11,-6.2 -0.38,-0.84 -3.43,-0.53 -4.63,-0.56 -3.37,-0.06 -6.7,-0.09 -10.08,-0.12 -1.28,-0.01 -4.28,-0.61 -4.71,1.04 -0.2,0.75 -0.06,63.96 -0.06,68.64 0,2.53 0.15,22.96 -0.03,24.95 -4.01,2.78 -14.66,7.2 -19.26,8.56l11.98 -10.95c0.79,-0.7 1.59,-1.44 2.35,-2.14 0.77,-0.71 1.83,-1.4 2.05,-2.36 0.29,-1.25 -0.64,-2.04 -1.8,-1.67 -1.05,0.34 -17.43,15.87 -19.13,17.04l0 -11.12c0.1,-0.4 4.87,-4.57 5.28,-4.95l14.62 -13.24c0.52,-0.45 0.87,-0.72 1.04,-1.42 0.37,-1.51 -0.98,-2.33 -2.31,-1.44 -0.39,0.26 -0.94,0.84 -1.33,1.19l-17.3 15.6 0 -11.26 10.83 -9.76c1.82,-1.67 3.66,-3.26 5.45,-4.92 0.91,-0.84 1.79,-1.62 2.71,-2.47 0.71,-0.66 2.11,-1.6 2.29,-2.66 0.24,-1.39 -1.1,-2.17 -2.4,-1.26l-10.8 9.78c-1.15,1.06 -7.35,6.75 -8.09,7.26l0.05 -11.42c0.94,-0.79 1.82,-1.61 2.75,-2.45l16.16 -14.65c0.73,-0.68 2.15,-1.66 2.29,-2.7 0.17,-1.38 -1.09,-2.11 -2.39,-1.22l-18.85 17 0 -11.25c0.08,-0.34 4.76,-4.46 5.37,-5 4.33,-3.86 9.25,-8.56 13.51,-12.25 0.75,-0.66 2.16,-1.72 2.36,-2.66 0.3,-1.45 -1.04,-2.22 -2.3,-1.4l-2.73 2.46c-1.48,1.29 -15.62,14.25 -16.21,14.61l0 -11.29c0.67,-0.43 2.04,-1.81 2.74,-2.44 2.59,-2.29 5.76,-5.31 8.16,-7.38l9.47 -8.59c0.47,-0.44 0.85,-0.78 0.95,-1.49 0.17,-1.34 -1.08,-2.1 -2.35,-1.23l-13.54 12.23c-0.93,0.86 -1.79,1.65 -2.71,2.48 -0.64,0.57 -2.1,2.01 -2.72,2.39l0 -10.82c0.07,-0.42 2.09,-2.14 2.43,-2.46 0.84,-0.8 1.6,-1.47 2.46,-2.29 4.71,-4.5 10.22,-9.36 14.74,-13.77 0.64,-0.62 0.61,-0.7 1.52,-0.66 3.4,0.14 24.46,0.56 25.33,0.74l0.01 82.66 -2.61 1.65 -0.25 0.12zm-46.97 24.23c-2.61,0.68 -5.17,1.31 -7.8,1.83 -1.1,0.21 -2.67,0.28 -3.39,1.09 -0.84,0.94 -0.61,2.33 0.27,2.62 1.36,0.44 12.87,-2.73 15.15,-3.43 14.78,-4.58 24.78,-9.85 37.46,-18.74 3.64,-2.54 6.98,-5.04 10.86,-7.5 17.52,-11.11 34.62,-18.36 54.09,-20.96 9.48,-1.26 18.14,-1.13 26.86,-0.74 12.83,0.58 21.15,0.4 34.63,-2.26 1.32,-0.26 2.65,-0.54 3.97,-0.84 1.33,-0.3 2.38,-1.06 2.11,-2.47 -0.24,-1.23 -1.31,-1.03 -2.73,-0.71 -4.2,0.94 -7.5,1.42 -11.67,2.08 -0.19,-2.81 -0.02,-6.34 -0.02,-9.27l0 -41.9c0,-1.36 0.28,-3.48 -0.64,-3.9 -0.73,-0.34 -15.15,-0.86 -18.3,-1.02 -1.15,-0.05 -2.82,-0.41 -3.83,0.48 -3.12,2.74 -7.72,7.18 -10.86,10.1 -1.39,1.3 -1.06,1.86 -1.06,3.89l0 42.07c-4.98,0.38 -9.51,0.01 -15.23,0.79 -0.2,-3.35 -0.02,-7.31 -0.02,-10.76l0 -43.39c0,-6.5 0.7,-6.07 -3.99,-6.04 -6,0.03 -11.96,0.03 -17.95,0.04 -4.44,0.01 -3.25,-0.42 -7.55,3.64l-6.3 5.98c-1.06,1.05 -2.07,1.99 -3.15,3 -1.57,1.45 -1.19,1.67 -1.19,4.5l0 54.42c-0.1,0.37 -3.45,1.87 -4.25,2.29 -1.45,0.76 -2.79,1.49 -4.24,2.26l-8.09 4.72c-0.17,-3.57 -0.01,-11.47 -0.01,-15.56l0 -62.98c0,-4.37 0.57,-5.36 -2,-5.41l-19.02 -0.52c-2.08,-0.05 -4.17,-0.13 -6.27,-0.17 -0.92,-0.01 -2.42,-0.19 -3.34,0.44l-11.52 10.71c-3.04,2.82 -6.14,5.66 -9.19,8.56 -2.3,2.2 -1.77,1.63 -1.77,6.42l0 78.73c0,2.5 0.15,5.43 -0.02,7.91zm1859.57 -598.58c-1.5,0.02 -5.88,0.23 -6.7,-0.27 1.05,0.22 5.21,0.26 6.7,0.27zm-402.57 -104.57c0,0 -101.45,248.45 104.06,288.06 0,0 160.82,32.47 274.34,-132.65 -194.73,312.66 -532.32,176.05 -378.4,-155.41zm188.74 454.13l2.43 -0.49 0.01 -44.89c1.99,1.68 34.4,36.28 35.03,37.27l2.13 -0.47 0 -49.58 -2.43 0.53 -0.01 44.94c-1.5,-1.19 -2.84,-2.91 -4.27,-4.36 -9.52,-9.64 -19.22,-20.9 -28.79,-30.65 -0.57,-0.58 -0.66,-0.71 -1.09,-1.2 -1.16,-1.31 -1.23,-1.01 -3.01,-0.55l0 49.45zm92.69 4.81c0,5.77 2.36,8.97 8.18,7.76 10.41,-2.15 8.48,-12.27 8.48,-22.08l-2.75 0.69c0.01,3.78 0.12,7.68 0,11.44 -0.11,3.76 -1.59,6.6 -5.45,7.49 -3.94,0.91 -5.46,-1.02 -5.61,-4.79 -0.16,-3.8 -0.02,-7.93 -0.02,-11.79l-2.83 0.6 0 10.68zm-109.92 31.2l0.03 -7.94 -2.69 0.5 -0.02 6.78c-2.92,1.84 -5.74,3.28 -8.83,1.99 -2.09,-0.87 -3.92,-3.04 -3.53,-6.92 0.7,-6.96 8.7,-10.78 13.47,-7.57 0.99,-1.06 1.24,-0.89 1.71,-2.3 -8.27,-4.34 -17.77,2.64 -18.05,11.05 -0.38,11.08 12.58,10.25 17.91,4.41zm155.34 -40.29l0 -9.12c4.54,-0.98 10.28,-2.96 10.23,2.4 -0.05,5.3 -5.62,5.72 -10.23,6.72zm-2.83 8.93l2.84 -0.57c-0.01,-1.74 -0.29,-4.37 0.19,-6.01 3.25,-0.7 6.96,-1.16 9.59,-3.23 4.77,-3.76 4.81,-11.99 -2.35,-12.01 -1.55,0 -8.73,1.47 -10.27,2.13l0 19.69zm-84.83 10.51c-2.25,-10.17 12.98,-16.27 14.91,-6.82 2.1,10.25 -12.87,16.01 -14.91,6.82zm5.5 -13.1c-13.37,5.36 -10.13,24.78 4.02,19.29 5.3,-2.05 9.32,-7.76 8.23,-13.93 -0.89,-4.98 -5.98,-7.88 -12.25,-5.36zm-44.81 12.28l4.05 -0.89c3.62,-0.79 6.37,-0.32 6.17,3.56 -0.18,3.56 -2.92,4.86 -6.45,5.63l-3.77 0.82 0 -9.12zm-2.84 18.19l2.84 -0.67c0,-1.78 -0.29,-4.41 0.2,-6.05l5.82 -1.28c1.06,0.95 3.53,3.99 4.2,5.13l3.1 -0.68c-0.98,-1.67 -3.85,-4.36 -4.49,-5.75 6.2,-3.61 6.52,-14.63 -4.22,-12.29l-7.45 1.62 0 19.97zm207.64 -79.7l1.06 -0.15 0.28 -0.07 1.09 -0.27 0 -49.51 -2.43 0.53 0 49.47zm67.97 -23.01c-0.36,0.82 -0.69,1.14 -1,2.06 7.21,5.48 21.26,4.18 28.94,-2.18 3.66,-3.03 7.16,-8.13 5.72,-14.27 -1.17,-4.96 -5.37,-6.13 -10.5,-6.62 -6.24,-0.59 -16.88,0.61 -19.64,-4.74 -1.06,-2.06 -1,-5.25 0,-7.78 3.49,-8.76 16.48,-11.71 24.17,-9.58 1.21,0.33 2.29,0.95 3.37,1.08l0.83 -1.93c-2.44,-2.19 -9.5,-2.51 -14.36,-1.5 -17.71,3.68 -19.61,17.92 -15.27,22.66 2.75,3 7.17,3.39 12.65,3.71 6.99,0.41 16.87,-0.67 16.66,8.33 -0.27,11.43 -17.22,15.85 -25.8,13.47 -1.22,-0.34 -1.98,-0.66 -2.99,-1.14 -0.6,-0.28 -0.7,-0.27 -1.25,-0.72 -0.79,-0.63 -0.48,-0.65 -1.53,-0.85zm-484.58 105.86c-0.36,0.82 -0.69,1.13 -1.01,2.05 11.93,9.11 38.37,-0.62 34.66,-16.44 -1.16,-4.96 -5.37,-6.13 -10.5,-6.62 -4.55,-0.43 -10.59,-0.09 -14.65,-1.23 -9.78,-2.75 -7.31,-16.82 7.4,-20.69 9.2,-2.42 12.41,0.57 15.16,0.9l0.83 -1.93c-2.43,-2.18 -9.53,-2.51 -14.36,-1.51 -5.99,1.25 -11.47,4.28 -14.26,8.09 -3.04,4.17 -4.29,10.99 -1.01,14.58 2.74,2.99 7.16,3.39 12.65,3.71 7.04,0.41 16.84,-0.67 16.66,8.33 -0.24,11.44 -18.39,17.2 -28.79,12.33 -0.61,-0.28 -0.7,-0.26 -1.26,-0.72 -0.78,-0.64 -0.47,-0.66 -1.52,-0.85zm401.03 -103.79l-2.25 0.45 -0.02 17.37c-3.99,3.63 -5.58,5.47 -11.57,7.48 -28.85,9.72 -35.98,-25.85 -13.66,-40.42 6.21,-4.06 14.71,-6.18 21.14,-4.37 3.09,0.87 3.86,2 5,2.36l1.43 -1.95c-1.9,-0.83 -2.32,-2.03 -6.28,-2.85 -12.7,-2.65 -29.19,5.5 -35.06,20.77 -2.17,5.66 -2.5,12.74 -0.64,17.95 5.86,16.44 27.74,15.52 40.5,3.08 1.45,-1.41 1.46,-1.66 1.43,-3.9l-0.02 -15.97zm-142.83 31.68c1.15,-0.9 25.74,-5.9 26.82,-6.13l0.01 -1.97c-1.07,0.23 -25.71,6.01 -26.8,5.56l0 -20.9 30.08 -6.57 0 -2.21 -32.52 7.1 0 49.51 33.5 -7.25 -0.04 -2.2 -31.03 6.78 -0.02 -21.72zm178.77 -39.06c0.17,-0.14 0.15,-0.19 0.62,-0.38l26.21 -5.75 0 -1.97c-1.06,0.24 -25.72,6.01 -26.79,5.57l-0.02 -20.9 30.09 -6.58 -0.01 -2.21 -32.52 7.11 0.01 49.51 33.5 -7.25 -0.04 -2.21 -31.03 6.78 -0.02 -21.72zm-385.03 84.12l1.43 -0.6c0.55,-0.13 1.15,-0.24 1.7,-0.35l23.7 -5.18 0 -1.97c-1.06,0.23 -25.71,6 -26.8,5.56l-0.01 -20.9 30.08 -6.57 0 -2.22 -32.52 7.11 0 49.51 33.51 -7.24 -0.04 -2.22 -31.04 6.79 -0.01 -21.72zm102.12 -22.31c0.18,-0.15 0.15,-0.2 0.62,-0.39l26.21 -5.74 0.01 -1.97c-1.1,0.23 -25.71,6 -26.8,5.56l-0.01 -20.9 30.08 -6.57 0 -2.22 -32.52 7.11 0 49.51 33.51 -7.25 -0.05 -2.21 -31.03 6.79 -0.02 -21.72zm-53.07 16.67l-0.01 -28.51c12.25,-2.67 32.09,-10.06 32.1,7.19 0.02,17.37 -19.97,18.7 -32.09,21.32zm-2.45 19.32l2.44 -0.48 -0.01 -16.62c7.65,-1.67 12.8,-2.7 20.4,-4.8 0.51,1.12 1.96,2.58 2.81,3.58l6.12 7.14c0.75,0.85 2.57,2.85 2.96,3.66l2.87 -0.64c-1.17,-2.01 -11.71,-13.37 -12.48,-14.99 12.82,-5.39 14.38,-21.6 8.65,-27.25 -2.97,-2.92 -7.14,-4.28 -13.59,-3.4l-20.17 4.39 0 49.41zm208.83 -92.92c12.15,-2.65 31.96,-10.01 31.97,7.22 0.01,7.39 -3.96,12.51 -9.96,15.59 -5.16,2.64 -16.18,4.43 -22.15,5.73l0.14 -28.54zm-2.56 47.86l2.43 -0.48 -0.01 -16.62c7.65,-1.67 12.8,-2.7 20.4,-4.8 0.51,1.11 1.97,2.59 2.81,3.58 1.07,1.27 1.97,2.35 3.06,3.58l6.02 7.22 2.87 -0.63c-1.13,-1.97 -11.73,-13.4 -12.48,-15 7.92,-3.32 13.69,-12.65 11.35,-22.12 -2.01,-8.09 -9.5,-10.08 -19.67,-7.91l-16.78 3.68 0 49.5zm-10.14 -290.5c-19.01,4.84 -38.85,12.65 -56.74,22.15 -5.22,2.77 -11.73,6.19 -16.43,9.35 -3,2.02 -3.26,6.05 -0.4,6.92 2.2,0.66 6.14,-2.34 8.26,-3.58 46.17,-26.93 85.83,-34.98 133.47,-34.01 11.97,0.24 23.62,0.54 35.34,1.06 29.77,1.32 41.59,3.43 74.35,-2.09 7.18,-1.22 14.83,-2.88 22.02,-4.66 3.51,-0.88 18.17,-4.68 20.55,-6.11 2.63,-1.58 3.21,-6.14 0.27,-6.88 -1.66,-0.42 -7.89,1.89 -10.16,2.55 -21.01,6.1 -41.42,9.82 -62.12,10.79 -12.22,0.58 -24.02,-0.03 -35.49,-0.86 -11.44,-0.84 -23.53,-1.3 -35.29,-1.39 -26.22,-0.2 -48.87,-0.57 -77.63,6.76zm113.13 -36.58c-2.06,0.52 -12.13,-0.26 -14.82,-0.43 -4.25,-0.28 -10.3,-0.87 -14.55,-0.62l0 -3.09c0.22,-1.03 12.28,-11.48 12.98,-12.13 2.31,-2.12 4.27,-3.86 6.47,-5.89 1.58,-1.47 5.38,-4.19 5.87,-6.4 0.8,-3.58 -2.68,-5.38 -5.62,-2.96 -2.1,1.73 -4.39,3.95 -6.5,5.88 -2.14,1.94 -11.75,10.92 -13.21,11.83l0.05 -13.68c1.78,-1.24 4.76,-4.14 6.59,-5.82l12.98 -11.77c2.44,-2.14 5.38,-4.39 5.75,-6.5 0.64,-3.61 -2.83,-5.06 -5.84,-2.56 -2.3,1.9 -4.3,3.96 -6.48,5.89l-9.68 8.74c-1.14,0.99 -2.09,2.05 -3.36,2.9l0 -14.16c0.18,-0.72 16.64,-15.35 19.5,-17.99 1.63,-1.5 5.42,-4.32 5.84,-6.42 0.72,-3.59 -2.67,-5.21 -5.73,-2.78 -3.54,2.81 -17.7,16.48 -19.61,17.6l0 -14.57c0.36,-0.94 0.66,-1.07 1.45,-1.76l11.51 -10.39c2.24,-2.08 4.26,-3.93 6.46,-5.89 1.55,-1.38 5.4,-4.25 5.89,-6.39 0.82,-3.51 -2.55,-5.43 -5.6,-2.95l-16.35 14.76c-1.1,1 -2.1,2.1 -3.36,2.92l0.02 -16.49c1.25,-0.78 11.1,-10.25 13.2,-12.16 10.86,-9.91 7.27,-8.68 14.77,-8.32 11.87,0.58 23.59,1.2 35.56,1.71l0 118.49 -4.34 0.42c0.27,-22.01 -0.23,-44.08 -0.24,-66.04 0,-11.05 -0.07,-22.09 -0.12,-33.13 -0.01,-2.71 -0.04,-5.42 -0.04,-8.14 0.01,-8.5 1.67,-6.93 -14.74,-7.34 -17.04,-0.43 -14.51,-2.57 -14.51,15.99 0,13.31 -0.14,98.41 -0.19,99.64zm-84.64 2.21c0.27,-12.12 -0.05,-24.65 -0.14,-36.73l-0.3 -73.19c0,-3.09 -0.03,-6.17 -0.03,-9.26 0,-4.2 -0.2,-4.47 -4.06,-4.39l-22.94 0.42c-2.45,0.04 -5.95,-0.45 -6.86,2.3 -0.44,1.33 -0.15,123.54 -0.21,128.66 -15.75,4.82 -20.83,7.21 -35.67,13.22l0.02 -5.3 23 -20.77c2.46,-2.27 6.39,-5.1 6.78,-7.4 0.4,-2.31 -0.78,-3.54 -2.22,-3.77 -2.13,-0.33 -3.59,1.18 -4.82,2.26l-22.76 20.55 0.01 -21.51c1.3,-0.97 2.58,-2.22 3.86,-3.41 1.41,-1.32 2.52,-2.25 3.83,-3.47 2.61,-2.41 5.06,-4.58 7.68,-6.93l11.45 -10.42c1.16,-1.07 2.63,-2.04 2.97,-3.92 0.41,-2.31 -0.75,-3.58 -2.2,-3.8 -2.2,-0.33 -3.59,1.13 -4.83,2.29l-15.17 13.72c-1.88,1.64 -5.92,5.59 -7.61,6.8l0.01 -21.58c2.39,-1.8 11.95,-10.81 15.3,-13.76 2.66,-2.33 5.03,-4.58 7.63,-6.95 2.68,-2.45 6.53,-5.21 6.89,-7.62 0.37,-2.46 -1.89,-6.14 -6.94,-1.43l-22.88 20.63 -0.01 -20.81c0.12,-0.55 22.65,-21.05 26.59,-24.44 1.3,-1.12 2.79,-2.28 3.18,-4.03 0.66,-2.92 -2.04,-6.26 -6.76,-1.86l-23 20.76 0 -19.08c0.16,-1.09 2.78,-3.09 3.63,-3.9l19.17 -18.17c4.71,-4.38 2.68,-3.96 9.42,-4.01 7.39,-0.05 14.6,-0.06 21.94,-0.04 6.97,0.01 14.76,0.28 21.71,-0.09l0 129.61 -5.66 0.82zm194.98 120.47c14.52,-19.84 24.94,-36.07 35.4,-59.42 11.66,-26.03 20.02,-54.64 22.64,-85.17 2.3,-26.91 -0.48,-54.65 -8.53,-78.14 -0.54,-1.57 -1.02,-2.97 -1.6,-4.52l-1.22 -3.27c-0.12,-0.25 -0.15,-0.32 -0.28,-0.55 -0.32,-0.51 -0.17,-0.28 -0.38,-0.5 0.53,6.71 1.78,13.41 2.3,20.41 3.3,45.25 -6.13,94.66 -28.53,138.69 -10.55,20.74 -26.58,46.72 -43.03,64.69 -0.56,0.62 -0.99,1.02 -1.52,1.64 -63,74.29 -154.2,104.72 -233.78,92.97 -0.68,-0.55 -2.02,-0.69 -3,-0.83l-9.43 -1.91c-0.37,-0.31 -0.46,-0.31 -1.22,-0.5 -1.39,-0.35 -3.43,-1.14 -4.72,-1.07 0.67,6.63 5.16,18.48 6.93,25.53l0.23 1.94c0.06,0.36 0.83,0 1.53,0.23 93.23,23.23 196.56,-27.32 268.21,-110.22zm-324.27 -66.52c0.12,-1.48 0.15,-0.85 0.16,-3.16l-0.61 -165.61c-0.02,-2.27 0.25,-12.89 -0.27,-14.04 -0.86,-1.9 -7.77,-1.21 -10.49,-1.27 -7.62,-0.15 -15.18,-0.21 -22.82,-0.28 -2.9,-0.03 -9.7,-1.37 -10.69,2.37 -0.44,1.69 -0.12,144.91 -0.12,155.51 0,5.74 0.32,52.04 -0.07,56.54 -9.09,6.3 -33.22,16.33 -43.65,19.4l27.15 -24.82c1.78,-1.58 3.61,-3.25 5.32,-4.83 1.75,-1.62 4.14,-3.18 4.64,-5.35 0.66,-2.84 -1.45,-4.62 -4.07,-3.78 -2.38,0.77 -39.5,35.96 -43.35,38.61l0 -25.2c0.22,-0.92 11.03,-10.36 11.96,-11.22l33.13 -30.01c1.18,-1.01 1.98,-1.62 2.37,-3.22 0.83,-3.41 -2.22,-5.26 -5.25,-3.25 -0.88,0.59 -2.12,1.89 -3.01,2.7l-39.2 35.35 0.01 -25.52 24.54 -22.11c4.11,-3.79 8.29,-7.4 12.34,-11.15 2.07,-1.92 4.06,-3.68 6.14,-5.6 1.62,-1.5 4.78,-3.62 5.2,-6.03 0.53,-3.14 -2.51,-4.91 -5.45,-2.86l-24.47 22.16c-2.6,2.4 -16.65,15.29 -18.32,16.46l0.11 -25.89c2.13,-1.79 4.12,-3.63 6.23,-5.55l36.61 -33.19c1.66,-1.54 4.88,-3.76 5.18,-6.11 0.39,-3.13 -2.47,-4.78 -5.4,-2.78l-42.72 38.52 0 -25.48c0.18,-0.77 10.79,-10.1 12.18,-11.34 9.81,-8.73 20.95,-19.39 30.6,-27.76 1.7,-1.48 4.9,-3.88 5.34,-6.01 0.68,-3.3 -2.35,-5.04 -5.2,-3.17l-6.19 5.56c-3.34,2.92 -35.4,32.3 -36.73,33.12l0.01 -25.6c1.51,-0.97 4.62,-4.1 6.21,-5.51 5.85,-5.2 13.04,-12.05 18.49,-16.74l21.46 -19.46c1.06,-0.99 1.92,-1.77 2.14,-3.38 0.39,-3.03 -2.44,-4.75 -5.32,-2.77l-30.69 27.71c-2.11,1.95 -4.05,3.72 -6.14,5.6 -1.45,1.31 -4.76,4.56 -6.16,5.42l0 -24.5c0.16,-0.97 4.74,-4.86 5.51,-5.59 1.91,-1.81 3.62,-3.33 5.58,-5.19 10.67,-10.2 23.15,-21.2 33.4,-31.2 1.44,-1.4 1.38,-1.57 3.43,-1.48 7.71,0.31 55.43,1.26 57.4,1.66l0.02 187.31 -5.92 3.74 -0.55 0.27zm-106.44 54.91c-5.91,1.54 -11.72,2.96 -17.66,4.13 -2.5,0.49 -6.05,0.63 -7.69,2.47 -1.9,2.13 -1.38,5.28 0.62,5.94 3.07,0.99 29.15,-6.18 34.32,-7.78 33.48,-10.37 56.15,-22.3 84.89,-42.45 8.23,-5.76 15.81,-11.43 24.6,-17 39.7,-25.17 78.45,-41.6 122.55,-47.48 21.5,-2.87 41.12,-2.58 60.88,-1.69 29.07,1.32 47.91,0.92 78.47,-5.11 2.99,-0.59 6,-1.22 8.99,-1.9 3.02,-0.68 5.4,-2.42 4.78,-5.61 -0.54,-2.78 -2.98,-2.33 -6.19,-1.61 -9.52,2.14 -17,3.22 -26.44,4.72 -0.44,-6.38 -0.05,-14.38 -0.05,-21.01l0 -94.95c0,-3.08 0.64,-7.87 -1.45,-8.83 -1.65,-0.76 -34.33,-1.94 -41.47,-2.3 -2.61,-0.13 -6.39,-0.94 -8.67,1.07 -7.07,6.22 -17.5,16.28 -24.6,22.9 -3.16,2.94 -2.4,4.21 -2.4,8.82l0 95.32c-11.3,0.86 -21.56,0.01 -34.52,1.79 -0.45,-7.59 -0.05,-16.57 -0.05,-24.39l0 -98.32c0,-14.71 1.6,-13.74 -9.04,-13.68 -13.6,0.08 -27.1,0.06 -40.66,0.09 -10.08,0.02 -7.38,-0.95 -17.11,8.26l-14.28 13.55c-2.41,2.37 -4.7,4.51 -7.14,6.78 -3.55,3.29 -2.69,3.79 -2.69,10.2l0 123.32c-0.24,0.84 -7.83,4.23 -9.64,5.19 -3.28,1.71 -6.33,3.37 -9.6,5.12l-18.33 10.68c-0.4,-8.07 -0.03,-25.99 -0.03,-35.25l0 -142.7c0,-9.91 1.29,-12.14 -4.53,-12.27l-43.09 -1.16c-4.73,-0.13 -9.46,-0.3 -14.21,-0.39 -2.1,-0.04 -5.48,-0.43 -7.57,0.98l-26.1 24.27c-6.89,6.4 -13.92,12.83 -20.82,19.41 -5.22,4.98 -4.02,3.69 -4.02,14.55l0 178.38c0,5.67 0.33,12.32 -0.05,17.94zm-6811.17 4091.66l-3.4 3.4 -3.41 3.4 -3.4 3.41 -3.41 3.41 -3.4 3.4c-11.5,3.07 -13.09,7.93 -21.27,16.18 -7.75,7.81 -13.81,12.65 -19.58,21.27l-3.4 3.4 -3.41 3.4 -3.41 3.41 -3.4 3.4 -3.4 3.41 -3.41 3.4 -3.4 3.41 -3.4 3.4c-11.25,3 -8.22,2.86 -16.23,11.01 -6.51,6.64 -9.49,8.88 -14.41,16.23l-3.41 3.4 -3.4 3.4 -3.41 3.41 -3.4 3.4 -3.4 3.41 -3.41 3.4 -3.4 3.4 -3.41 3.41 -3.4 3.4 -3.41 3.41 -3.4 3.4c-11.73,3.13 -17.93,11.62 -23.83,20.43l-3.41 3.4 -3.4 3.4 -3.4 3.41 -3.41 3.4 -3.4 3.41 -3.41 3.4 -3.4 3.41 -3.4 3.4 -3.41 3.4 -3.4 3.41 -3.41 3.4 -3.4 3.41c-11.13,2.97 -14.75,8.54 -20.43,17.02l-3.4 3.4 -3.4 3.41 -3.41 3.4 -3.4 3.41 -3.41 3.4 -3.4 3.4 -3.41 3.41 -3.4 3.4 -3.4 3.41 -3.41 3.4 -3.4 3.41 -3.41 3.4 -3.4 3.4 -3.4 3.41c-9.72,2.32 -5.13,-0.52 -10.22,6.81l-3.4 3.4 -3.41 3.4 -3.4 3.41 -3.41 3.4 -3.4 3.41 -3.4 3.4 -3.41 0 2.84 3.97 0.57 -3.97 3.4 -3.4 3.4 -3.41 3.41 -3.4 3.4 -3.41 3.41 -3.4 3.4 -3.4c9.72,-2.33 5.13,0.51 10.22,-6.81l3.4 -3.41 3.4 -3.4 3.41 -3.4 3.4 -3.41 3.41 -3.4 3.4 -3.41 3.4 -3.4 3.41 -3.41 3.4 -3.4 3.41 -3.4 3.4 -3.41 3.41 -3.4 3.4 -3.41 3.4 -3.4c11.14,-2.97 14.75,-8.55 20.43,-17.02l3.4 -3.41 3.41 -3.4 3.4 -3.41 3.41 -3.4 3.4 -3.4 3.4 -3.41 3.41 -3.4 3.4 -3.41 3.41 -3.4 3.4 -3.41 3.4 -3.4 3.41 -3.4c11.73,-3.14 17.93,-11.62 23.83,-20.43l3.4 -3.4 3.41 -3.41 3.4 -3.4 3.41 -3.41 3.4 -3.4 3.41 -3.4 3.4 -3.41 3.4 -3.4 3.41 -3.41 3.4 -3.4 3.41 -3.4c11.25,-3.01 8.22,-2.86 16.22,-11.02 6.51,-6.63 9.5,-8.88 14.42,-16.22l3.4 -3.4 3.4 -3.41 3.41 -3.4 3.4 -3.41 3.4 -3.4 3.41 -3.41 3.41 -3.4 3.4 -3.4c11.5,-3.08 13.09,-7.93 21.27,-16.18 7.75,-7.82 13.81,-12.65 19.58,-21.27l3.4 -3.4 3.41 -3.41 3.4 -3.41 3.41 -3.4 3.4 -3.4 3.4 -3.41c12.14,-3.24 16.46,-11.35 24.68,-19.58 8.64,-8.66 16.52,-15.02 22.99,-24.67l3.4 -3.41 3.4 -3.4 3.41 -3.4c13.18,-3.52 19.07,-13.98 28.08,-22.99 9.71,-9.72 19.09,-17.18 26.38,-28.08l3.41 -3.4 3.41 -3.41c11.15,-2.97 8.29,-2.87 16.22,-11.01 5.81,-5.98 9.34,-9.46 15.26,-15.38 10.77,-10.77 21.66,-19.33 29.79,-31.48 16.64,-4.44 35.97,-31.13 48.44,-43.47l95.39 -88.44c58.39,-58.73 131.75,-121.52 188.94,-178.73l69.78 -66.39c10.35,-10.44 14.32,-13.02 25.38,-22.27l141.43 -134.32c7.81,-7.8 14.06,-14.97 22.16,-22.1l262.16 -245.06c31.76,-31.43 61.71,-58.9 93.49,-90.35l425.75 -401.48c10.36,-8.66 13.9,-10.66 23.69,-20.56 8.73,-8.84 15.08,-15.05 23.81,-23.86l47.77 -44.14c19.72,-18.78 12.66,-28.08 12.66,-82.66 10.17,-2.72 82.48,-70.48 94.43,-82.6l96.21 -84.21c33.28,142.83 16.07,163.92 25.84,226.17l-5.48 144.83c-3.45,70.82 -13.55,93.5 -13.55,190.7 0,152.8 41.28,242.27 181.48,325.75 127.73,76.05 225.25,76.56 369.64,34.74 10.64,-3.08 28.64,-8.8 41.22,-9.85 0,135.17 6.81,268.79 6.81,405.11l3.4 0c0,-69.45 3.41,-132.13 3.41,-204.26 0,-38.74 3.49,-65.81 3.41,-102.12 -0.09,-35.18 -0.01,-70.36 -0.01,-105.53l91.92 -20.43c0,65.51 3.4,120.6 3.4,183.83 0,65.61 3.4,119.75 3.4,183.83l3.41 0c0,-124.34 6.81,-246.01 6.81,-371.07 58.55,-13.64 116.86,-26.88 176.38,-41.49 63.1,-15.48 102.72,-31.89 177.17,-44.1 51.82,-8.51 154.33,-21.04 194.7,7.13 17.11,11.94 39.3,40.97 37.43,71.53 -1.86,30.35 -33.27,47.08 -64.83,47.78 4.94,6.75 19.24,14.45 28.35,19.31 42.27,22.57 57.59,38.43 88.53,-11.36 29.51,-47.51 31.88,-89.08 39.21,-154.82 6.44,-57.71 -2.51,-132.81 5.87,-188.18 3.66,-24.14 1.59,-107.27 1.4,-141.59 -0.13,-21.87 3.02,-29.4 3.56,-47.5 3.76,-125.75 -0.11,-258.27 -0.11,-384.79 0,-129.36 0,-258.72 0,-388.09 0,-66.59 -3.41,-121.2 -3.41,-187.23 0,-64.68 0,-129.36 0,-194.04 0,-67.68 3.41,-125.5 3.41,-190.64l-0.03 -915.77c-0.11,-21.03 3.08,-32.09 3.43,-47.64l37.45 -112.34 0 1385.54c-0.05,34.81 3.4,56.61 3.4,91.91l6.81 -88.51c0,-30.44 -1.63,-65.48 -0.02,-95.33l0.02 -1327.65c14.58,0 13.86,1.77 24.32,2.91l57.37 3.91c10.04,0.5 20.04,-0.63 30.15,0.49l337.44 20c23.6,-0.15 36.04,2.35 54.53,3.34 20.14,1.09 40.09,-1.57 59.86,1.43l171.69 5.32c24.68,-0.14 34.01,3.63 57.75,3.53 43.29,-0.17 75.23,3.33 115.82,3.33l0 902.12c0,46.58 3.41,80.91 3.41,125.96l3.4 -1028.08 34.04 0c0,235.56 -3.03,490.4 -0.13,725.24 0.24,19.59 3.54,25.67 3.54,47.52l3.41 -769.36 47.65 0 3.41 1082.55c0,-89.67 3.4,-173.15 3.4,-265.53l0 -817.02c7.76,1.81 7.83,2.64 17.03,3.4 0,143.9 3.4,282.32 3.4,428.94 0,144.12 0,288.23 0,432.34l3.4 0c0,-146.86 3.41,-284.26 3.41,-428.93 0,-144.12 0,-288.23 0,-432.35l23.82 0c0,90.79 0,181.57 0,272.35 0,93.21 3.41,177.42 3.41,272.34 0,186.38 3.41,364.19 3.41,548.08l-78.3 -10.21c0,-294.31 -3.41,-579.1 -3.41,-871.49l-3.4 0c0,145.25 0,290.5 0,435.74 0,148.77 -3.41,286.69 -3.41,435.75 -15.59,-1.3 -34.45,-5.29 -51.15,-6.72 -77.63,-6.61 -66.81,-10.3 -163.31,-10.3 -78.3,0 -156.6,0 -234.9,0 9.55,-40.99 -10.07,-131.33 -23.83,-160 -103.7,0 -197.86,-3.41 -302.98,-3.41 0,37.3 6.1,17.46 17.35,74.58 5,25.41 9.89,54.71 9.89,85.42 -242.61,0 -184.57,-18.06 -183.63,68.16 0.36,33.61 -3.41,25.55 2.26,68.95l11.38 145.22c7,92.44 19.57,190.57 26.75,283.04 7.41,95.43 17.37,190.45 26.95,282.83 4.97,47.93 7.57,95.78 13.21,139.99 4.26,33.41 9.45,120.05 14.57,142.03 45.87,0 220.36,-30.64 262.12,-30.64 0,27.52 3.41,50.1 3.41,81.7l0 258.73 -74.9 -285.97c0,-1.89 0.07,-5.55 -0.22,-6.57 -1.78,-6.17 -0.94,-3.64 -3.18,-7.04 0,-1.9 0.07,-5.56 -0.23,-6.58 -1.77,-6.17 -0.94,-3.64 -3.17,-7.04l0 -13.62 -3.41 0c0,1.9 -0.06,5.56 0.23,6.59 1.73,6.02 1.11,3.77 3.18,7.03 0,1.9 -0.07,5.56 0.22,6.58 1.78,6.17 0.95,3.64 3.18,7.04 0,1.89 -0.07,5.56 0.23,6.58 1.78,6.17 0.94,3.64 3.17,7.03 0,16.36 28.27,131.65 32.7,151.14 41.83,184.22 45.6,143.84 45.6,322.06l-3.68 320.27c-0.13,22.66 0.53,23.75 20.21,27.7 12.54,2.52 22.6,2.51 35.55,-3.09 38.38,-16.6 26.22,-51.2 26.22,-113.39 0,-126.43 3.41,-241.59 3.41,-367.66 21.43,0 45.38,-4.75 67.47,-7.42l462.54 -61.71c85.41,-12.46 179,-23.02 264.2,-35.38 44.46,-6.46 89.28,-12.99 132.02,-17.77 44.97,-5.02 87,-12.53 132.21,-17.58l263.45 -36.12c208.69,-30.35 451.98,-60.2 654.98,-93.96l133.76 -19.42c-2.48,29.85 -15.65,78.07 -20.68,142.72 -3.89,49.88 -6.55,106.88 -6.55,160.25 0,197.39 12.57,385.96 -87.39,566.23 -8.79,15.83 -21.96,34.55 -32.69,49.02 -113.14,152.54 -298.71,181.08 -475.58,102.96 -8.64,-3.82 -19.5,-7.57 -28.45,-12.39 -154.21,-83.01 -253.35,-208.56 -348.83,-352.45 -11.3,-17.02 -21.86,-31.44 -32.4,-49.3l-32.96 -52.15c-16.07,1.34 -41.92,22.24 -78.98,10.9 -47.69,-14.6 -34.15,-77.64 47.64,-96.99 73.09,-17.29 159.15,162.38 207.4,226.62 8.04,10.7 13.27,19.32 20.67,30.4 28.65,42.82 61.87,83.66 95.02,122.86 5.26,6.22 4.82,7.06 10.41,13.42l51.85 46.86c10.36,8.02 17.46,13.34 29.23,21.84 35.25,25.48 83.24,53.43 128.08,65.96 39.52,11.05 86.26,21.71 126.79,15.82l42.74 -8.33c1.9,0 5.56,0.07 6.58,-0.23 6.17,-1.77 3.64,-0.94 7.04,-3.17l7.32 -1.87 -7.32 1.87c-1.89,0 -5.56,-0.07 -6.58,0.22 -6.17,1.78 -3.64,0.95 -7.04,3.18 -50.2,0 -67.87,12.26 -137.55,-5.42 -151.87,-38.54 -247.67,-151.94 -330.2,-275.77 -51.59,-77.4 -105.45,-184.34 -171.33,-247.39 -7.88,-7.54 -15.61,-10.95 -21.34,-19.51l763.89 -165.47c61.25,-14.1 183.87,-37.26 237.48,-51.87 15.75,-4.29 4.25,4.73 13.1,-7.34 -12.33,-5.09 -70.2,10.3 -85.37,13.36 -207.13,41.75 -414.27,75.57 -621.31,117.42l-265.53 51.06c-49.97,10.1 -125.05,19.54 -162.95,48.12 -70.81,53.39 -44.66,134.65 39.91,143.82 15.08,1.63 32.21,-4.91 46.73,-6.12 9.46,35.41 145.07,215.13 173.59,251.95 84.39,108.94 225.04,207.96 356.76,238.98 206.39,48.62 357.12,-21.67 465.1,-186.54 45.76,-69.86 70.67,-155.78 87.15,-253.28 12.12,-71.75 22.29,-242.76 11.1,-324.37 -5.97,-43.57 2.53,-81.45 2.59,-121.51 0.09,-66.32 7.06,-130.99 21.14,-196.74 32.24,-150.58 102.73,-294.53 156.27,-439.47l166.79 -428.96c7.83,-19.5 15.49,-40.52 23.83,-61.27 8.16,-20.31 15.55,-41.83 24.78,-63.73 17.47,-41.45 33.36,-78.37 46.98,-123.24 8.32,-27.43 13.68,-33.09 45.94,-39.16 50.91,-9.57 108.42,-9.22 160.96,-9.25 32.24,-0.02 51.74,3.58 81.68,3.43l680.88 -0.03c61.04,0 110.01,3.41 170.21,3.41 0,95.68 -122.46,48.48 -216.44,62.71 -43.51,6.59 -92.33,-0.5 -137.62,1.95l-136.27 3.3c-23,0.04 -37.84,3.59 -64.56,3.53 -23.83,-0.06 -47.67,0.07 -71.5,-0.02 -26.99,-0.1 -40.02,3.6 -64.6,3.5l-207.73 3.32c-48.27,0 -86.25,3.41 -136.18,3.41l0 3.41c331.72,0 652.64,-3.41 983.83,-3.41 -19.61,84.19 -73.05,214.45 -102.52,295.78l-85.67 213.9c-38.55,89.27 -143.35,326.87 -174.71,376.77 -15.42,24.53 -212.03,63.5 -260.74,79.69l-7.27 2.95c-0.5,0.22 -1.56,0.67 -2.28,1.12 21.09,0 49.91,-6.23 68.38,-9.91l193.75 -41.15c0,95.16 6.4,196.31 3.52,292.88 -0.49,16.3 -2.76,15.56 -3.53,30.51 -8.15,158.35 -27.11,341.19 -128.65,463.69 -11.26,13.56 -58.07,27.01 -77.54,34.8l-531.55 210.59c-21.46,8.59 -403.08,167.28 -426.5,169.23l0 6.81c39.24,-0.88 174.13,-71.26 217.87,-74.89 0,165.18 6.81,329.69 6.81,493.61 0,37.7 3.49,63.16 3.41,98.72 -0.06,24.31 -6.54,173.03 6.8,194.05 0,-269.93 10.21,-531.72 10.21,-800 13.81,-1.15 38.54,-13.26 53.16,-18.33 20.33,-7.05 35.36,-12.46 54.78,-20.12 26.96,-10.63 84.32,-33.88 109.94,-39.85l3.4 78.3c0,27.23 0.01,54.47 0,81.7 -0.02,31.01 3.61,50.25 3.45,78.25 -0.78,136.76 6.76,275.11 6.76,411.96l3.41 0c0,-27.24 0.1,-54.5 -0.05,-81.75 -0.16,-28.57 3.46,-49.72 3.45,-81.65 -0.01,-27.24 0.01,-54.47 0,-81.7 -0.01,-31.94 3.61,-53.09 3.45,-81.66 -0.65,-114.49 3.36,-218.47 3.36,-333.66 8.81,-4.23 25.54,-9.77 34.53,-13.13 13.15,-4.9 25.92,-9.29 37.47,-13.59 24.95,-9.3 46.87,-16.93 71.97,-26.76 48.76,-19.09 94.31,-35.19 143.43,-54.01l252.65 -94.59c35,-12.04 52.81,-47.75 72.08,-77.7 58.37,-90.69 99.04,-279.18 99.36,-394.26l6.31 -92.42c3.11,-27.76 0.5,-72.09 0.5,-101.63 9.03,4.34 3.64,3.11 17.02,3.41 0,42.92 3.4,82.51 3.4,129.36 0,44.25 0,88.51 0,132.77 27.42,2.28 41.31,15.34 65.68,-5.81 21.56,-18.7 17.58,-40.69 16.04,-69.1l-3.42 -81.69c0,-28.37 0,-56.74 0,-85.11l124.48 35.52c20.33,5.78 40.79,14.62 60.92,17.78 18.88,2.96 37.13,-16.54 53.99,-24.97 77.03,-38.49 162.12,-65.77 254.23,-65.77l3.4 108.93c0,38.04 -1.24,78.09 -0.11,115.86 0.55,18.52 3.65,28.15 3.54,50.93l-0.03 173.64c12.71,-9.31 6.83,-31.73 6.81,-51.07 -0.04,-55.42 -1.09,-118.21 3.23,-170.39 4.58,-55.34 0.33,-117.34 0.1,-173.51 -0.1,-23.14 3.48,-31.07 3.48,-54.39l57.87 0c0,128.54 6.81,254.89 6.81,384.68l3.4 0c0,-46.01 3.41,-79.65 3.41,-125.96 98.13,51.92 203.66,96.72 302.98,146.38 34.13,17.07 68.26,32.43 103.26,49.93 34.4,17.21 67.69,32.14 101,48.8l305.22 147.54c17.88,9.01 33.12,14.8 51.09,23.8 17.94,8.99 31.99,16.05 49.88,25.01 17.92,8.96 33.13,14.79 51.11,23.79l201.98 97.59c56.88,28.44 208.35,104.34 254.49,123.38 37.71,15.57 182.74,94.8 206.22,96.76l6.81 3.4 6.81 3.41 6.81 3.4 6.81 3.4 6.81 3.41 6.8 3.4 6.81 3.41 6.81 3.4 6.81 3.4 6.81 3.41 6.81 3.41 6.8 3.4 0 3.4 3.41 -2.43 0 -0.49 -3.41 -0.48 -6.8 -3.4 -6.81 -3.41 -6.81 -3.41 -6.81 -3.4 -6.81 -3.4 -6.81 -3.41 -6.8 -3.4 -6.81 -3.41 -6.81 -3.4 -6.81 -3.4 -6.81 -3.41 -6.81 -3.4 -23.82 -13.63c-8.49,-4.19 -15.55,-7.76 -24.97,-12.47 -17.8,-8.9 -32.99,-16.7 -49.88,-25.02 -16.79,-8.27 -34.37,-15.4 -51.11,-23.77l-663.83 -326.82c-33.48,-16.73 -65.42,-32.71 -99.86,-49.92l-306.43 -149.75c-67.31,-32.31 -133.42,-72.37 -202.6,-100.38 -48.13,-19.48 -155.17,-75.42 -204.73,-101.64 0,-81.62 3.41,-154.71 3.41,-238.3 45.91,0 90.81,3.14 132.94,6.63 44.36,3.67 236.51,3.51 271,-7.8 75.56,-24.78 109,-80.44 127.17,-155.38 10.87,-44.87 9.89,-77.37 10.21,-132.86 0.24,-42.56 -8.07,-86.76 -15.22,-124.37 -12.12,-63.71 34.86,-295.65 51.26,-367.16 9.04,-39.39 17.54,-73.6 27.23,-112.35 10.06,-40.26 20.14,-73.69 29.98,-112.99 9.65,-38.62 20.48,-70.56 31.18,-108.39 20.79,-73.47 58.03,-198.84 85.59,-268.46 6.56,-16.58 14.01,-36.26 18.02,-53.47 -19.32,0 -38.64,0 -57.95,-0.08 -23.74,-0.1 -33.07,3.67 -57.75,3.53 -20.45,-0.12 -40.9,0.04 -61.35,-0.07 -24.93,-0.13 -35.48,3.51 -57.73,3.54l-595.94 13.43c-23.74,-0.1 -33.07,3.67 -57.75,3.53 -20.44,-0.12 -40.88,-0.05 -61.32,-0.05 -3.2,13.73 -47.45,99.88 -73.46,219.31 -14.4,66.1 -38.88,185.49 -38.88,253.88l-3.4 0c0,-32.63 -4.5,-145.72 1.42,-172.2 11.1,-49.67 -1.62,-48.73 -1.44,-96.73 0.38,-95.29 0.02,-190.66 0.02,-285.96 52.11,0 91.99,-3.59 142.98,-3.4l500.42 -17.03c27.36,0.06 49.45,-0.37 71.99,-2.91 21.14,-2.37 52.27,-0.35 74.51,-0.37l108.95 -3.39c17.56,-0.22 18.75,-2.74 33.9,-3.56 24.22,-1.31 50.69,1.34 74.92,0.03l142.96 -6.82c0,695.59 6.81,1397.14 6.81,2093.62l3.4 0c0,-325.05 5.23,-651.41 3.36,-977.07 -0.14,-25.96 3.62,-37.83 3.47,-64.61 -1.8,-350.46 -0.02,-701.43 -0.02,-1051.94 53.18,0 93.98,-3.41 146.38,-3.41l3.41 582.14c0,68.59 3.41,128.42 3.41,194.04l3.4 0c0,-260.32 3.4,-513.7 3.4,-776.18l78.3 0 3.41 493.62c0,19.99 -5.34,47.21 6.8,64.68l0 -279.15c-0.08,-34.08 3.42,-56.39 3.41,-91.91l3.4 -1113.19c0,-496.83 -6.81,-994.17 -6.81,-1491.06l-6.95 23.68c-3.26,78.01 0.15,156.99 0.15,235.04 0,87.58 -3.41,171.24 -3.41,262.13 0,178.15 0,356.31 0,534.46 0,180.22 -3.4,350.14 -3.4,531.07 0,88.66 3.4,170.84 3.4,262.13 0,89.64 0,179.29 0,268.93l-74.89 0c0,-369.93 0,-739.86 0,-1109.78 0,-94.91 -3.41,-178.42 -3.41,-272.35l-6.8 -834.04c0,47.86 -3.41,84.05 -3.41,132.77l0 347.23c0.04,27.56 -3.49,44.52 -3.52,67.97l0.11 1668.2c-49.5,1.11 -96.61,10.22 -146.38,10.22 0,-127.16 3.41,-248.15 3.41,-377.88 0,-130.01 -3.41,-249.13 -3.41,-377.87l0 -1143.83c0,-128.89 -3.4,-247.87 -3.4,-377.87 0,-65.68 4.12,-530.33 -0.5,-571.42 -2.93,-26.11 -8.93,-164.68 0.5,-184.33l6.81 -3.4 3.4 -3.4 6.81 -3.41 3.4 -3.41 6.81 -3.4 6.81 -3.4 3.4 -3.41 6.82 -3.4 3.4 -3.41 6.81 -3.4 3.4 0 -2.83 -3.97 -0.57 3.97 -6.81 3.4 -3.4 3.41 -6.82 3.4 -3.4 3.41 -6.81 3.4 -6.81 3.4 -3.4 3.41 -6.81 3.41 -3.4 3.4 -6.81 3.4c-6.36,-10.02 -3.41,-69.63 -3.41,-81.7l-3.4 0c0,25.95 5.94,69.03 -3.4,88.51l-6.81 3.41 -3.41 3.4 -6.8 3.4c-9.72,2.33 -5.13,-0.51 -10.22,6.81l-6.81 3.41 -3.4 3.4 -6.81 3.41 -3.4 3.4 -6.81 3.4 -6.81 3.41 -3.41 3.4 -6.8 3.41 -3.41 3.4 -6.81 3.41c-9.71,2.32 -5.12,-0.52 -10.21,6.8l-6.81 3.41 -3.4 3.4 -6.81 3.41c-9.71,2.32 -5.12,-0.52 -10.21,6.8l-6.81 3.41 -3.4 3.41 -6.81 3.4c-9.72,2.33 -5.13,-0.52 -10.22,6.81 -9.71,2.32 -5.12,-0.52 -10.21,6.81l-6.81 3.4 -3.4 3.4 -6.81 3.41c-9.71,2.32 -5.12,-0.52 -10.21,6.81 -9.72,2.32 -5.13,-0.52 -10.22,6.81l-6.8 3.4c-9.72,2.33 -5.13,-0.52 -10.22,6.81 -9.71,2.32 -5.12,-0.52 -10.21,6.81l-6.81 3.4c-9.71,2.33 -5.12,-0.52 -10.21,6.81 -9.72,2.32 -5.12,-0.52 -10.22,6.81 -12.38,2.88 -10.91,1.88 -17.01,10.21 -9.72,2.33 -5.13,-0.52 -10.22,6.81 -9.71,2.32 -5.12,-0.52 -10.21,6.81l-6.81 3.4c-9.71,2.33 -5.12,-0.52 -10.21,6.81 -9.71,2.32 -5.12,-0.52 -10.21,6.81 -12.39,2.88 -10.92,1.88 -17.03,10.21 -9.71,2.33 -5.12,-0.51 -10.21,6.81 -12.39,2.88 -10.92,1.88 -17.02,10.21 -9.71,2.33 -5.12,-0.51 -10.21,6.81 -11.27,2.63 -21.46,9.13 -27.24,17.02 -9.71,2.33 -5.12,-0.51 -10.21,6.81 -12.39,2.89 -10.91,1.88 -17.02,10.22 -9.72,2.32 -5.12,-0.52 -10.21,6.8 -11.27,2.63 -21.46,9.13 -27.24,17.02 -11.27,2.63 -21.45,9.13 -27.23,17.03 -13.31,3.1 -22.85,12.08 -35.13,19.33l-68.96 43.38c-12.54,7.68 -24.16,14.9 -35.49,22.39l-415.98 261.47c-23.67,14.9 -44.63,28.64 -68.86,43.47l-1314.92 826.36c-12.81,7.57 -20.72,12.83 -33.69,20.78l-936.2 588.9c-11.8,7.73 -21.52,13.66 -33.48,20.99 -13.58,8.31 -23.08,14.38 -35.85,22.02 -10.61,6.35 -22.25,13.64 -33.54,20.93l-416.13 261.98 -165.04 -135.72c131.57,-100.14 263.79,-204.6 394.73,-302.49 236.21,-176.6 473.83,-365.99 710.03,-542.73l658.97 -505.29c9.77,-7.29 15.94,-12.34 24.82,-19.44l126.89 -97.78c198.8,-148.75 407.1,-315.11 605.45,-466.89l201.95 -155.5c8.93,-7.29 16.19,-11.85 25.12,-19.14 51.31,-41.9 367.06,-277.4 378.93,-295.11 11.89,-3.17 7.64,-1.29 13.61,-10.21 10.93,-2.92 8.44,-3.78 17.08,-10.16 7.84,-5.8 8.01,-5.38 13.56,-13.67 11.9,-3.18 7.65,-1.3 13.62,-10.21 11.89,-3.18 7.64,-1.3 13.61,-10.22 -11.89,3.18 -7.64,1.3 -13.61,10.22 -11.9,3.17 -7.65,1.29 -13.62,10.21 -10.93,2.91 -8.44,3.77 -17.07,10.16 -7.84,5.8 -8.01,5.37 -13.57,13.67 -11.89,3.17 -7.64,1.29 -13.61,10.21 -14.13,3.77 -229.41,172.04 -252.89,189.67 -17.62,13.22 -33.78,24.52 -50.56,37.95 -105.26,84.19 -243.36,186.79 -351.63,267.95l-655.56 498.47c-17.08,12.8 -32.41,25.24 -50.08,38.43l-353.57 269.41c-132.78,99.21 -267.67,207.5 -400.73,307.36l-150.27 115.26c-18.2,13.64 -32.35,25.16 -50.1,38.41 -34.83,26.01 -67.25,52.25 -102.13,78.3 -232.74,173.8 -470.48,365.68 -703.22,539.33 -6.45,4.82 -12.41,9.39 -18.23,13.9l-59.87 -49.23c4.61,-3.54 10.01,-7.7 16.34,-12.82 10.78,-8.73 20.19,-17.39 31.21,-26.66 96.5,-81.1 215.85,-177.42 309.49,-259.01l1235.87 -1034.78c73.55,-65.49 172.34,-141.47 248.39,-207.78l63.06 -52.68c38.83,-36.1 105.66,-86.79 151.52,-127.62l898.73 -752.35c65.72,-58.52 174.32,-145.38 246.58,-206.18l372.59 -311.66c54.89,-44.44 134.96,-116.81 186.76,-157.07 20.73,-16.12 40.54,-34.96 61.27,-51.07 13.33,-10.36 53.11,-42.26 61.28,-54.47 11.13,-2.97 14.75,-8.54 20.42,-17.02 11.14,-2.97 14.75,-8.54 20.43,-17.02 11.13,-2.97 14.75,-8.54 20.43,-17.02 11.13,-2.97 14.74,-8.54 20.42,-17.02 11.13,-2.98 14.75,-8.54 20.43,-17.02 11.13,-2.98 14.75,-8.55 20.42,-17.02 11.14,-2.98 14.75,-8.55 20.43,-17.02l3.4 -3.41c11.19,-2.99 11.21,-4.94 17.02,-13.62l3.41 -3.4c11.18,-2.99 11.21,-4.94 17.02,-13.62l3.4 -3.4c11.19,-2.99 11.21,-4.94 17.02,-13.62l3.41 -3.4c8.32,-2.21 4.6,1.5 6.81,-6.81l-6.81 6.81 -3.41 3.4c-11.18,2.99 -11.21,4.94 -17.02,13.62l-3.4 3.4c-11.19,2.99 -11.21,4.94 -17.02,13.62l-3.41 3.4c-11.18,2.99 -11.21,4.94 -17.02,13.62l-3.4 3.41c-11.13,2.97 -14.75,8.54 -20.43,17.02 -11.13,2.97 -14.75,8.54 -20.42,17.02 -11.13,2.97 -14.75,8.54 -20.43,17.02 -11.13,2.97 -14.75,8.54 -20.42,17.02 -11.13,2.97 -14.75,8.54 -20.43,17.02 -11.13,2.97 -14.75,8.54 -20.43,17.02 -11.12,2.97 -14.74,8.54 -20.42,17.02 -10.55,2.82 -28.62,21.28 -38.5,29.59l-1024.68 854.47c-26.36,22.15 -49.84,41.2 -76.19,63.38 -13.38,11.25 -23.11,20.07 -37.05,31.03 -14,11 -25.67,22.32 -38.9,32.6 -12.79,9.94 -24.01,20.63 -36.97,31.11l-113.57 94.09c-12.92,11.26 -23.99,20.24 -37.17,30.91 -162.33,131.43 -331.03,280.28 -493.62,411.92l-75.86 63.71c-96.39,75.76 -206.86,174.82 -304.46,253.84 -13.18,10.68 -24.25,19.66 -37.16,30.92 -13.33,11.62 -25.78,20.55 -39.08,32.41 -63.82,56.83 -158.21,129.39 -226.45,188.87 -12.76,11.11 -23.99,19.87 -37.16,30.93l-114.84 96.22c-83.47,65.61 -183.58,156.86 -265.53,221.28l-189.67 157.56c-12.95,10.49 -24.17,21.18 -36.97,31.12l-114.89 96.17c-37.97,36.17 -175.43,144.55 -228.18,190.55 -25.49,22.23 -50.91,40.93 -76.41,63.16l-250.79 209.25 -168.73 -138.74c2.93,-3.35 6.4,-7.53 10.94,-12.7l350.6 -377.92c12.71,-12.55 17.62,-18.43 29.1,-32.17 9.43,-11.28 20.18,-19.94 30.56,-30.72 7.26,-7.55 7.43,-9.44 13.7,-16.94l161.4 -172.22c43.32,-51.82 147.41,-154.51 176.05,-191.6 9.3,-12.04 18.04,-18.97 28.42,-29.46l117.38 -127.73c5.76,-5.72 9.95,-9.41 15.36,-15.27l86.74 -93.68c6.4,-7.27 6.81,-9.7 13.6,-17.04l88.49 -95.34c31.05,-31.38 89.87,-92.17 117.86,-127.25l409.94 -441.13c7.26,-7.55 7.43,-9.44 13.7,-16.94 5.02,-6.01 9.56,-9.94 15.17,-15.47l144.63 -158.34c34.34,-37.12 71,-71.61 103.72,-110.75 41.23,-49.32 86.98,-94.47 129.54,-142.8l292.77 -316.59c11.88,-11.75 16.99,-20.67 28.88,-32.4l86.87 -93.56c41.06,-40.53 76.3,-87.05 117.43,-127.67l481.53 -522.72c10.78,-12.89 38.37,-37.02 41.86,-50.06l3.4 -3.41c8.14,-5.45 12.23,-10.52 19.58,-17.86 8.32,-8.31 14.78,-11.45 17.87,-22.99l3.4 -3.4 3.41 -3.41c8.8,-5.89 17.29,-12.1 20.42,-23.83 -8.81,5.9 -17.29,12.1 -20.42,23.83l-3.41 3.41 -3.4 3.4c-8.15,5.45 -12.23,10.52 -19.58,17.87 -8.33,8.31 -14.79,11.44 -17.87,22.98l-3.4 3.41c-19.49,13.04 -163.54,175.86 -194.87,206.83 -8.32,8.23 -16.25,15.22 -23.83,23.83l-414.5 446.78c-7.88,10.34 -15.01,16.77 -24.68,26.38l-98.77 105.49c-10.39,10.34 -13.69,17.22 -23.71,27.35l-47.7 51.03c-8.66,8.56 -17.72,16.46 -25.41,25.65l-804.91 866.57c-15.81,19.82 -32.99,33.01 -47.16,51.57l-290.79 315.16c-8.31,10.77 -15.6,16.82 -24.98,26.09l-73.15 80.04c-18.48,18.31 -31.05,34.61 -49.38,52.75l-314.85 342.18c-8.68,9.38 -16.57,16.26 -25.64,25.42 -10.02,10.13 -13.31,17.01 -23.71,27.35l-610.26 656.12 3.41 -142.98 3.4 -3.4c8.91,-5.98 7.03,-1.73 10.21,-13.62l3.41 -3.4 3.4 -3.41c8.68,-5.81 10.63,-5.83 13.61,-17.02l3.41 -3.4c8.68,-5.82 10.63,-5.84 13.62,-17.03l3.4 -3.4 3.41 -3.4c8.67,-5.81 10.63,-5.84 13.61,-17.02l3.41 -3.41c8.48,-5.68 14.04,-9.29 17.02,-20.42 8.48,-5.68 14.05,-9.3 17.02,-20.43 8.81,-5.9 17.29,-12.1 20.43,-23.83 17.94,-9.5 145.26,-169.68 167.66,-193.19l204.85 -241.1c12.73,-16.27 24.77,-27.99 37.43,-44.27 12.07,-15.52 25.86,-28.22 37.98,-43.73l1025.64 -1207.55c59.57,-73.77 150.27,-170.76 204.73,-241.23 45.51,-58.9 133.36,-153.76 185.28,-219.82l295.77 -354.44c25.6,-30.41 48.64,-59.1 74.61,-88.8 6.41,-7.34 11.82,-14.53 18.18,-22.67l92.32 -111.93c7.21,-8.95 11.84,-14.06 18.59,-22.27 6.12,-7.45 14.08,-15.13 16.53,-24.32l3.4 -3.4c8.68,-5.81 10.63,-5.84 13.62,-17.02l3.4 -3.41 3.41 -3.4 3.4 -3.4 3.92 -6.64 -3.92 6.64 -3.4 3.4 -3.41 3.4 -3.4 3.41c-8.68,5.81 -10.63,5.83 -13.62,17.02l-3.4 3.4c-17.66,11.83 -128.3,148.47 -154.05,176.17l-71.13 82.06c-17.98,22.31 -35.75,42.64 -54.73,64.42l-350.93 411.62c-6.15,7.32 -7.65,8.51 -14,16.64 -5.92,7.57 -8.76,9.22 -14.57,16.07 -5.89,6.95 -7.39,9.72 -13.76,16.88l-222.15 264.65 -314.16 -53.5c-522.44,-87.13 -1047.24,-181.86 -1569.36,-268.94 -106.03,-17.68 -207.99,-34.84 -313.66,-53.99 -26.82,-4.86 -296.11,-52.5 -318.56,-52.5 -3.57,-2.27 -0.09,-2.05 -7.04,-3.18 -3.54,-0.57 -9.62,-0.23 -13.39,-0.23 -3.57,-2.26 -0.09,-2.04 -7.04,-3.17 -3.54,-0.57 -9.61,-0.23 -13.38,-0.23 -3.6,-2.28 -0.08,-2.02 -7.06,-3.16 -2.89,-0.47 -6.98,-0.25 -9.97,-0.25 -3.56,-2.26 -0.08,-2.04 -7.04,-3.17 -3.54,-0.57 -9.61,-0.23 -13.38,-0.23l-13.62 -3.4c0,-29.03 3.14,-44.23 3.32,-71.59l4.93 -69.96c2.11,-13.99 1.51,-20.77 1.87,-35.57 0.85,-34.43 6.9,-68.88 6.9,-105.44l-44.26 585.53c-1.22,25.39 -6.73,58.5 -6.8,85.11 -0.07,23.18 -3.95,60.69 -6.31,82.2l-17.59 251.35c-0.62,26.08 -2.75,60.27 -5.81,82.7l-17.94 254.39c-5.39,111.57 -14.94,224.9 -23.66,333.8 -2.26,28.3 -0.76,56.27 -4.51,83.99 -3.49,25.78 -4.46,56.47 -5.89,86.03l-2.84 36.21 -471.03 -387.34c-20.16,-167.83 -31.28,-348.02 -52.81,-517.92 -6.76,-53.34 -9.52,-101.65 -15.16,-155.05l-32.86 -310.97c-3.03,-26.95 -5.76,-50.98 -7.54,-77.57l-8.16 -73.54c-0.19,-0.75 -0.74,-1.91 -0.91,-2.49 -0.18,-0.57 -0.56,-1.66 -1.02,-2.39l-1.88 -7.31 1.88 7.31c0,26.22 1.81,51.6 5.36,76.34 10.46,72.9 19.77,218.62 28.14,298.67l49.66 525.67c7.02,49.67 8.59,101.99 14.59,148.81l7.62 79.68 -52.77 -43.39c-3.11,-23.73 -6.12,-47.31 -8.97,-70.68l-183.98 -1375.17c-0.22,-0.86 -0.56,-1.89 -0.77,-2.64 -0.21,-0.73 -0.71,-1.93 -0.9,-2.51 -0.18,-0.56 -0.49,-1.7 -0.96,-2.43l0 -3.41 -3.97 2.84 3.97 0.57 91.72 749.12c8.58,60.54 16.9,124.13 23.74,183.93 19.05,166.7 45.58,341.03 65.9,508.68l-847.96 -697.29c-2.91,-5.8 -5.51,-10.3 -7.45,-12.53l-5.6 -18.22c-5.3,-8.33 -0.41,-0.79 -4.61,-5.61 -1.1,-13.31 -9.91,-32.67 -17.02,-40.85 -1.06,-12.73 -3.67,-16.31 -10.21,-23.83 -1.06,-12.73 -3.68,-16.31 -10.21,-23.83 -0.46,-5.5 0.92,-3.31 -1.27,-8.94 -4.34,-11.13 -2.6,-4.7 -5.54,-8.08l-3.41 -6.81c-0.45,-5.5 0.92,-3.31 -1.27,-8.94 -4.33,-11.13 -2.59,-4.69 -5.53,-8.08 -1.07,-12.73 -3.68,-16.31 -10.22,-23.83 -0.45,-5.5 0.92,-3.31 -1.27,-8.94 -4.33,-11.13 -2.59,-4.69 -5.54,-8.08l-3.4 -6.81c-0.46,-5.5 0.92,-3.31 -1.27,-8.94 -4.33,-11.13 -2.6,-4.7 -5.54,-8.08l-3.4 -6.81c0,-16.17 0.07,-6.46 -3.41,-10.22l-3.4 -6.8 -3.4 -6.81c0,-16.17 0.07,-6.46 -3.41,-10.21l-3.41 -6.81 -3.4 -6.81c0,-16.17 0.08,-6.46 -3.4,-10.21l-3.41 -6.81c0,-16.17 0.08,-6.46 -3.4,-10.21l-3.41 -6.81 -3.4 -6.81c0,-16.17 0.07,-6.46 -3.4,-10.21l-3.41 -6.81 -3.4 -6.81c0,-16.17 0.07,-6.46 -3.41,-10.22l-3.4 -6.8 -1.87 -7.32 1.87 7.32 3.4 6.8c0,16.18 -0.07,6.46 3.41,10.22l3.4 6.81 3.41 6.81c0,16.16 -0.08,6.45 3.4,10.21l3.4 6.81 3.41 6.81c0,16.16 -0.08,6.45 3.4,10.21l3.41 6.81c0,16.16 -0.08,6.45 3.4,10.21l3.4 6.81 3.41 6.81c0,16.17 -0.08,6.45 3.41,10.21l3.4 6.81 3.4 6.8c0,16.18 -0.07,6.46 3.41,10.22l3.4 6.81c0.46,5.5 -0.92,3.31 1.27,8.94 4.33,11.13 2.6,4.69 5.54,8.08l3.4 6.81c0.46,5.5 -0.92,3.31 1.27,8.94 4.34,11.13 2.6,4.69 5.54,8.08 0.66,7.86 0.9,8.95 3.15,13.88 0.32,0.7 0.83,1.55 1.19,2.21 0.36,0.65 0.89,1.54 1.26,2.14 5.31,8.32 0.42,0.78 4.62,5.6 0.45,5.5 -0.92,3.31 1.27,8.94 4.33,11.13 2.59,4.7 5.53,8.08l3.41 6.81c0.46,5.5 -0.92,3.31 1.27,8.94 4.33,11.13 2.59,4.69 5.54,8.08 0.65,7.87 0.89,8.96 3.14,13.88 0.32,0.7 0.83,1.55 1.19,2.21 0.36,0.65 0.89,1.54 1.27,2.13 5.31,8.33 0.42,0.79 4.61,5.61 0.65,7.87 0.9,8.95 3.14,13.87 0.32,0.71 0.83,1.56 1.19,2.22 0.36,0.65 0.9,1.54 1.27,2.14 5.31,8.32 0.42,0.78 4.61,5.6l12.45 35.21c5.5,8.81 -0.04,0.33 4.57,5.64 1.06,12.73 3.68,16.31 10.21,23.83 0.13,1.55 0.86,4.34 2.07,8.1l-310.3 -255.16 -233.04 -450.81c-9.74,-19.61 -19.16,-34.89 -29.51,-55.6 -19.74,-39.56 -37.84,-73.03 -57.81,-112.4 -67.2,-132.38 -153.34,-281.68 -219.04,-414.16 -5.49,-11.07 -9.97,-17.26 -15.93,-28.32l-29.53 -55.57c-5.26,-10.36 -8.08,-17.15 -13.55,-27.3l-119.13 -221.3c-5.93,-11.92 -10.49,-17.71 -15.97,-28.29l-44.25 -81.7c-5.53,-10.74 -7.64,-20.43 -16.98,-27.28l-3.41 -6.8 0 -3.41 -3.97 2.84 3.97 0.57 3.41 6.8c4.15,17.84 139.8,276.21 148.65,293.9 98.66,197.32 205.92,390.34 304.11,587.81l153.34 292.61c34.26,58.94 69.65,138.15 102.13,194.04l60.87 113.29 -1814.21 -1491.86 1814.21 1491.86 147.35 274.24c16.76,26.57 9.51,101.07 9.51,136.88l3.4 1930.21c-26.25,-17.58 -71.86,-71.41 -98.72,-91.92l-147.29 -138.67c-15.23,-15.31 -31.71,-34.14 -47.76,-47.55l-147.97 -137.99c-17,-15.72 -30.71,-31.55 -47.55,-47.77l-369.41 -345.48c-37.41,-32.95 -112.39,-110.84 -146.56,-139.4 -11.07,-9.25 -15.03,-11.83 -25.39,-22.28l-148.05 -137.9c-44.94,-39.58 -102.5,-103.32 -146.57,-139.38 -28.06,-22.97 -19.41,-17.58 -19.41,-75.91 0,-21.1 4.54,-346.21 -2.05,-365.61 -4.87,-14.32 -0.78,-3.14 -4.76,-8.86l0 428.93c-31.93,0 -53.09,3.62 -81.66,3.45 -28.37,-0.16 -56.77,-0.04 -85.15,-0.04 -8.93,-107.39 -3.4,-273.18 -3.4,-381.28l-3.41 0c0,100.42 -3.4,191.3 -3.4,289.36l0 585.54c0,99.9 -3.4,191.07 -3.4,292.76l0 2348.94c0,100.48 3.4,191.01 3.4,289.36l0 588.94c0,99.37 3.4,191.17 3.4,292.76l3.41 0c0,-584.62 6.81,-1175.79 6.81,-1760 52.37,0 100.64,3.4 156.59,3.4 0,332.49 0.09,664.97 0,997.45 -0.01,42.71 3.41,74.79 3.41,119.15l3.4 874.89c12.11,-8.87 6.81,-37.91 6.81,-54.46l-0.05 -374.52c-0.14,-25.37 3.65,-35.8 3.5,-61.18 -2.87,-500.4 -0.05,-1000.92 -0.05,-1501.33l163.59 10.04c51.86,4.29 119.07,-1.87 168.06,5.55 26.57,4.02 56.34,1.28 83.79,1.32 19.69,0.03 23.2,3.11 40.62,3.63l85.33 -0.23c19.69,0.03 23.2,3.12 40.63,3.64 29.19,0.87 59.54,-1.1 88.73,-0.23l81.59 3.52c32.85,0 55.88,3.62 85.06,3.45 61.03,-0.35 109.67,3.57 170.27,3.35 31.07,-0.12 49.47,3.45 81.69,3.41l85.09 3.43c27.2,1.46 57.64,-0.5 85.26,-0.16l84.97 3.54 0 200.85c-21.17,0 -38.46,0.23 -50.28,14.4 -47.02,56.39 7.45,77.76 27.87,96.53 30.82,28.35 15.61,226.78 15.61,280.56 0,174.75 0,349.51 0,524.26 0,86.82 1.99,175.9 0.28,262.41 -0.33,16.51 0.85,13.78 -7.66,22.98l-319.43 303.54c-32.66,24.92 -99.52,100.2 -134.74,127.4 -34.57,26.69 -97.66,99.79 -132.23,126.49 -34.93,26.96 -99.56,100.54 -134.73,127.39 -26.36,20.11 -174.41,171.07 -202.29,192.61 -25.43,19.63 -42.54,44.31 -66.65,62.71 -26.35,20.11 -174.4,171.07 -202.29,192.61 -25.53,19.71 -41.56,43.61 -66.14,63.21 -20,15.96 -192.53,180.36 -201.36,193.54 -11.15,2.98 -8.3,2.87 -16.22,11.02 -5.81,5.97 -9.35,9.45 -15.26,15.37 -10.78,10.78 -21.66,19.34 -29.79,31.48l-3.41 3.41 -3.41 3.4c-13.17,3.52 -19.06,13.98 -28.07,22.98 -9.72,9.72 -19.09,17.19 -26.39,28.09l-3.41 3.4 -3.4 3.4 -3.4 3.41c-12.13,3.24 -16.46,11.35 -24.68,19.58 -8.64,8.66 -16.52,15.02 -22.99,24.67l-3.4 3.41zm1634.04 -6825.54l1.88 7.33 -1.88 -7.33 -1.87 -7.31 1.87 7.31zm6.81 17.03l-1.87 -7.32 1.87 7.32 3.4 6.81 1.88 7.31 -1.88 -7.31 -3.4 -6.81zm10.22 23.83l-1.88 -7.32 1.88 7.32 3.4 6.81 1.87 7.31 -1.87 -7.31 -3.4 -6.81zm10.21 23.83l-1.87 -7.32 1.87 7.32 1.87 7.31 -1.87 -7.31zm6.81 17.02l-1.88 -7.32 1.88 7.32 3.4 6.81 1.87 7.32 -1.87 -7.32 -3.4 -6.81zm5811.06 1535.32l6.8 -3.41 6.82 -3.4 6.8 -3.4 6.81 -3.41c8.95,-2.09 10,-3.1 17.02,-6.81 0,419.86 0,839.72 0,1259.58 0,105.06 3.4,202.53 3.4,309.78l-3.4 942.98 -517.45 0 50.84 -212.07c6.88,-25.07 -8.79,-15.46 -27.44,-13.16 -31.93,3.93 -75.02,-1.27 -108.52,0.54 -16.91,0.91 -25.99,3.55 -47.62,3.44 -18.16,-0.1 -36.33,0.01 -54.49,-0.03 -79.47,-0.18 -174.16,7.13 -262.14,6.8 -21.73,-0.08 -35.02,3.06 -51.05,3.42 0,-74.3 3.41,-138.72 3.41,-214.47l3.4 -660.42c0,-295.04 0,-590.08 0,-885.11l116.83 -60.19c19.58,-10.96 38.63,-20.93 56.94,-31.58 9.74,-5.66 18.57,-9.07 29.36,-14.88l114.56 -62.47c76.93,-38.31 179.55,-96.92 258.74,-139.55l172.66 -92.88c26.69,-15.52 165.03,-83.97 173.46,-95.47 10.53,-2.46 15.21,-5.94 23.84,-10.21 10.14,-5.02 13.96,-4.81 20.42,-13.62zm-585.54 4268.93l7.32 -1.87 -7.32 1.87c-16.16,0 -6.45,-0.07 -10.21,3.41 -18.59,1.54 -101.26,33.2 -125.52,41.28l-369.53 130.9c-21.19,8.19 -40.51,14.33 -60.27,21.43l-244.26 89.36c-33.26,11.04 -163.61,62.06 -187.65,67.66l42.82 -93.35c48.25,-114.86 72.92,-206.92 72.92,-345.79l-3.4 0c0,99.07 -20,175.78 -45.5,250.67 -11.89,34.93 -48.9,126.95 -67.49,157.19 -7.15,11.64 -21.95,36.91 -23.18,51.71 18.25,0 43.93,-11.4 66,-19.11 21.89,-7.65 40.15,-15.41 62.05,-23.06l317.39 -114.94c20.34,-7.58 42.84,-16.45 64.78,-23.74l250.38 -93.45c43.76,-16.76 82.7,-30.38 126.46,-47.15 21.89,-8.39 39.62,-15.9 61.45,-23.65 11.45,-4.07 54.08,-18.6 62.55,-25.96 16.17,0 6.46,0.07 10.21,-3.41zm568.52 -605.95l-6.81 3.4c-16.17,0 -6.46,-0.07 -10.22,3.4l-3.4 0 2.84 3.98 0.56 -3.98c16.17,0 6.46,0.08 10.22,-3.4l6.81 -3.4c5.49,-0.46 3.31,0.92 8.94,-1.27 11.13,-4.34 4.69,-2.6 8.08,-5.54 19.71,-1.65 117.17,-44.53 248.25,-54.73 48.11,-3.74 92.7,-6.29 146.66,-6.57 27.8,-0.15 42.82,3.05 71.6,3.3 17.62,0.15 18.7,2.75 33.9,3.54 42.34,2.23 150.24,8.67 180.52,3.48 86.45,-14.83 140.1,-70.33 142.9,-163.48 0.68,-22.56 5.52,-43.53 3.22,-71.32 -1.65,-19.92 -6.13,-51.08 -6.74,-71.56 -10.09,-337.5 41.08,-617.01 160.56,-908.59l47.21 -105.99c-16.07,11.78 -89.1,188.92 -95.72,207.26 -57.42,159.31 -98.92,312.07 -118.14,487.82 -14.06,128.46 -10.67,169.37 -10.82,295.56 -0.14,115.02 41.96,297.37 -129.04,313.51 -21.25,2.01 -44.44,5.58 -70.38,1.65 -25.32,-3.83 -50.52,-0.03 -76.15,-2.15 -95.19,-7.88 -195.19,-8.52 -286.76,2.95 -48.25,6.05 -85.59,13.55 -128.03,25.16 -15.04,4.12 -91.25,27.11 -107.01,35.98 -4.4,2.47 -3.42,1.91 -6.03,4.18 -5.5,0.45 -3.32,-0.93 -8.95,1.27 -11.12,4.33 -4.69,2.59 -8.07,5.54zm-5838.3 -5303.83l1.87 7.32 -1.87 -7.32 -1.87 -7.32 1.87 7.32zm-10.21 -23.83l1.87 7.31 -1.87 -7.31 -1.87 -7.32 1.87 7.32zm1412.76 4030.63l-3.4 -6.8 -3.41 -6.81c-7.4,-13.19 -29.69,-6.86 -48.59,-4.35l-165.87 11.16 0 -616.17c139.59,0 268.45,3.4 408.51,3.4 0,138.44 0,276.88 0,415.32l3.32 357.53c-0.09,22.56 3.49,29.29 3.49,50.98 -35.49,0 -39.15,-5.39 -84.61,7.32 -57.65,16.11 -62.38,-14.69 -83.56,-108.09 -4.36,-19.25 -13.56,-74.38 -19.07,-83.06 0,-16.17 0.08,-6.46 -3.4,-10.21 0,-16.17 0.07,-6.46 -3.41,-10.22zm-3.4 -6.8l3.4 6.8c0,16.17 -0.07,6.46 3.41,10.22 0,16.16 -0.08,6.45 3.4,10.21 0,36.52 31.73,159.71 44.01,184.08 16.07,31.92 46.56,14.69 80.89,8.9 43,-7.25 68.28,-4.14 96.38,14.68 0,20.67 3.4,27.28 3.4,44.26 -87.46,-41.97 -184.58,59.74 -209.14,-39.37 -16.45,-66.34 -24.37,-132.9 -36.63,-177.84 -4.99,-18.34 -11.68,-38.47 -16.36,-58.54l13.62 -3.4 13.62 0zm-1426.38 -4064.68l1.87 7.31 -1.87 -7.31 -1.88 -7.32 1.88 7.32zm1007.66 3560.85l-3.41 3.4 -3.91 6.64 -64.17 -37.28c0,-16.93 1.67,-22.73 2.87,-34.57 1.06,-10.44 -1.62,-24.75 3.93,-33.51l3.41 3.4c4.26,6.37 5.31,7.04 10.99,12.84 7.9,8.08 5.14,8.03 16.24,10.99 11.21,16.74 39.03,31.49 44.26,51.07l-3.41 6.8 -3.4 3.41 -3.4 6.81zm-3.41 3.4l3.41 -3.4 3.4 -6.81 3.4 -3.41 3.41 -6.8c11.98,-6.74 6.81,-28.72 6.81,-57.88 -0.02,-91.4 -5.11,-436.68 3.4,-473.19 0.53,0.61 1.29,0.81 1.49,1.91l51.01 91.97c9.5,15.88 17.03,30.94 25.65,45.85 9.24,15.99 17.4,31.3 26.21,48.68 14.18,28.02 15.1,14.26 14.81,56.67 -0.16,24.95 -0.05,49.97 -0.02,74.92 0.04,28.83 -3.59,45.96 -3.48,71.41l0.07 663.91 17.03 0 0 -834.04c171.11,0 331.96,-3.41 503.83,-3.41l0 1065.53c-11.44,-7.66 -15.73,-15.49 -34.05,-17.02l3.41 -337.02c0,-41.38 3.55,-74.79 3.41,-112.33 -0.56,-152.02 -0.01,-304.15 -0.01,-456.18l-439.15 0c0,59.21 -3.55,312.17 1.97,348.67 4.01,26.48 1.44,56.29 1.44,83.67l-3.42 85.09c-3,55.47 0.01,120.5 0.01,177.04 -33.97,0 -103.51,9.79 -122.62,8.79l-10.74 -1.23c-0.3,0.05 -11.68,2.65 -19.83,2.65 0,-80.15 -3.4,-155.11 -3.4,-238.29 0,-81.71 0,-163.41 0,-245.11 -8.47,-5.67 -11.33,-7.06 -21.61,-12.43 -19.22,-10.04 -14.87,-9.37 -15.84,-18.21zm-57.87 -95.32l-3.41 -3.4c-4.31,-8.99 0,-693.59 0,-765.96 3.88,4.46 1.29,0.12 5.36,8.26l61.3 149.77c8.42,20.46 8.51,18.45 8.29,46.18 -1.69,209.12 3.35,418.14 3.35,626.43 -22.39,-15 -34.78,-34.01 -47.66,-37.45 -4.26,-6.37 -5.3,-7.04 -10.99,-12.84 -7.9,-8.08 -5.14,-8.03 -16.24,-10.99zm2598.05 -190.15l-51.5 -42.35 -0.13 -22.77 -0.04 -217.92c0,-53 -3.41,-93.64 -3.41,-146.38 13.27,3.09 42.03,6.81 57.88,6.81l-2.8 422.61zm-68.69 -56.48l-246.86 -203c19.73,-12.59 39.28,-25.29 59.46,-37.34l169.03 -110.12c8.91,-5.97 15.84,-13.18 25.18,-15.67 0,21.85 -3.3,27.93 -3.54,47.52 -0.23,18.13 0.28,36.56 0.25,54.72 -0.03,21.05 -3.61,26.38 -3.64,47.43 -0.02,18.17 0.12,36.39 0.12,54.58l0 161.88zm-731.92 -601.87l-183.68 -151.05 180.28 19.12c0.89,10.65 3.4,12.1 3.4,23.83l0 108.1zm-195.49 -160.76l-257.19 -211.5 552.44 69.09c6.55,0.84 12.22,0.84 18.6,1.82 0.3,0.05 7.95,1.69 8.39,1.83l7.18 3.04c0.5,0.22 1.53,0.7 2.25,1.15 -8.81,5.9 -17.3,12.1 -20.43,23.83 -8.48,5.68 -14.05,9.3 -17.02,20.43 -8.48,5.67 -14.05,9.29 -17.02,20.42l-3.41 3.41c-8.68,5.81 -10.63,5.83 -13.61,17.02l-3.41 3.4 -3.4 3.4c-8.68,5.82 -10.63,5.84 -13.62,17.03l-3.41 3.4c-8.67,5.81 -10.62,5.83 -13.61,17.02l-3.4 3.41 -3.41 3.4c-8.92,5.97 -7.04,1.72 -10.21,13.62l-3.4 3.4c-6.14,2.95 -102.43,-7.19 -202.31,-18.62zm-273.27 -224.72l-371.83 -305.76 820.78 112.75c59.13,7.11 117.2,17.04 173.62,23.83l176.41 24.44c-4.3,6.41 -15.36,20.01 -21.28,26.37 -9.03,9.7 -13.42,15.82 -22.1,25.57l-122.75 146.18c-7.98,9.01 -7.59,3.96 -10.89,16.34 -25.16,0 -51.96,-4.59 -77.7,-7.41 -24.2,-2.65 -53.21,-7.29 -78.99,-9.51l-465.27 -52.8zm-380.73 -313.08l-246.48 -202.68 20.32 -299.53c0.49,-75.64 16.93,-191.22 16.93,-286.05l17.02 0c7.25,4.6 -8.5,1.62 10.07,3.55 2.91,0.31 10.36,-0.14 13.76,-0.14l4.9 1.91c3.32,0.96 4.18,1.28 8.11,2.1 6.05,1.26 8.58,1.43 14.77,2.25l1875.2 286.5c-18.68,27.9 -78.46,92.1 -102.13,122.56l-68.56 81.22c-11.93,14.74 -21.64,26.26 -34.36,40.53l-67.29 82.5c-15.39,-0.34 -34.68,-5.03 -51.06,-6.81l-1384.1 -181.86c-35.31,-4.96 -66.65,-8.54 -102.05,-13.69 -33.72,-4.9 -72.95,-12.11 -107.04,-12.11 -7.25,-4.6 8.5,-1.62 -10.07,-3.55 -2.91,-0.3 -10.36,0.15 -13.76,0.15 -7.25,-4.6 8.5,-1.63 -10.07,-3.55 -2.91,-0.3 -10.36,0.14 -13.76,0.14l0 3.41 23.83 0c7.24,4.59 -8.5,1.62 10.06,3.55 2.91,0.3 10.36,-0.15 13.77,-0.15 0.73,0.47 2.01,-0.03 2.43,0.96l127.21 19.19c116.4,13.01 273,38.27 394.03,55.33l1090.42 152.61c23.67,3.31 10.63,7.41 -30.1,55.48 -23.52,27.77 -43.68,55.14 -68.24,81.55l-137.03 165.95c-24.96,0 -61.03,-7.56 -87.89,-10.84l-265.87 -33.71c-117.55,-13.34 -234.98,-30.04 -353.7,-44.59l-489.27 -62.18zm-1971.08 -1620.85l310.3 255.16c10.76,33.54 59.87,145.06 65.93,158.8 69.39,157.16 141.29,340.56 210.21,501.28 64.82,151.13 151.03,351.24 210.53,500.96 22.97,57.79 47.77,110.18 70.53,167.76 22.44,56.77 47.19,108.75 69.55,165.34 11.46,28.97 22.98,56.44 35.11,84.05 88.89,202.39 173.6,422.04 261.94,623.17 6.42,14.61 11.85,27.41 18.08,43.19l52.34 124.68c35.75,80.14 91.13,227.11 123.71,295.01l-197.44 0c-3.98,-14.92 -26.58,-49.65 -35.15,-66.98l-90.08 -165.24c-10.3,-48.35 14.24,-76.09 -12.89,-143.71l-72.46 -182.86c-4.8,-12.03 -8.8,-26.94 -17.5,-36.95l0 30.63 -51.07 0c-6.46,-27.7 -90.84,-191.14 -107.57,-215.83 -8.06,-11.88 -14.26,-15.88 -15.19,-32.47 -2.41,-42.73 3.3,-213.49 -2.1,-229.39 -1.93,-5.69 -5.24,-11.1 -7.45,-16.38l-237.8 -579.22c-4.92,-11.4 -9.38,-23.29 -14.57,-33.09l-108.94 0 -49.09 -107.5c-4.21,-10.19 -7.98,-16.61 -12.23,-25.22l-136.14 -296.2c-21.29,-42.06 -54.57,-119.41 -77.62,-157.27 -10.43,-17.12 -16.94,-34.14 -27.38,-50.92 -12.06,-19.38 -7.32,-36.29 -7.32,-70.97l0 -234.9c3.82,4.41 1.56,1.07 5.63,7.99l14.64 26.21c6.59,11.35 10.29,26.35 20.58,33.89l1.87 7.32 -1.87 -7.32c-10.28,-44.1 -40.85,-50.9 -40.85,-105.53 -22.69,-10.89 -11.52,0.81 -35.18,-46.53 -10.12,-20.24 -18.25,-36.5 -28.37,-56.74 -19.6,-39.2 -38.05,-72.7 -57.87,-112.34l-26.82 -51.88zm315.68 259.59l847.96 697.29c2.12,17.56 4.18,35.05 6.16,52.45 20.6,181.39 49.29,373.47 71.82,557.96 7.43,60.78 15.11,124.12 24.26,186.81 25.98,178.14 46.31,379.32 71.88,561.31 4.49,32.02 8.73,62.03 12.17,93.36 1.66,15.08 9.73,83.79 13.62,91.91l602.76 47.45c69.33,5.32 134.93,10.49 204.05,13.83l609.37 40.84c15.9,0.79 31.1,2.41 51.06,3.4l138.91 10.89c9.42,3.23 3.65,-3.33 7.47,6.14l50.1 -38.42c20.13,-15.11 40.29,-30.37 60.46,-45.72l165.04 135.72 -137.47 86.55c-107.33,65.74 -33.84,34.75 -233.53,35.57l-217.9 -10.18c-32.03,0.03 -73.36,-7.14 -105.35,-7 -23.03,0.11 -31.1,-3.28 -51.01,-3.45 -23.29,-0.2 -35.79,-2.87 -54.49,-3.39l-266.13 -13.01c-17.66,-1.99 -39.32,0.16 -57.49,-0.39l-330.1 -10.32 -3.41 -13.62c-5.95,25.55 -14.86,52.69 -22.64,79.48 -4.1,14.09 -7.32,27.63 -10.99,40.08 -3.73,12.69 -10.31,29.89 -10.62,43.84 -1.86,2.67 -5.34,2.78 -6.81,20.43l-299.58 0 -34.13 -81.61c-12.24,-27.9 -22.91,-54.05 -35.38,-83.76 -68.21,-162.43 -149.14,-341.07 -213.56,-501.34 -11.24,-27.97 -23.25,-54.51 -35.46,-83.69l-106.51 -250.94c-46.56,-112.8 -94.6,-221.42 -142,-334.59 -24.04,-57.37 -46.98,-109.92 -71.01,-167.29l-177.8 -417.94c-12.89,-28.82 -23.03,-55.87 -35.3,-83.85 -84.05,-191.66 -164.45,-395.15 -248.5,-585.54 -4.5,-10.2 -19.37,-48.28 -29.92,-69.26zm862.18 708.99l52.77 43.39 14.07 147.13c10.04,119.44 27.96,256 36.89,371.62 15.02,194.32 45.44,416.36 58.02,602.42l10.33 153.07c0,-41.69 -100.89,-760.43 -112.35,-864.68 -16.03,-146.04 -39.99,-302.4 -59.73,-452.95zm65.86 54.15l471.03 387.34 -10.27 131.11c-3.11,28.47 -1.25,55.65 -4.41,84.1l-13.2 167.22c-1.94,79.45 -16.37,182.65 -16.84,255.5 -0.16,24.09 -5.76,58.08 -6.89,81.62 -1.52,31.3 -3.41,55.33 -3.41,88.5 38.12,0 73.64,7.07 109.02,10.12 36.22,3.13 73.23,7.17 110.31,12.25 147.11,20.17 294.19,29.77 438.68,48.12 74.32,9.44 148.77,16.21 220.89,24.22 73.77,8.2 146.17,15.77 217.88,23.83 63.99,7.19 63.9,13.35 79.53,-4.53l168.73 138.74 -12.74 10.63c-22.33,18.71 -21.77,6.06 -59.1,5.54 -58.92,-0.82 -193.4,-18.36 -258.73,-20.41l-191.58 -16.08c-21.3,-2.84 -46.05,-3.36 -67.09,-4.4 -76.78,-3.8 -174.95,-16.46 -255.32,-20.43 -97.77,-4.83 -219.42,-19.25 -320.26,-26.97l-455.97 -34.24c-10.01,-9.5 -10.8,-57.63 -12.65,-72.46 -3.23,-25.84 -6.06,-53.72 -7.66,-77.45l-15.18 -155.03c-3.57,-25.53 -5.75,-53.86 -8.19,-76.92 -8.33,-78.85 -13.21,-156.26 -23.4,-235.32 -6.8,-52.78 -9.57,-101.79 -15.2,-155.01l-31.03 -309.4c-2.81,-22.16 -5.38,-54.74 -8.24,-76.86 -3.55,-27.61 -6.1,-53.5 -7.93,-80.59 -1.59,-23.63 -4.4,-51.71 -7.66,-77.44 -1.07,-8.4 -2.1,-16.84 -3.12,-25.3zm480.88 395.44l246.48 202.68 -39.3 -4.99c-30.33,-3.47 -57.61,-7.32 -87.94,-10.79 -29.15,-3.33 -60.39,-9.93 -92.2,-9.93 -7.24,-4.59 8.5,-1.62 -10.07,-3.55 -2.91,-0.3 -10.35,0.15 -13.76,0.15l-13.62 -3.4c0,-17.14 -0.43,-29.8 1.97,-45.69l8.44 -124.48zm255.38 210l371.83 305.76 -552.82 -62.73c-28.46,-2.69 -51.43,-7.12 -81.39,-7.12l-23.83 -3.4 14.54 -210.14c7.34,-53.82 -8.64,-58.17 19.5,-58.8 7.25,4.6 -8.5,1.63 10.06,3.55 2.92,0.3 10.36,-0.15 13.77,-0.15 0.74,0.47 2.02,-0.02 2.44,0.97 2.03,4.82 161.7,23.16 169.7,24.34l56.2 7.72zm387.91 318.98l257.19 211.5c-97.99,-11.21 -199.44,-23.67 -222.62,-26.24l-722.31 -74.29 13.62 -194.04 23.83 0c4.77,3.03 -1.37,0.75 7.61,2.6 3.71,0.76 5.31,0.75 8.99,1.23l633.69 79.24zm269 221.21l183.68 151.05 0 7.65c-37.64,0 -529.45,-56.51 -575.63,-60.96 -76.56,-7.38 -216.14,-26.18 -285.76,-30.84 -55.97,-3.74 -261.47,-30.75 -289.24,-30.75 3.98,-8.31 10.21,-122.88 10.21,-142.98 9.6,4.61 117.78,17.47 136.79,19.8 136.9,16.78 291.14,36.77 425.21,47.99 106.79,8.93 251.7,21.63 359.58,35.31l35.16 3.73zm378.89 311.57l59.87 49.23c-10.31,8 -20.23,15.82 -31.85,24.53 -17.66,13.23 -34.78,29.25 -53.01,38.9 0,-94.23 -8.91,-86.66 24.99,-112.66zm249.45 205.12l29 23.85c-39.71,26.78 -79.81,53.96 -121.9,82.25 -13.59,9.13 -9.82,2.14 -11.33,15.91 -28.91,0 -49.65,-3.41 -81.7,-3.41l185.93 -118.6zm40.4 33.23l246.86 203 0 461.1 0 166.81c-74.24,0 -307.51,34.04 -384.68,34.04 4.02,-237.43 -4.18,-525.44 3.4,-762.55 0,-9.2 -1.62,-9.39 -3.4,-17.03l98.88 -61.11c13.2,-7.91 26.11,-16.06 38.94,-24.26zm264.05 217.13l51.5 42.35 -0.61 91.43c0,107.61 0.25,215.93 0.01,323.4l-0.01 156.6 -51.06 0c0,-203.23 1.18,-411.03 0.17,-613.78zm3873.87 -2892.61l-6.81 3.41 -3.4 0 2.84 3.97 0.56 -3.97 6.81 -3.41 3.41 0 -2.84 -3.97 -0.57 3.97zm-27.23 17.03l-6.81 3.4 -3.4 0 2.83 3.97 0.57 -3.97 6.81 -3.4 3.4 0 -2.84 -3.98 -0.56 3.98zm-37.45 23.82l-6.81 3.41 -3.4 0 2.83 3.97 0.57 -3.97 6.81 -3.41 3.4 0 -2.83 -3.96 -0.57 3.96zm-27.23 17.03l-6.81 3.4 -3.41 3.41 -6.8 3.4 -3.41 0 2.84 3.97 0.57 -3.97 6.8 -3.4 3.41 -3.41 6.81 -3.4 3.4 0 -2.84 -3.97 -0.56 3.97zm-27.24 17.02l-6.81 3.4 -3.4 3.41 -6.81 3.4 -3.4 0 2.83 3.97 0.57 -3.97 6.81 -3.4 3.4 -3.41 6.81 -3.4 3.4 0 -2.83 -3.97 -0.57 3.97zm-27.23 17.02l-6.81 3.4 -3.41 3.41 -6.8 3.4 -3.41 3.41 -6.81 3.4 -3.4 0 2.84 3.97 0.56 -3.97 6.81 -3.4 3.41 -3.41 6.8 -3.4 3.41 -3.41 6.81 -3.4 3.4 0 -2.83 -3.97 -0.57 3.97zm-37.45 23.83l-6.81 3.4 -3.4 3.41 -6.81 3.4 -3.4 0 2.83 3.97 0.57 -3.97 6.81 -3.4 3.4 -3.41 6.81 -3.4 3.41 0 -2.84 -3.97 -0.57 3.97zm-6668.93 2611.06l-3.41 -3.4 -3.4 -3.41 -3.4 -3.4c-16.59,-24.77 -10.22,-25.34 -10.22,-81.7l0.05 -602.6c0.12,-20.74 -2.59,-27.88 -3.47,-44.19 -4.13,-76.57 0.02,-280.1 0.02,-371.08 0,-123.69 0,-247.38 0,-371.07 4.01,4.61 1.25,0.1 5.33,8.28l241.7 582.13c5.73,22.49 4.89,1034.69 4.89,1081.08 -20.41,-13.66 -36.28,-30.38 -55.49,-46.64l-156.35 -133.01c-8.43,-8.16 -4.5,-7.85 -16.25,-10.99zm-3.41 -3.4l3.41 3.4c14.48,21.62 36.73,34.78 55.33,53.61 9.07,9.17 17.69,19 27.38,27.09 12.43,10.39 17.29,14.16 28.78,25.69l113.19 104.68c-5.3,10.01 -21.72,38.6 -23.83,47.65 -21.21,-5.66 -190.73,-121.21 -211.06,-125.95 -5.09,-7.33 -0.5,-4.48 -10.22,-6.81l0 -139.57c4.59,2.57 3.77,1.86 10.22,3.4l3.4 3.4 3.4 3.41zm6910.64 -2757.45l1.01 -1.01c-0.06,0.06 -1.35,0.68 -1.01,1.01zm-7428.08 -320l1.01 -1.01c-0.06,0.06 -1.35,0.67 -1.01,1.01zm-10.21 -23.83l1.01 -1.01c-0.06,0.06 -1.35,0.67 -1.01,1.01zm-30.64 -71.49l1.01 -1.01c-0.06,0.06 -1.35,0.67 -1.01,1.01zm7533.61 374.47l1.02 -1.01c-0.07,0.06 -1.36,0.67 -1.02,1.01zm119.15 -74.89l1.02 -1.02c-0.07,0.07 -1.36,0.68 -1.02,1.02zm-211.07 132.76l1.02 -1.01c-0.07,0.06 -1.35,0.68 -1.02,1.01zm-7417.86 -377.87l1.01 -1.01c-0.07,0.06 -1.35,0.67 -1.01,1.01zm7547.23 296.17l1.01 -1.01c-0.06,0.06 -1.35,0.67 -1.01,1.01zm-10.22 6.81l1.02 -1.01c-0.07,0.06 -1.35,0.67 -1.02,1.01zm-7547.23 -326.81l1.02 -1.01c-0.07,0.06 -1.35,0.67 -1.02,1.01zm-17.02 -40.85l1.02 -1.01c-0.07,0.06 -1.35,0.67 -1.02,1.01zm54.47 129.36l1.02 -1.01c-0.07,0.06 -1.36,0.67 -1.02,1.01zm7611.91 173.62l1.02 -1.02c-0.07,0.07 -1.36,0.68 -1.02,1.02zm-7628.93 -214.47l1.02 -1.01c-0.07,0.06 -1.36,0.67 -1.02,1.01zm-30.64 -71.49l1.02 -1.01c-0.07,0.06 -1.36,0.67 -1.02,1.01zm7632.34 302.98l1.01 -1.01c-0.07,0.06 -1.35,0.67 -1.01,1.01zm-10.21 6.81l1.01 -1.02c-0.07,0.07 -1.36,0.68 -1.01,1.02zm-81.71 51.06l1.02 -1.01c-0.07,0.06 -1.36,0.67 -1.02,1.01zm-20.42 13.62l1.01 -1.01c-0.07,0.06 -1.35,0.67 -1.01,1.01zm91.91 -57.87l1.02 -1.02c-0.07,0.07 -1.36,0.68 -1.02,1.02zm-7557.44 -187.24c0.34,0.34 1.01,-1.49 1.01,-1.01l0.01 0c-0.07,0.06 -1.36,0.68 -1.02,1.01zm-51.06 -122.55c0.33,0.34 1.01,-1.49 1.01,-1.02l0 0.01c-0.07,0.06 -1.35,0.67 -1.01,1.01zm5368.5 6056.17c0.34,0.34 1.02,-1.49 1.02,-1.02 -0.07,0.07 -1.35,0.68 -1.02,1.02zm2212.77 -5729.36c0.34,0.34 1.01,-1.49 1.01,-1.02l0 0.01c-0.06,0.06 -1.35,0.67 -1.01,1.01zm-81.7 51.06c0.33,0.34 1.01,-1.49 1.01,-1.02l0 0.01c-0.07,0.06 -1.35,0.67 -1.01,1.01zm91.91 -57.87c0.34,0.34 1.01,-1.49 1.02,-1.02 -0.07,0.07 -1.36,0.68 -1.02,1.02zm-7605.1 -350.64c0.34,0.34 1.01,-1.49 1.01,-1.01 -0.06,0.06 -1.35,0.67 -1.01,1.01zm85.1 200.85c0.34,0.34 1.02,-1.49 1.02,-1.01 -0.07,0.06 -1.35,0.67 -1.02,1.01zm-10.21 -23.83c0.34,0.34 1.02,-1.49 1.02,-1.01 -0.07,0.07 -1.36,0.67 -1.02,1.01zm7611.91 122.56c0.34,0.34 1.02,-1.5 1.02,-1.02 -0.07,0.07 -1.36,0.68 -1.02,1.02zm-71.49 44.25c0.34,0.34 1.02,-1.49 1.02,-1.01 -0.07,0.06 -1.35,0.67 -1.02,1.01zm-7588.08 -279.15c0.34,0.34 1.02,-1.49 1.02,-1.01 -0.07,0.07 -1.36,0.67 -1.02,1.01zm7496.17 337.03l-3.4 0 2.83 3.96 0.57 -3.96 3.4 0 -2.84 -3.98 -0.56 3.98zm-37.45 23.82l3.4 0 -2.83 -3.97 -0.57 3.97 -3.4 0 2.84 3.97 0.56 -3.97zm-81.7 51.07l3.4 0 -2.83 -3.97 -0.57 3.97 -3.4 0 2.83 3.97 0.57 -3.97zm54.47 -34.04l-3.41 0 2.84 3.96 0.57 -3.96 3.4 0 -2.83 -3.98 -0.57 3.98zm-81.71 51.06l-3.4 0 2.84 3.97 0.56 -3.97 3.41 0 -2.84 -3.97 -0.57 3.97zm119.16 -74.9l3.4 0 -2.84 -3.97 -0.56 3.97 -3.41 0 2.84 3.98 0.57 -3.98zm-129.37 81.71l-3.4 0 2.83 3.97 0.57 -3.97 3.41 0 -2.84 -3.98 -0.57 3.98zm102.13 -64.69l-3.4 0 2.83 3.98 0.57 -3.98 3.4 0 -2.83 -3.96 -0.57 3.96zm91.92 -57.87l3.4 0 -2.84 -3.97 -0.56 3.97 -3.41 0 2.84 3.98 0.57 -3.98zm27.23 -17.02l-3.41 0 2.84 3.97 0.57 -3.97 3.41 0 -2.84 -3.97 -0.57 3.97zm-81.7 51.07l-3.41 0 2.84 3.97 0.57 -3.97 3.4 0 -2.83 -3.97 -0.57 3.97zm-166.81 105.53l3.4 0 -2.83 -3.97 -0.57 3.97 -3.41 0 2.84 3.97 0.57 -3.97zm91.91 -57.87l-3.4 0 2.84 3.97 0.56 -3.97 3.41 0 -2.84 -3.98 -0.57 3.98zm10.22 -6.81l-3.41 0 2.84 3.97 0.57 -3.97 3.4 0 -2.84 -3.97 -0.56 3.97zm-5787.23 5712.34l0 -6.81 3.4 0 -3.4 6.81zm0 -6.81l-3.41 6.81 -13.61 13.62c-16.83,-3.92 -24.01,-13.44 -37.45,-17.03l3.94 -2.86c34.23,-23.27 47.21,-45.65 30.68,-89.63 -4.56,-12.11 -18.2,-33.18 -26.88,-41.21 -59.95,-55.49 -231.39,-18.15 -293.7,-2.47 -18.8,4.73 -34.81,9.05 -53.75,14.33l-167.48 43.59c-74.85,18.19 -150.2,34.2 -223.52,55.63 -77.37,22.61 -161.7,38.82 -240.87,20.58 -131.63,-30.32 -263.43,-129.5 -293.41,-264.88 -17.84,-80.55 -4.9,-182.39 1.71,-261.03 19.32,-229.75 15.05,-284.49 -38.51,-498.77l-166.82 -670.62c-4.96,-19.66 -8.16,-36.06 -12.93,-55.16 -10.6,-42.46 -3.79,-31.86 -25.9,-45.59 -44.31,-27.53 -32.52,-76.06 6.09,-77.73 71.84,-3.1 191.46,-18.24 258.79,-20.35 67.92,-2.13 199.77,-20.42 262.13,-20.42 0,18.85 6.46,34.97 10.22,51.06 -50.94,0 -366.77,54.47 -415.32,54.47l207.37 -20.71c33.04,-3.72 68.21,-9.53 102.41,-13.33l105.54 -13.62 164.73 727.17c24.58,106.69 38.05,273.34 87.28,358.69 66.39,115.13 213.97,120.34 329.43,91.33 78.02,-19.61 148.99,-50.03 232.13,-64.04 37.32,-6.29 96.45,-11.88 141.61,-5.35 33.79,4.88 94.48,11.67 123.97,25.82 0,57.83 4.41,134.99 -0.19,190.46 -4.97,60.11 0.21,127.53 -3.2,190.83l-3.4 91.92c0.1,20.36 -1.98,29.03 -3.25,44.41 -1.33,16.05 0.42,34.66 -0.07,51 -1.07,36.09 -12.8,132.45 -40.96,153.08l0 -10.21 13.2 -44.67c5.15,-49.27 -8.65,-101.03 -50.45,-122.34 -109.07,-55.61 -485,49.06 -593.89,73.74 -141.07,31.97 -252.12,84.26 -384.65,40.12 -59.71,-19.88 -105.91,-46 -150.47,-81.02 -180.57,-141.92 -108.22,-330.29 -106.87,-495.56 0.34,-42.43 11.25,-122.17 4.78,-164.9 -3.12,-20.63 -0.39,-54.41 -9.21,-106.54 -24.25,-143.44 -98.46,-412.26 -135.21,-559.26 -15.37,-61.51 -31.4,-122.55 -47.63,-183.85 -8.01,-30.23 -16.8,-59.78 -24.53,-91.22 -3.54,-14.41 -8.57,-31.24 -12.23,-45.64l-9.54 -34.72c-4.09,-8.79 0.35,-5.38 -8.19,-8.82 3.23,6.73 8.48,33.25 10.92,43.54l76.88 328.23c29.31,124.41 62.05,246.94 92.62,370.36 7.71,31.14 16.4,58.75 24.52,91.22 13.4,53.61 21.05,89.65 27.12,146.49l6.25 109.53c0.19,61.22 -15.68,209.42 -20.24,269.12 -14.53,190.09 32.66,297.13 183.82,387.7 81.27,48.69 175.19,75.58 278.72,54.42 108.94,-22.28 256.19,-63.93 372.65,-90.33 112.26,-25.43 288.74,-73.41 406.26,-48.1 50.12,10.79 62.89,65.65 62.32,111.57 -0.28,22.46 -6.52,31.8 -6.95,50.93 -3.48,3.75 -3.4,-5.96 -3.4,10.21zm-1610.22 -6056.17c0,8.46 5.45,0.87 2.11,0 -0.04,-0.01 -2.11,-9.66 -2.11,0zm-20.42 -47.66c0,8.46 5.44,0.87 2.11,0 -0.04,-0.01 -2.11,-9.66 -2.11,0zm10.21 23.83c0,8.46 5.45,0.87 2.11,0 -0.04,-0.01 -2.11,-9.66 -2.11,0zm27.23 64.68c0,8.46 5.45,0.87 2.12,0 -0.05,-0.01 -2.12,-9.66 -2.12,0zm5310.64 5947.23c3.5,3.5 12.32,-4.89 3.95,-1.83 -0.08,0.03 -9.66,-3.88 -3.95,1.83zm-10.21 3.41c3.5,3.5 12.31,-4.9 3.95,-1.84 -0.08,0.03 -9.67,-3.88 -3.95,1.84zm-3652.76 -1402.55c-3.76,-3.49 5.95,-3.41 -10.22,-3.41 -9.03,-5.73 -35.94,-10.09 -54.34,-10.36 -26.78,-0.39 -42.34,2.2 -62.32,6.04 -58.56,11.27 -158.07,58.61 -205.35,-14.09 -15.4,-23.67 -21.89,-75.61 -28.36,-107.81 -15.25,-75.82 -29.24,-150.39 -47.23,-221.7 -9.34,-37 -17.01,-69.7 -26.91,-106.46 -5.83,-21.63 -6.89,-16.4 36.23,-22.41 19.14,-2.67 39.93,-6.61 61.47,-6.61 2.02,24.2 9.58,56.23 14.47,80.85 11.28,56.85 26.98,100.31 37.47,153.17 10.09,50.83 12.3,115.95 52.92,137.71 65.69,35.18 109.79,-17.97 194.75,-17.81 20.49,0.03 27.32,3.52 44.22,3.52l-3.15 98.97c-0.84,11.86 1.79,21.8 -3.65,30.4zm-10.22 -3.41c3.76,3.48 -5.96,3.41 10.22,3.41 8.72,18.17 3.4,122.47 3.4,153.19 -9.2,-2.15 -16.93,-5.78 -28.35,-9.11 -155.1,-45.22 -255.68,72.36 -370,19.37 -38.26,-17.73 -54.53,-55.16 -64.71,-95.29 -30.34,-119.62 -47.72,-263.75 -81.62,-398.38l-34.04 -125.96c16.34,-0.36 43.79,-5.51 63.24,-8.24 20.65,-2.9 43.73,-7.2 62.71,-8.78l22.38 100.18c7.75,35.19 15.3,66.18 22.2,100.36 6.87,34.08 13.84,66.03 20.96,101.59 6.43,32.17 12.47,68.11 20.38,102.17 24.69,106.3 97.77,114.18 190.25,82.93 15.98,-5.4 32.09,-9.45 47.89,-13.39 62.34,-15.52 78.62,-4.05 115.09,-4.05zm112.34 -3921.7c-3.59,-2.28 -0.08,-2.02 -7.06,-3.15 -2.89,-0.47 -6.97,-0.25 -9.96,-0.25 -3.59,-2.28 -0.08,-2.03 -7.06,-3.16 -2.89,-0.47 -6.97,-0.25 -9.96,-0.25l0 3.41 17.02 0c3.59,2.27 0.08,2.02 7.06,3.15 2.89,0.47 6.98,0.25 9.96,0.25 3.57,2.26 0.09,2.04 7.04,3.17 3.54,0.58 9.61,0.23 13.39,0.23 3.59,2.28 0.08,2.03 7.06,3.16 2.89,0.47 6.97,0.25 9.96,0.25 3.28,2.08 0.99,1.42 7.05,3.16 0.46,0.12 8.01,1.75 8.39,1.83 9.6,1.94 11.37,1.82 22,1.82l1975.91 373.03c45.64,8.14 91.74,15.25 134.73,25.26 -4.81,18.03 -266.83,313.64 -296.17,357.45 -21.78,0 -93.3,-12.11 -120.17,-16l-1676.69 -243.31c-28.93,-4.08 -101.13,-16.43 -123.14,-16.43 -7.24,-4.6 8.5,-1.63 -10.06,-3.55 -2.91,-0.31 -10.36,0.14 -13.77,0.14l-13.61 -3.4c0,-52.07 13.56,-216.79 17.01,-285.97l10.04 -126.13c0.88,-10.99 -0.55,-22.28 0.68,-33.36l6.3 -92.42c1.32,-26.32 6.49,-59.27 6.73,-95.4 0.1,-16.61 2.27,-17.74 3.31,-30.73 0.88,-11 -0.55,-22.29 0.68,-33.37 1.87,-16.87 3.19,-46.6 5.38,-62.7 1.59,-11.7 0.35,-21.56 0.93,-33.12 0.74,-15.06 3.09,-14.14 3.49,-30.54l7.65 -128.52c2.42,-17.84 1.7,-44.27 5.88,-62.21l13.62 0c3.56,2.26 0.09,2.04 7.04,3.17 3.54,0.58 9.61,0.23 13.38,0.23 3.6,2.28 0.08,2.03 7.06,3.16 2.89,0.47 6.98,0.25 9.97,0.25 3.56,2.26 0.08,2.04 7.03,3.17 3.55,0.58 9.62,0.23 13.39,0.23 3.57,2.27 0.09,2.05 7.04,3.18 3.54,0.57 9.61,0.23 13.39,0.23 8.39,5.32 24.06,6.32 35.98,8.27l118.66 20.91c53.42,8.8 105.36,19.37 156.11,27.72 105.56,17.35 207.85,38.23 312.2,55.46l624.97 110.35c104.88,19.01 209.67,38.62 312.2,55.46 155.35,25.54 313.53,57.77 468.32,83.17 51,8.37 104,17.4 156.21,27.62 26.9,5.26 288.71,53.59 314.07,53.59 -4.78,17.89 -145.96,179.59 -164.2,200.06 -54.53,61.16 -123.25,148.93 -180.39,214.5l-37.21 44.54c-15.07,14.1 -42.09,2.39 -82.62,-4.9 -204.68,-36.79 -423.95,-79.43 -625.39,-113.33 -60.22,-10.13 -116.31,-21.59 -176.12,-31.54l-536.36 -96.83c-119.8,-22.65 -233.92,-42.29 -354.57,-64.15 -60.7,-11 -118.85,-22.81 -178.46,-32.61 -38.29,-6.29 -154,-30.63 -180.43,-30.63 -3.28,-2.09 -0.99,-1.43 -7.05,-3.16 -0.45,-0.13 -8.01,-1.76 -8.38,-1.83 -9.6,-1.95 -11.37,-1.82 -22.01,-1.82 -3.59,-2.28 -0.08,-2.02 -7.06,-3.16 -2.89,-0.47 -6.98,-0.25 -9.96,-0.25 -3.57,-2.26 -0.09,-2.04 -7.04,-3.17 -3.54,-0.57 -9.62,-0.23 -13.39,-0.23zm-333.62 3414.47l-10.21 6.81 -17.02 0 0 -6.81 27.23 0zm2985.54 1814.47l3.4 0 0 -20.43 -3.4 0 0 20.43zm-3050.22 -1930.22l-81.7 0 0 -13.61 81.7 0c-3.42,16.15 0.92,6.48 0,13.61zm-98.72 -20.42l6.81 23.83c-1.9,0 -5.56,-0.07 -6.58,0.22 -6.02,1.74 -3.78,1.11 -7.04,3.18 16.1,0.36 13.37,-3.46 17.02,10.21 3.15,-4.16 2.21,3.83 3.41,-10.21 13.42,0.3 14.98,3.41 40.85,3.41 20.71,0 24.83,-3.41 44.25,-3.41l0 10.21c20.49,-15 -4.36,-20.39 13.62,-37.44 -13.68,-3.66 -0.4,-4.27 -15.58,-2.78 -0.43,0.04 -1.39,0.29 -1.87,0.32l-57.44 -0.95c-11.74,0 -13.18,2.52 -23.83,3.41 0,-18 -0.03,-5.08 -3.41,-10.21 -2.65,9.92 -0.03,7.77 -10.21,10.21zm575.32 -354.05c10.12,4.86 241.1,10.27 255.34,10.2 25.92,-0.14 37,3.6 61.17,3.5l197.53 3.33 3.42 251.92c0.11,31.03 -3.42,49.49 -3.42,81.69 -173,0 -336.13,-3.4 -507.23,-3.4l-3.4 -262.13c0,-33.01 -3.41,-55.54 -3.41,-85.11zm0 0c-2.64,4.16 -1.34,-0.03 -2.73,7.49l-0.68 172.94c0.02,34.37 -3.48,55.16 -3.4,88.51 0.07,30.63 0,61.28 0,91.92 132.77,0 265.53,0 398.3,0 48.79,0 85.97,-3.41 132.77,-3.41l0 -350.64c-25.44,0 -35.97,-3.59 -61.24,-3.45l-200.89 -3.36c-40.37,0 -93.82,3.04 -132.59,-0.17 -12.58,-1.04 -116.04,-8.39 -129.54,0.17zm-23.83 228.09l0 -255.32c191.82,0 375.46,10.21 568.51,10.21l0 391.49 -565.11 0c0,-52.74 -3.4,-93.38 -3.4,-146.38zm-10.21 160l592.33 0 0 -272.34c0,-50.77 -3.4,-89.08 -3.4,-139.57 -196.97,0 -385.15,-6.81 -582.12,-6.81 -9.4,40.33 -3.41,155.72 -3.41,207.66 0,72.62 -3.4,136.48 -3.4,211.06zm1249.36 691.06l0 3.41c45.31,0 84.77,-4.67 129.35,-6.82 53.36,-2.57 140.04,-13.14 190.7,-13.55 40.16,-0.33 167.58,-19.42 189.53,-9.45l230.58 113.49c18.35,7.57 30.57,14.8 46.69,21.39l84.75 34.4c1.43,0.61 5.48,2.46 6.99,3.22 0.65,0.33 1.63,0.9 2.2,1.2 0.58,0.31 1.7,0.99 2.16,1.25 0.46,0.25 1.47,0.78 2.15,1.25 -45.56,0 -89.49,9.78 -132.86,13.52 -130.3,11.25 -267.44,31.54 -404.7,44.67 -102.92,9.84 -58.12,5.15 -160.26,-48.02 -27.11,-14.11 -242.46,-118.03 -255.37,-119.11 4.41,3.83 1.07,1.57 7.99,5.64l137.28 73.78c67.14,36.15 96.34,56.51 171.8,86.92l21.21 9.43c0.46,0.26 1.47,0.78 2.15,1.26 -20.53,0 -47.98,2.91 -64.68,6.8 0.74,0.48 2,0.11 2.42,1.1 0.41,0.99 1.89,0.83 2.47,0.95 11.13,2.13 123.96,-11.37 138.19,-12.16 126.34,-6.98 306.17,-30.35 439.3,-40.69 100.25,-7.79 195.1,-18.64 292.2,-27.8 46.83,-4.43 94.49,-12.46 142.98,-17.03l126.39 -16.58c15.99,-3.1 4.85,4.86 13.49,-6.93 -75.22,0 -284.94,25.19 -367.54,30.75l-92.03 10.14 -112.38 -54.48c-63.03,-31.34 -162.72,-69.91 -232.61,-101l-46.5 -21.59 124.52 -8.24c41.75,-6.25 138.93,-10.37 187.7,-16.56 18.15,-2.3 40.43,-3.95 61.65,-6.46 41.24,-4.87 55.08,6.59 105.7,24.89 59.77,21.61 358.71,128.15 408.94,132.33 -7.19,-9.82 -11.71,-8.99 -23.8,-13.64 -76.57,-29.52 -122.26,-47.89 -206.46,-72.69l-236.34 -73.44c-6.93,-3.19 -3,-1.14 -6.59,-3.63 18.16,0 46.88,0.14 54.47,-10.21l-221.29 10.2c-78.65,4.04 -197.89,20.52 -275.71,23.86l-424.6 38.37c-14.65,1.89 -45.3,5.86 -62.23,5.86zm-1742.98 -1981.27l258.7 23.85c14.07,0.6 37.61,2.22 53.55,4.32 61.44,8.08 142.09,11.92 209.12,18.97 92.86,9.77 227.21,15.15 317.03,26.8l210.13 17.95c18.13,0.78 30.97,2.14 50.82,3.65l316.56 27.27c55.48,4.32 99.62,10.76 157.21,13 24.42,0.96 16.83,14.66 16.68,41.2 -0.12,19.28 -0.01,38.59 -0.01,57.88 -41.59,0 -213.56,-15.88 -269.13,-20.24 -8.81,-0.69 -18.04,0.32 -26.86,-0.38l-197.13 -13.92c-81.07,-8.88 -226.94,-12.75 -297.6,-22.4 -32.43,-4.43 -67.91,-1.16 -100.7,-4.83 -30.66,-3.44 -65.34,-5.33 -99.32,-6.21l-200.74 -13.73c-31.58,-1.63 -69.98,-0.8 -100.17,-5.36l-250.52 -15.02c-22.64,0.22 -29.23,-3.44 -51.02,-3.44 0,-21.56 0,-43.12 0,-64.68 0,-11.37 0.05,-22.74 -0.07,-34.11 -0.12,-11.02 -1.51,-22.72 3.47,-30.57zm-27.23 -30.64c-1.22,-6.44 4.28,-12.11 2.15,-2.16 -0.05,0.24 0.1,14.04 -2.15,2.16zm-3.41 -40.85l3.41 0 0 20.42 -3.41 0 0 -20.42zm-1208.51 2668.93c0,-298.12 3.41,-586.22 3.41,-885.1l23.83 88.51c46.66,186.6 98.64,402.34 149.08,586.23 3.71,13.49 9.82,33.78 10.92,46.96 -18.93,10.02 -52.86,46.7 -69.09,60.27l-118.15 103.13zm803.41 -1123.4l54.5 248.47c10.25,41.88 18.35,80.99 29.22,123.97 19.94,78.8 38.56,171.45 53.88,252.51 9.15,48.41 12.72,83 27.07,126.12 13.74,41.28 30.12,68.64 62.66,90.53 29.67,19.95 83.27,33.29 119.9,33.29 54.4,0 108.88,-22.82 154.42,-36.22 102.15,-30.05 150.58,-43.75 261.73,-19.08 17.1,3.8 23,3.18 23,17.86 0,113.86 -3.4,216.44 -3.4,330.21 -14.11,-3.29 -24.1,-8.03 -38.85,-12.22 -261.34,-74.21 -368.32,59.88 -594.35,59.88 -70.14,0 -136.02,-34.83 -167.38,-74.32 -16.35,-20.58 -30.7,-50.74 -41.3,-77.85 -27.89,-71.33 -118.53,-573.34 -148.09,-699.57 -22.32,-95.34 -45.39,-196.02 -71.47,-289.39 -14.29,-51.17 -23.77,-29.83 171.45,-58.64 35.54,-5.25 75.08,-8.11 107.01,-15.55zm6.8 0l194.05 -27.24c1.45,17.49 7.79,40.69 11.63,59.86 4.6,23.01 8.31,39.62 13.05,61.85 27.3,128.11 58.35,229.69 81.33,368.03 17.8,107.19 36.8,147.25 138.09,161.57 45.34,6.42 83.27,-12.55 121.58,-23.49 42.39,-12.1 82.35,-25.26 131.34,-25.26 27.5,0 70.74,5.09 88.51,13.61l0 231.5c-18.59,-4.33 -31.59,-11.04 -52.46,-15.63 -40.23,-8.85 -79.76,-11.09 -121.28,-8.33 -112.51,7.5 -291.61,112.64 -390.58,19.76 -12.44,-11.68 -24.23,-23.04 -32.59,-38.89 -40.43,-76.6 -96.58,-440.25 -122.05,-541.79 -9.65,-38.5 -18.55,-77.52 -28.61,-117.77l-32.01 -117.78zm-309.78 -17.02l296.17 -23.83 4.03 33.96c-37.99,0.98 -239.65,37.53 -286.59,37.53 -6.08,-12.68 -8.33,-35.84 -13.61,-47.66zm-183.83 3.4l0 -132.76c0,-20.71 3.4,-24.84 3.4,-44.26 34.13,0 56.4,3.41 91.92,3.41 0,55.8 3.4,107.48 3.4,166.8 -31.79,2.65 -63.15,6.81 -98.72,6.81zm527.66 -34.04c9.59,0 20.1,1.27 23.51,1.23l20.74 -4.64c40.82,0 72.94,-3.81 108.94,-6.8 2.33,10.01 3.4,10.39 3.4,23.83 -52.59,12.25 -139.54,14.53 -194.04,27.23 -0.42,-18.99 -6.39,-18.46 -6.81,-37.45l36.77 -0.67c0.9,-0.19 1.89,-0.55 2.66,-0.75 0.73,-0.2 1.89,-0.76 2.46,-0.94 0.56,-0.18 1.64,-0.58 2.37,-1.04zm0 0l-34.05 0c0,-45.41 3.41,-84.29 3.41,-132.77 22.41,0 33.89,1.98 51.06,3.41l0 125.95 -15.69 1.34c-0.72,0.19 -1.86,0.79 -2.43,0.98 -0.55,0.17 -1.58,0.63 -2.3,1.09zm156.59 -10.21c22.86,0 51.2,-1.37 74.4,-3.91 64.33,-7.03 57.94,-8.35 58.37,10.71l-125.96 17.03c-0.87,-10.44 -3.23,-16.37 -6.81,-23.83zm255.32 -3.41c23.66,0 40.26,-6.81 68.09,-6.81 0,49.72 31.66,145.57 44.59,210.73 11.18,56.34 11.52,85.44 84.77,85.44 15.97,0 34.96,-9.29 48.33,-12.94 70.56,-19.25 50.68,-7.48 91.24,-7.48l0 88.51c-66.46,-35.16 -133.92,10.21 -200.85,10.21 -67.68,0 -77.55,-95.59 -89.95,-161.96 -6.98,-37.35 -29.76,-171.41 -46.22,-205.7zm-367.66 10.21l-20.42 0 0 -125.95 88.51 0c0,27.82 -5.37,100.85 3.4,119.15 -16.13,0 -24.07,1.05 -34.99,2.46l-28.99 1.64c-7.46,1.48 -3.35,0.07 -7.51,2.7zm255.32 -17.02c24.89,0 91.64,-10.06 105.53,-3.4 -5.85,14.48 -43.76,12.32 -57.58,13.9 -46.53,5.34 -47.43,12.69 -47.95,-10.5zm108.94 -6.8l68.08 -6.81c-3.92,14.7 2.44,7.53 -35.09,12.62 -22.05,3 -29.23,8.26 -32.99,-5.81zm-439.15 -129.37c0,-33.11 3.4,-52.5 3.4,-85.1l47.66 0 0 105.53 -51.06 0 0 -20.43zm57.87 -85.1c9.29,4.45 71.05,10.21 88.51,10.21l0 91.92 -91.91 0c0,-21.86 3.29,-27.94 3.54,-47.53 0.22,-18.06 -0.14,-36.49 -0.14,-54.6zm-445.96 -68.09l223.33 38.8c33.78,5.6 25.19,-14.41 25.19,128.01l-251.92 -3.4c0,-30.99 3.61,-50.28 3.45,-78.26 -0.16,-28.37 -0.05,-56.77 -0.05,-85.15zm-105.53 -3.4l74.9 0c9.19,0 9.38,1.62 17.02,3.4l0 163.41 -91.92 0 0 -166.81zm-1671.49 -268.94c26.01,0 59.66,8.83 82.67,12.65l586.53 94.32c57.33,8.83 111.11,16.71 167.75,26.29 26.31,4.45 56.38,8.22 82.7,12.62l421.63 65.18c0,75.77 3.4,145.96 3.4,224.69l-81.2 -3.91c-24.32,-2.73 -59.23,-0.34 -84.67,-3.83 -47.96,-6.57 -116.71,0.19 -166.31,-7.32 -40.36,-6.11 -199.66,-5.98 -250.44,-11.68 -37.8,-4.24 -125.2,-3.71 -166.49,-7.13 -13.74,-1.14 -30.17,0.13 -44.21,-0.04 -18.91,-0.23 -21.67,-3.44 -40.58,-3.68 -14.38,-0.17 -30.22,0.92 -44.41,0.16 -15.81,-0.86 -20.99,-3.59 -40.76,-3.5 -14.11,0.05 -30.48,0.84 -44.35,0.09 -15.81,-0.85 -20.99,-3.58 -40.75,-3.5 -13.67,0.06 -27.34,0.11 -41.01,0.16 -19.77,0.08 -24.94,-2.65 -40.76,-3.5 -28.28,-1.53 -60.5,2.14 -88.35,-0.16l-129.62 -3.15c-19.52,0.08 -25.89,-3.15 -40.77,-3.48l0 -381.28zm2222.98 37.45c17.24,9.12 76.77,47.93 88.51,51.06l0 251.92 -88.51 -6.81 0 -296.17zm-442.55 -343.83l6.81 0c6.33,8.65 18.26,14.09 27.22,20.44l149.12 102.79c14.34,9.51 47.98,36.44 61.96,40.17l0 439.15c-19.61,0 -42.36,-4.34 -61.09,-7l-123.34 -16.23c-20.1,-2.89 -43.72,-7.41 -64.09,-7.41 0,-194.15 3.41,-377.54 3.41,-571.91zm-1797.45 687.66c-44.65,10.4 -111.94,-3.59 -156.59,6.81l0 -394.89c57.24,0 102.53,3.4 160,3.4 0,34.13 -3.42,56.4 -3.41,91.91l0 292.77zm2508.94 -445.96l0 -57.87 408.51 3.4 0 47.66c-33.61,0 -61.51,3.41 -98.73,3.41l-309.78 3.4zm-340.43 217.87l-371.06 -459.57 371.06 459.57zm0 0c0,62.18 -2.41,232.28 2.91,279.65l0.36 111.98c0.23,18.56 3.54,20.31 3.54,37.31l-190.73 13.53c-17.12,0.42 -26.72,2.93 -47.64,3.42 -35.13,0.84 -112.19,10.28 -146.31,10.28l0 -166.8 187.37 10.07c21.59,0.26 38.27,3.54 64.55,3.54l6.8 129.36c0,-85.01 -7.18,-720.06 3.41,-742.12 -13.36,-3.57 -23.84,-13.67 -30.64,-23.84 7.18,-10.72 13.67,-23.06 20.3,-34.16 10.38,-17.4 10.61,-20.09 10.39,-47.49l-0.05 -806.85 118.42 215.19 -2.68 1006.93zm10.21 -1004.25l47.67 0 -0.03 595.76c-0.13,25.93 3.61,37 3.51,61.18l-0.08 320.08c0,73.2 3.4,134.62 3.4,207.66 -36.89,0 -24.3,1.46 -47.66,3.4 0,-106.49 4.94,-522.97 -2.9,-592.83l-3.91 -595.25zm-874.89 125.96l-3.4 -3.41 3.4 3.41zm6.81 -17.03l39.77 -86.18c3.36,-7.42 3.73,-7.76 7.89,-12.54l0 153.19c-13.18,-8.82 -14.84,-14.38 -24.85,-26.21 -10.26,-12.14 -13.7,-14.64 -22.81,-28.26zm61.28 -1851.91l273.47 567.38c20.84,41.67 29.8,51.05 29.53,93.02 -3.61,559.43 -0.03,1127.39 -0.03,1688.54 0,83.41 3.41,155.17 3.41,238.3 0,110.15 -4.28,389.55 3.22,480.17 2.97,35.82 -0.27,81.88 0.38,119.17 0.71,40.38 -2.99,23.5 -91.93,30.63l-166.98 13.43c-10.04,0.51 -20.03,-0.62 -30.15,0.5 -10.74,1.18 -12.35,2.9 -27.73,2.9l0 -956.59c0,-80.05 -7.01,-214.33 2.47,-283.49l1.68 -279.32c-4.96,-90.43 -0.75,-193 -0.75,-284.85l3.41 -1429.79zm-1358.3 885.1l342.85 266.51c20.46,15.18 36.88,29.37 57.36,44.77 166.77,125.45 350.52,272.22 516.97,402.18l285.5 221.74c20.31,15.07 37.43,29.91 57.36,44.76 102.39,76.28 84.65,57.54 84.64,119.62 -0.03,272.34 0,544.68 0,817.02 -56.26,-13.1 -270.95,-46.89 -331.18,-56.91 -113.77,-18.92 -221.45,-37.44 -335.09,-56.4 -154.82,-25.81 -348.68,-62.3 -501.96,-83.57 -33.55,-4.65 -150.51,-24.4 -173.05,-24.4l-3.4 -1695.32zm1766.81 1971.07l-91.92 3.4c0,-267.96 3.41,-525.18 3.41,-793.19l0 -1419.57c110.57,0 91.92,-14.49 91.91,57.87l0.08 415.4c0.1,24.99 -3.55,40.07 -3.49,68 1.06,465.53 -3.4,926.53 -3.4,1392.34 0,94.5 3.41,179.69 3.41,275.75zm-1777.02 -1868.94l0 1589.79 -160 3.4 -3.41 -1698.72 166.81 0c0,39.29 -3.4,65.86 -3.4,105.53zm1297.02 878.3c-11.48,-3.06 -37.2,-26.1 -47.63,-34.08l-48.16 -36.94c-33.1,-24.77 -62.76,-48.84 -96.31,-73.91l-236.87 -181.84c-145.57,-111.39 -306.48,-239.87 -451.75,-348.25l-73.26 -56.11c-15.78,-13.03 -30.31,-22.58 -46.09,-35.61 -43.55,-36 -281.06,-211.93 -285.13,-222.1 -4.45,-11.09 -1.61,-391.86 -1.61,-423.92 16.45,11.01 146.12,137.6 165.91,157.49l709.8 675.73c9.18,9.28 12.38,10.8 22.01,18.84 7.66,6.41 13.41,13.11 20.58,20.27l42.62 39.09c14.56,14.01 26.05,27.38 40.74,40.96l336.21 317.4 -29.5 72.63c-6.17,12.85 -9.68,22.36 -15.9,35.17 -16.85,34.72 -12.22,25.4 -5.66,35.18zm-1460.43 -1422.98c46,0 79.65,3.41 125.96,3.41l40.85 0 0 428.93 -166.81 0 0 -432.34zm7060.43 4285.96l-23.84 -3.4c0,-149.95 3.41,-288.99 3.41,-439.15 19.47,-0.44 35.89,-6.81 57.87,-6.81l0 422.13c0,12.44 -23.55,27.23 -37.44,27.23zm-51.07 -439.15l13.62 0 0 170.21c-32.77,-2.72 -9.59,-21.03 -18.99,-83.13 -2.56,-16.9 -0.01,-32.67 -1.95,-49.15 -1.24,-10.53 -10.82,-37.93 7.32,-37.93zm0 -10.21c5.17,-22.19 31.37,-63.01 41.83,-87.53l43.28 -89.49 0 166.81c-29.32,0 -58.62,9.62 -85.11,10.21zm-1099.57 -224.68l23.82 0c-10.51,45.13 -142.97,321.94 -142.97,394.89 -21.37,0 -45.46,4.74 -67.47,7.43l-344.16 43.92c-217.5,24.87 -467.26,59.49 -685.98,90.19 -273.77,38.44 -543.78,71.51 -817.51,111.85 -33.8,4.98 -260.04,34.4 -270.41,39.38 0,-65.82 0,-131.63 0,-197.45 0,-70.1 3.4,-129.11 3.4,-197.45l574.7 -72.11c94.07,-11.53 193.13,-24.67 287.2,-36.2l1151.49 -145.53c10.42,-1.45 279.88,-33.84 287.89,-38.92zm1198.29 91.91c0,-102.2 -6.51,-57.19 30.19,-146.83 43.71,-106.73 16.94,-91.11 112.5,-101.97 27.77,-3.15 69.68,-7.28 95.61,-13.33 0,94.84 -36.61,210.84 -129.76,244.72 -24.94,9.07 -75.14,17.41 -108.54,17.41zm-1198.29 -91.91c-28.8,0 -274.72,30.67 -320.99,36.46l-1285.2 154.8c-51.65,6.33 -107.76,13.89 -160.62,19.8l-482.78 58.5c-8.8,1.07 -31.24,4.74 -39.02,5.26 -14.48,0.98 -8.91,-1.02 -17.04,-1.59 -20.5,-1.43 -5.58,-0.3 -18.04,3.77 -18.43,6 -218.94,29.38 -243.12,29.38l0 -224.68c25.25,0 58.14,-4.47 84.1,-7.82 23.58,-3.03 58.21,-6.83 83,-8.91 56.86,-4.76 111.97,-12.43 166.81,-17.02l1001.13 -101.85c223.28,-23.6 446.58,-43.22 667.27,-68.04l166.32 -17.52c55.72,-3.73 110.95,-12.4 166.59,-17.23 55.21,-4.8 110.82,-13.28 166.79,-17.05 25.59,-1.72 59.12,-6.17 82.78,-9.13l84.14 -7.77 -55.92 138.12c-6.88,17.27 -14.94,31.81 -18.97,49.11 -3.69,0 -10.43,-0.42 -13.74,-0.12l-13.49 3.53zm1276.59 -166.81c0.6,-7.2 48.27,-140.63 57.87,-146.38l418.73 -37.45 0 129.36 -476.6 54.47zm-3908.08 -146.38l25.29 213c8.11,59.18 18.96,157.57 18.96,215.93l-3.4 0c0,-41.41 -25.32,-257.55 -30.73,-319.9 -3.08,-35.44 -10.12,-71.64 -10.12,-109.03zm-3.41 -30.64l3.41 0 0 27.23 -3.41 0 0 -27.23zm-3.4 -27.24l3.4 0 0 23.83 -3.4 0 0 -23.83zm3972.76 51.07c0.9,-10.72 9.77,-31 13.16,-41.31 4.83,-14.63 12.8,-28.49 14.08,-43.8 11.44,0.95 27.02,4.71 38.01,6.25 14.85,2.07 23.49,3.03 38.85,5.4 26.24,4.05 53.29,7.63 77.37,11.14l146.62 20.19c14.21,4.72 3.36,0.81 8.94,4.68 -32.05,0 -54.92,4.24 -84.8,7.12l-167.41 19.83c-26,2.95 -60,10.5 -84.82,10.5zm-3976.16 -81.7l3.4 0 0 20.42 -3.4 0 0 -20.42zm4119.14 -292.77l0 296.17c-12.56,-0.28 -43.97,-4.38 -55.41,-5.87 -15.35,-2.01 -43.52,-4.34 -56.93,-4.34 5.5,-23.58 16.38,-50.81 24.26,-74.47l60.36 -188.15c1.3,-1.76 25.25,-21.68 27.72,-23.34zm-4122.55 265.53l3.41 0 0 17.02 -3.41 0 0 -17.02zm-3.4 -30.64l3.4 0 0 17.03 -3.4 0 0 -17.03zm0 -30.64l0 13.62c-4.04,-6.36 -3.83,7.6 -2.81,-6.81 0.53,-7.42 -0.05,-2.87 2.81,-6.81zm-6.81 -20.42c-1.22,-6.44 4.28,-12.1 2.15,-2.15 -0.05,0.23 0.1,14.03 -2.15,2.15zm-3.41 -30.64c-1.22,-6.44 4.29,-12.1 2.16,-2.15 -0.05,0.23 0.09,14.04 -2.16,2.15zm-3.4 -30.64c0,-8.7 5.39,-0.55 2.02,0 -0.04,0.01 -2.02,9.51 -2.02,0zm-3.4 -30.64c0,-8.7 5.39,-0.54 2.02,0 -0.04,0.01 -2.02,9.51 -2.02,0zm-3.41 -30.63l1.02 1.01c-0.07,-0.07 -1.36,-0.68 -1.02,-1.01zm2900.42 91.91c4.57,3.45 -7.16,3.41 10.22,3.41 -1.2,14.41 -60.85,153.77 -67.6,170.69l-68.57 173.13c-30.21,0 -55.41,4.28 -82,6.52 -195.22,16.41 -393.19,38.72 -588.35,55.06 -109.89,9.19 -224.43,24.26 -334.2,33.45 -55.62,4.65 -115.25,9.72 -167.49,16.34 -57,7.23 -111.04,8.11 -167.79,16.04 -53.89,7.53 -110.28,11.33 -164.56,15.87 -53.95,4.51 -111.78,13.32 -167.1,16.73 -54.77,3.36 -112.95,13.94 -166.91,16.91l-334.97 32.7c-56.74,7.93 -110.78,8.81 -167.79,16.04 -52.56,6.66 -111.31,11.64 -167.48,16.34 -24.87,2.08 -59.27,5.94 -82.97,8.95 -13.79,1.75 -29.18,3.16 -40.17,4.08 -17.65,1.48 -27.65,3.7 -43.96,3.7l-24.46 -210.44c-8.49,-69.34 -15.31,-141.38 -25.15,-213.15 -5.15,-37.58 -7.69,-69.83 -12.3,-106.85l-36.82 -320.63c57.4,0 749.31,-3.8 785.48,0.91l526.15 62.79c60.02,7.51 119.52,14.56 176.63,20.81 235.8,25.76 470.38,55.67 704.69,81.69 58.78,6.53 118.51,13.11 173.99,20.05 113.29,14.18 242.38,25.01 354.52,40.38 31.35,4.3 57.63,6.03 88.49,10.24 29.43,4.01 60.49,8.24 90.47,8.24zm-1875.74 -231.49l-10.21 0c0,-365.56 6.81,-727.02 6.81,-1092.77 16.23,8.59 10.22,2.52 10.21,57.88l3.4 629.78c0,39.95 -3.69,101.77 0.5,139.08 15.19,135.31 -10.71,196.27 -10.71,266.03zm214.47 27.23l-97.23 -11.7c-17.44,-2.43 -32.24,-3.69 -48.87,-5.6 -14.53,-1.67 -36.9,-6.2 -51.35,-6.52l11.66 -131.32c2.38,-17.39 -2.07,-34.14 9.34,-38.33 0.43,-0.16 176.29,-3.97 190.07,-3.97 -0.22,9.72 -3.11,33.81 -4.86,46.2 -6.79,47.96 -8.76,103.33 -8.76,151.24zm752.34 91.92c-22.03,-5.13 -53.35,-7.68 -78.01,-10.5l-163.79 -20.04c-27.71,-2.36 -55.64,-8.15 -81.61,-10.31 0,-56.31 8.38,-149.61 21.71,-202.97 6.5,-26.02 12.31,-33 22.55,-52.35 51.61,0 105.59,-7.19 156.6,-6.81 51.42,0.38 104.15,-6.81 156.59,-6.81 0,23.1 -7.25,50.45 -11.18,73.93 -3.73,22.33 -7.57,47.95 -11.21,73.89 -7.22,51.39 -11.65,105.72 -11.65,161.97zm-439.15 -122.55l3.4 68.08 -119.14 -13.61c-20.39,-2.29 -40.06,-4.7 -61,-7.1 -19.78,-2.27 -39.33,-6.52 -61.56,-6.52 0,-23.09 3.16,-31.24 3.35,-54.52l12.22 -103.53c3.6,-19.47 7.92,-30.12 11.67,-46.21 71.09,0 154.76,-10.21 238.29,-10.21 -15.51,66.58 -27.23,95.49 -27.23,173.62zm-1388.94 -173.62c49.69,0 88.55,-3.41 139.58,-3.41 47.66,0 95.32,0 142.98,0 19.13,82.15 23.83,45.1 23.83,153.2l-142.98 0c-48.54,0 -84.52,-3.41 -132.77,-3.41 -2.75,-33.07 -9.49,-80.83 -19.16,-113.6l-11.48 -32.78zm878.3 10.21c0,-308.11 6.81,-614.18 6.81,-922.55l23.83 0c0,287.02 3.4,563.62 3.4,851.06l3.41 0c0,-287.57 3.41,-565.05 3.41,-851.06 11.56,6.5 33.86,3.41 47.65,3.41l3.41 905.52 -88.51 0 -3.41 13.62zm292.77 -13.62c-8.82,16.67 -20.43,52.79 -20.43,78.3l-3.4 -112.34c21.83,0 29.53,-2.98 47.55,-3.51l102.35 -3.18c18.6,-0.55 28.06,-3.73 50.94,-3.53l149.92 -6.69c44.16,-0.15 40.73,-20.45 40.73,44.15 0,6.83 -10.24,17.8 -13.5,23.95 -3.98,7.51 -7.9,20.71 -10.78,30.07 -15.84,51.41 -26.79,154.13 -26.79,211.51 -12.28,-5.89 -81.44,-8.64 -86.81,-11.91 -22,-13.35 4.88,-203.48 28.94,-253.62 -88.72,0 -171.38,6.8 -258.72,6.8zm374.46 -54.46l34.05 0c11.73,0 13.18,-2.52 23.83,-3.41l0 47.66 -57.88 0 0 -44.25zm891.92 428.93c-29.83,-6.94 -163.31,-20.66 -205.28,-26.21l-206.63 -24.85c0,-65.53 9.76,-267.79 42.79,-321.46 7.22,-11.71 21.12,-12.19 38.76,-12.3 67.67,-0.45 124.65,-3.3 190.79,-3.26l139.58 -3.39c21.53,0.08 31.41,-2.07 47.65,-3.42 -17.34,36.15 -33.42,137.82 -39.41,181.86 -9.39,68.92 -8.25,135.8 -8.25,213.03zm299.57 37.45c-3.65,-2.32 -0.06,-1.94 -7.1,-3.1 -3.09,-0.51 -6.76,-0.3 -9.92,-0.3l0 -10.21c4.33,-6.83 3.61,-19.01 3.49,-27.16 -1,-65.04 25.1,-234 40.77,-296.25 4.22,-16.78 8.37,-33.02 13.19,-48.09 4.75,-14.84 10.74,-33.04 14.04,-47.23 122.01,0 232.77,-3.41 354.04,-3.4 32.86,0 55.88,-3.62 85.07,-3.45l268.98 -3.36 -51.07 211.06c-77.16,0 -154.32,0 -231.49,0 -88.52,0 -261.48,-10.99 -338.44,5.38 -60.38,12.85 -47.52,40.52 -92.73,142.17l-35.21 83.94 -13.62 0zm139.58 -520.85l81.7 0 0 27.23c0,22.65 3.4,29.47 3.4,51.07l-88.5 0c0,-31.19 3.4,-48.82 3.4,-78.3zm-156.6 507.24c-3.45,4.56 -3.4,-7.17 -3.4,10.21l-275.75 -34.05c0,-119.09 4.58,-202.09 28.66,-311.76 3.85,-17.52 7.93,-30.32 12.18,-45.69 4.32,-15.6 10.04,-28.84 13.63,-44.25l-432.34 6.81c-2.53,10.85 -6.25,15.04 -9.71,24.33 -4.06,10.89 -3.39,14.9 -10.71,23.33l0 -102.13c21.83,0 29.52,-2.98 47.55,-3.51 17.94,-0.54 36.74,0.76 54.69,0.22 18.1,-0.54 25.62,-3.69 47.5,-3.56 70.79,0.41 131.96,-6.99 207.78,-6.68 22.57,0.09 29.35,-3.57 50.87,-3.61 140.22,-0.19 274.24,-13.49 415.44,-13.49l3.4 74.89 -81.7 3.4c-41.96,87.45 -68.09,334.17 -68.09,425.54zm2097.02 708.08c0,116.17 -45.13,238.3 -180.42,238.3l-149.79 0c-184.71,0 -361.97,-29.18 -520.86,51.05 -96.09,48.51 -56.37,44.97 -123.26,27.96l-93.13 -26.02c-14.87,-4.25 -34.01,-10.89 -49.13,-12.14 0,-113.88 3.4,-218.93 3.4,-330.21 84.15,0 149.96,-23.27 187.81,-70.92 39.07,-49.16 60.71,-134.14 60.71,-201.43 23.85,-1.98 51.85,-7.54 78.01,-10.49 41.43,-4.66 214.76,-30.36 238.58,-30.36l0 -136.17c0,-20.25 27.92,-16.18 -42.31,-25.77l-230.03 -25.29c0,-113.54 42.43,-361.06 72.96,-468.32l34.99 -97.77c5.4,-12.58 11.47,-19.63 14.6,-33.06l170.35 -3.27c20.7,-0.25 33,-3.64 57.73,-3.55 39.98,0.15 77.51,-0.32 112.53,-3.21 37.43,-3.1 81.36,2.74 118.79,-0.36 34.99,-2.9 72.56,-3.41 112.54,-3.2 23.87,0.12 33.99,-3.32 54.31,-3.56l231.7 -3.19c23.6,0.09 33.11,-3.49 57.8,-3.49l-65.12 200.42c-32.27,96.32 -74.56,249.85 -99.67,349.69 -12.38,49.23 -21.02,95.62 -32.66,144.36 -5.6,23.44 -9.65,48.9 -14.51,74 -10.07,52.04 -31.39,201.28 -22.7,242.35 9.84,46.52 16.78,107.35 16.78,163.65zm-3669.78 -1154.04l0 -71.49 339.39 -38.49c10.28,-1.37 37.02,-5.51 48.69,-5.77l0 105.53c-129.94,0 -258.45,10.22 -388.08,10.22zm411.91 -10.22l-13.62 0 3.41 -105.53 51.06 0 3.41 102.13c-19.42,0 -23.55,3.4 -44.26,3.4zm1317.45 -173.61c0,-20.71 3.4,-24.84 3.4,-44.26l78.3 0 0 163.4 -81.7 0 0 -119.14zm-834.04 139.57l0 -102.13c39.63,0 636.38,-62.55 715.46,-70.91 35.71,-3.77 71.76,-8.02 104.96,-10.79l3.41 163.4c-38.71,0 -64.24,3.43 -102.13,3.41 -32.87,-0.02 -72.62,-3.33 -104.1,1.44l-515.48 12.18c-33.23,-0.01 -74.43,-3.05 -102.12,3.4zm1950.64 -68.08l0 -204.26 285.01 -24.77c21.32,-2.8 47.54,-4.21 72.17,-6.12l360.16 -31.34c21.35,-2.76 47.63,-4.69 72.38,-5.92l287.99 -25.2c23.1,-3.36 48.72,-5.37 72.92,-5.37l0 279.14c-195.48,0 -381.92,10.33 -575.32,10.22 -178.6,-0.11 -396,13.62 -575.31,13.62zm1167.65 -306.39c49.63,0 94.01,-10.21 146.38,-10.21l0 289.36 -146.38 0 0 -279.15zm160 221.28c0,-82.22 3.41,-152.82 3.41,-234.89l74.89 0 0 289.36 -78.3 0 0 -54.47zm-4299.57 245.1l-47.66 0 0 -622.97c0,-98.03 3.41,-184.64 3.41,-282.55l6.8 0c0,117.55 3.41,224.39 3.41,340.42 0,114.61 0,229.22 0,343.83l6.81 -680.85 64.68 3.4c0.36,16.03 3.49,29.32 3.41,51.06l3.4 827.24c0,-61.75 3.4,-111.66 3.4,-173.62l0 -704.68 20.43 0 0 684.26c0,44.09 3.4,75.39 3.4,119.15l3.4 -803.41c14.82,0.33 18.58,3.41 37.45,3.41l0 616.17c0,80.25 -5.44,171.23 2.91,245.6 3.24,28.83 0.4,142.55 0.5,186.74 0.06,25.24 -3.41,40.54 -3.41,61.28 -17.54,0 -38.15,-5.46 -54.47,-6.82 0,-64.94 9.49,-124.76 17.6,-187.41 2.81,-21.64 8.24,-16.84 -65.25,-16.84 0,-250.45 -3.41,-493.18 -3.41,-745.53l-3.41 0c0,251.05 -3.4,491.24 -3.4,742.12zm1854.59 -1847.63c7.94,3.81 64.44,9.34 79.03,9.34l0 1228.94c0,113.86 3.4,216.44 3.4,330.21l-78.3 0 1.15 -839.33c0,-166.41 1.03,-336.61 -1.01,-502.08 -0.94,-75.36 -4.27,-152.23 -4.27,-227.08zm2267.96 1251.89l0 125.96c-46.54,0 -96.28,9.55 -142.99,10.19 -20.57,0.29 -52.9,4.27 -71.98,6.32l-142.41 10.79c-22.09,0.53 -51.67,1.52 -73.52,4.78l-433.75 32.63c-18.35,0.87 -50.93,4.36 -68.62,6.27 -38.15,4.11 -201.12,9.73 -217.36,17.53 0,-688.65 3.4,-1371.83 3.4,-2062.98l681.93 -369.98c65.39,-36.31 195.43,-104.62 250.18,-137.91 23.64,-14.37 48.95,-26.54 72.3,-40.04 6.17,-3.57 11.01,-5.43 17.95,-9.28l89.65 -49.92c12.07,-6.08 27.84,-16.74 38.63,-19.25 0,828.47 -3.41,1646.41 -3.41,2474.89zm-2280.85 -1014.47c0,274.63 0,549.29 0,823.83l0 507.24c-33.61,0 -67.6,4.43 -101.9,7.03l-306.83 26.79c-69.38,5.26 -137.48,11.95 -204.26,17.02l-180.14 13.9c-15.29,0.74 -12.5,3.01 -27.29,3.34 0,-59.49 3.4,-107.09 3.4,-166.81l0 -813.61c0,-68.7 -3.4,-125.53 -3.4,-194.05 69.1,-36.56 137.31,-76.86 204.41,-115.59 16.75,-9.66 34.01,-17.86 50.75,-27.54 16.63,-9.61 34.01,-20.03 52.37,-29.34l466.67 -258.43c18.01,-10.75 33.15,-18.43 50.87,-27.81 -4.91,47.11 -3.02,178.94 -4.65,234.03z"/>
 </g>
</svg>
